<svg width="14" height="18" viewBox="0 0 14 18" fill="none" xmlns="http://www.w3.org/2000/svg">
<path d="M7.25008 10.6667C9.08841 10.6667 10.5834 9.17167 10.5834 7.33333C10.5834 5.495 9.08841 4 7.25008 4C5.41175 4 3.91675 5.495 3.91675 7.33333C3.91675 9.17167 5.41175 10.6667 7.25008 10.6667ZM7.25008 5.66667C8.16925 5.66667 8.91675 6.41417 8.91675 7.33333C8.91675 8.2525 8.16925 9 7.25008 9C6.33091 9 5.58341 8.2525 5.58341 7.33333C5.58341 6.41417 6.33091 5.66667 7.25008 5.66667Z" fill="#008080"/>
<path d="M6.76666 17.1784C6.90779 17.2789 7.07674 17.3329 7.24999 17.3329C7.42325 17.3329 7.59219 17.2789 7.73333 17.1784C7.98666 16.9992 13.9408 12.7001 13.9167 7.33341C13.9167 3.65758 10.9258 0.666748 7.24999 0.666748C3.57416 0.666748 0.583325 3.65758 0.583325 7.32925C0.559159 12.7001 6.51333 16.9992 6.76666 17.1784ZM7.24999 2.33341C10.0075 2.33341 12.25 4.57591 12.25 7.33758C12.2675 11.0359 8.59333 14.3567 7.24999 15.4459C5.90749 14.3559 2.23249 11.0342 2.24999 7.33341C2.24999 4.57591 4.49249 2.33341 7.24999 2.33341Z" fill="#008080"/>
</svg>
