<svg width="52" height="42" viewBox="0 0 52 42" fill="none" xmlns="http://www.w3.org/2000/svg">
<circle cx="21.6694" cy="9.02973" r="8.85004" fill="#4B4B4B"/>
<rect x="27.2607" y="18.3289" width="5.1014" height="10.5873" rx="0.993511" transform="rotate(-44.819 27.2607 18.3289)" fill="#4B4B4B"/>
<rect x="26.9114" y="15.8828" width="2.09168" height="2.14073" transform="rotate(-45.8249 26.9114 15.8828)" fill="#4B4B4B"/>
<circle cx="21.6693" cy="9.02966" r="7.22717" fill="white"/>
<path d="M15.137 9.10995C15.2562 -0.707108 30.1233 0.827271 27.993 10.7635L26.0295 9.65501V6.89113H23.9401V8.38447L20.1706 6.19263L15.137 9.10995Z" fill="#008080" stroke="black" stroke-width="0.0292209"/>
<path d="M20.187 6.92017L15.2412 9.92935C15.6285 16.1563 25.2222 18.0631 27.7249 11.3893L20.187 6.92017Z" fill="#24A59E" stroke="#24A59E" stroke-width="0.0292209"/>
<rect x="18.8123" y="10.4836" width="1.15622" height="1.15621" fill="white"/>
<rect x="18.8123" y="12.1514" width="1.15622" height="1.15621" fill="white"/>
<rect x="20.5132" y="10.4836" width="1.15622" height="1.15621" fill="white"/>
<rect x="20.5132" y="12.1514" width="1.15622" height="1.15621" fill="white"/>
<path d="M3.12367 34.9797V28.5301H4.50317V34.9797H3.12367ZM5.66685 34.9797V30.4113H6.98364V31.4862H7.01051V34.9797H5.66685ZM8.84686 34.9797V32.1491C8.84686 31.8983 8.78117 31.7101 8.64979 31.5847C8.52438 31.4593 8.33925 31.3966 8.09441 31.3966C7.88539 31.3966 7.69728 31.4444 7.53007 31.5399C7.36883 31.6355 7.24043 31.7669 7.14488 31.9341C7.0553 32.1013 7.01051 32.2984 7.01051 32.5253L6.89406 31.4235C7.04336 31.0891 7.26133 30.8233 7.54798 30.6262C7.8406 30.4232 8.19892 30.3217 8.62292 30.3217C9.13053 30.3217 9.5187 30.465 9.78743 30.7517C10.0562 31.0323 10.1905 31.4115 10.1905 31.8893V34.9797H8.84686ZM13.2199 35.0693C12.5511 35.0693 12.0196 34.9349 11.6255 34.6662C11.2313 34.3975 11.0163 34.0272 10.9805 33.5554H12.1808C12.2107 33.7585 12.3122 33.9138 12.4854 34.0213C12.6646 34.1228 12.9094 34.1735 13.2199 34.1735C13.5006 34.1735 13.7037 34.1347 13.8291 34.0571C13.9605 33.9735 14.0261 33.857 14.0261 33.7077C14.0261 33.5943 13.9873 33.5077 13.9097 33.448C13.838 33.3823 13.7037 33.3285 13.5066 33.2867L12.7721 33.1344C12.2286 33.021 11.8285 32.8508 11.5717 32.6238C11.3149 32.3909 11.1865 32.0923 11.1865 31.7281C11.1865 31.2861 11.3567 30.9428 11.6971 30.6979C12.0375 30.4471 12.5123 30.3217 13.1214 30.3217C13.7246 30.3217 14.2053 30.4441 14.5636 30.689C14.9219 30.9278 15.119 31.2623 15.1548 31.6922H13.9545C13.9306 31.537 13.847 31.4205 13.7037 31.3429C13.5603 31.2593 13.3573 31.2175 13.0945 31.2175C12.8557 31.2175 12.6765 31.2533 12.5571 31.325C12.4436 31.3906 12.3869 31.4862 12.3869 31.6116C12.3869 31.7191 12.4346 31.8057 12.5302 31.8714C12.6257 31.9311 12.784 31.9848 13.005 32.0326L13.8291 32.2028C14.2889 32.2984 14.6353 32.4775 14.8682 32.7403C15.1071 32.9971 15.2265 33.3016 15.2265 33.654C15.2265 34.1019 15.0503 34.4512 14.698 34.702C14.3516 34.9469 13.8589 35.0693 13.2199 35.0693ZM18.8536 35.0693C18.4176 35.0693 18.0683 34.9678 17.8055 34.7647C17.5427 34.5617 17.3875 34.284 17.3397 33.9317L17.4114 33.9227V36.8161H16.0677V30.4113H17.3845V31.4235L17.3039 31.4056C17.3696 31.0712 17.5487 30.8084 17.8413 30.6173C18.1339 30.4202 18.4952 30.3217 18.9252 30.3217C19.3373 30.3217 19.6926 30.4202 19.9912 30.6173C20.2958 30.8084 20.5287 31.0801 20.6899 31.4324C20.8571 31.7848 20.9407 32.1998 20.9407 32.6776C20.9407 33.1613 20.8541 33.5823 20.6809 33.9406C20.5078 34.2989 20.2659 34.5766 19.9554 34.7737C19.6448 34.9708 19.2776 35.0693 18.8536 35.0693ZM18.4773 33.9944C18.7938 33.9944 19.0506 33.8809 19.2477 33.654C19.4448 33.4271 19.5433 33.1046 19.5433 32.6865C19.5433 32.2685 19.4418 31.949 19.2387 31.7281C19.0417 31.5071 18.7819 31.3966 18.4594 31.3966C18.1489 31.3966 17.8921 31.5101 17.689 31.737C17.492 31.958 17.3934 32.2775 17.3934 32.6955C17.3934 33.1135 17.492 33.436 17.689 33.6629C17.8921 33.8839 18.1549 33.9944 18.4773 33.9944ZM24.1091 35.0693C23.6014 35.0693 23.1595 34.9708 22.7833 34.7737C22.4071 34.5707 22.1145 34.29 21.9054 33.9317C21.7024 33.5734 21.6009 33.1613 21.6009 32.6955C21.6009 32.2237 21.7024 31.8117 21.9054 31.4593C22.1145 31.101 22.4041 30.8233 22.7743 30.6262C23.1446 30.4232 23.5746 30.3217 24.0643 30.3217C24.536 30.3217 24.9451 30.4172 25.2915 30.6083C25.6379 30.7994 25.9066 31.0652 26.0977 31.4056C26.2888 31.746 26.3843 32.1461 26.3843 32.6059C26.3843 32.7015 26.3813 32.791 26.3754 32.8747C26.3694 32.9523 26.3604 33.0269 26.3485 33.0986H22.3892V32.2118H25.2646L25.0317 32.373C25.0317 32.0028 24.9421 31.731 24.763 31.5579C24.5898 31.3787 24.3509 31.2891 24.0464 31.2891C23.694 31.2891 23.4193 31.4086 23.2222 31.6474C23.0311 31.8863 22.9356 32.2446 22.9356 32.7224C22.9356 33.1882 23.0311 33.5345 23.2222 33.7615C23.4193 33.9884 23.7119 34.1019 24.1001 34.1019C24.3151 34.1019 24.5002 34.066 24.6555 33.9944C24.8107 33.9227 24.9272 33.8063 25.0048 33.645H26.2679C26.1186 34.0869 25.8618 34.4363 25.4975 34.6931C25.1392 34.9439 24.6764 35.0693 24.1091 35.0693ZM30.2296 35.0693C29.7638 35.0693 29.3338 34.9887 28.9397 34.8275C28.5455 34.6602 28.2022 34.4273 27.9095 34.1287C27.6229 33.8302 27.3989 33.4778 27.2377 33.0717C27.0765 32.6597 26.9958 32.2118 26.9958 31.7281C26.9958 31.2443 27.0735 30.8024 27.2287 30.4023C27.39 30.0022 27.6139 29.6558 27.9006 29.3632C28.1932 29.0646 28.5366 28.8377 28.9307 28.6824C29.3249 28.5212 29.7578 28.4405 30.2296 28.4405C30.7611 28.4405 31.2389 28.5451 31.6629 28.7541C32.0928 28.9571 32.4422 29.2467 32.7109 29.623C32.9856 29.9932 33.1528 30.4292 33.2126 30.9308H31.8689C31.7913 30.471 31.6031 30.1246 31.3045 29.8917C31.006 29.6528 30.6506 29.5334 30.2386 29.5334C29.8743 29.5334 29.5518 29.62 29.2711 29.7932C28.9964 29.9664 28.7814 30.2172 28.6262 30.5456C28.4709 30.8681 28.3933 31.2593 28.3933 31.7191C28.3933 32.1849 28.4709 32.588 28.6262 32.9284C28.7874 33.2628 29.0084 33.5226 29.289 33.7077C29.5697 33.8869 29.8922 33.9765 30.2565 33.9765C30.6447 33.9765 30.988 33.86 31.2866 33.6271C31.5852 33.3942 31.7793 33.0478 31.8689 32.588H33.2305C33.1528 33.0896 32.9767 33.5286 32.702 33.9048C32.4273 34.2751 32.0779 34.5617 31.6539 34.7647C31.2299 34.9678 30.7551 35.0693 30.2296 35.0693ZM36.8538 34.9797C36.818 34.8484 36.7911 34.708 36.7732 34.5587C36.7613 34.4094 36.7553 34.2362 36.7553 34.0392H36.7195V31.8803C36.7195 31.6952 36.6568 31.5519 36.5313 31.4504C36.4119 31.3429 36.2328 31.2891 35.9939 31.2891C35.7669 31.2891 35.5848 31.3279 35.4475 31.4056C35.3161 31.4832 35.2295 31.5967 35.1877 31.746H33.9067C33.9664 31.3339 34.1784 30.9935 34.5427 30.7248C34.907 30.456 35.4057 30.3217 36.0387 30.3217C36.6956 30.3217 37.1972 30.468 37.5436 30.7606C37.8899 31.0532 38.0631 31.4743 38.0631 32.0237V34.0392C38.0631 34.1885 38.0721 34.3407 38.09 34.496C38.1139 34.6453 38.1497 34.8066 38.1975 34.9797H36.8538ZM35.2593 35.0693C34.8055 35.0693 34.4442 34.9558 34.1754 34.7289C33.9067 34.496 33.7723 34.1885 33.7723 33.8063C33.7723 33.3823 33.9306 33.0419 34.2471 32.7851C34.5696 32.5223 35.0175 32.3521 35.5908 32.2745L36.9255 32.0864V32.8657L35.8147 33.0359C35.5758 33.0717 35.3997 33.1374 35.2862 33.233C35.1727 33.3285 35.116 33.4599 35.116 33.6271C35.116 33.7764 35.1698 33.8899 35.2773 33.9675C35.3848 34.0451 35.5281 34.084 35.7072 34.084C35.9879 34.084 36.2268 34.0093 36.4239 33.86C36.6209 33.7047 36.7195 33.5256 36.7195 33.3225L36.8449 34.0392C36.7135 34.3796 36.5134 34.6364 36.2447 34.8095C35.976 34.9827 35.6475 35.0693 35.2593 35.0693ZM40.9979 35.0693C40.329 35.0693 39.7975 34.9349 39.4034 34.6662C39.0092 34.3975 38.7942 34.0272 38.7584 33.5554H39.9588C39.9886 33.7585 40.0901 33.9138 40.2633 34.0213C40.4425 34.1228 40.6873 34.1735 40.9979 34.1735C41.2785 34.1735 41.4816 34.1347 41.607 34.0571C41.7384 33.9735 41.8041 33.857 41.8041 33.7077C41.8041 33.5943 41.7652 33.5077 41.6876 33.448C41.6159 33.3823 41.4816 33.3285 41.2845 33.2867L40.55 33.1344C40.0065 33.021 39.6064 32.8508 39.3496 32.6238C39.0928 32.3909 38.9644 32.0923 38.9644 31.7281C38.9644 31.2861 39.1346 30.9428 39.475 30.6979C39.8154 30.4471 40.2902 30.3217 40.8993 30.3217C41.5025 30.3217 41.9832 30.4441 42.3415 30.689C42.6998 30.9278 42.8969 31.2623 42.9327 31.6922H41.7324C41.7085 31.537 41.6249 31.4205 41.4816 31.3429C41.3383 31.2593 41.1352 31.2175 40.8725 31.2175C40.6336 31.2175 40.4544 31.2533 40.335 31.325C40.2215 31.3906 40.1648 31.4862 40.1648 31.6116C40.1648 31.7191 40.2126 31.8057 40.3081 31.8714C40.4037 31.9311 40.5619 31.9848 40.7829 32.0326L41.607 32.2028C42.0668 32.2984 42.4132 32.4775 42.6461 32.7403C42.885 32.9971 43.0044 33.3016 43.0044 33.654C43.0044 34.1019 42.8282 34.4512 42.4759 34.702C42.1295 34.9469 41.6368 35.0693 40.9979 35.0693ZM46.7648 34.9797C46.729 34.8484 46.7021 34.708 46.6842 34.5587C46.6722 34.4094 46.6663 34.2362 46.6663 34.0392H46.6304V31.8803C46.6304 31.6952 46.5677 31.5519 46.4423 31.4504C46.3229 31.3429 46.1437 31.2891 45.9048 31.2891C45.6779 31.2891 45.4958 31.3279 45.3584 31.4056C45.227 31.4832 45.1404 31.5967 45.0986 31.746H43.8177C43.8774 31.3339 44.0894 30.9935 44.4537 30.7248C44.818 30.456 45.3166 30.3217 45.9496 30.3217C46.6065 30.3217 47.1082 30.468 47.4545 30.7606C47.8009 31.0532 47.9741 31.4743 47.9741 32.0237V34.0392C47.9741 34.1885 47.9831 34.3407 48.001 34.496C48.0249 34.6453 48.0607 34.8066 48.1085 34.9797H46.7648ZM45.1703 35.0693C44.7164 35.0693 44.3551 34.9558 44.0864 34.7289C43.8177 34.496 43.6833 34.1885 43.6833 33.8063C43.6833 33.3823 43.8416 33.0419 44.1581 32.7851C44.4806 32.5223 44.9284 32.3521 45.5017 32.2745L46.8365 32.0864V32.8657L45.7257 33.0359C45.4868 33.0717 45.3106 33.1374 45.1972 33.233C45.0837 33.3285 45.027 33.4599 45.027 33.6271C45.027 33.7764 45.0807 33.8899 45.1882 33.9675C45.2957 34.0451 45.439 34.084 45.6182 34.084C45.8989 34.084 46.1377 34.0093 46.3348 33.86C46.5319 33.7047 46.6304 33.5256 46.6304 33.3225L46.7558 34.0392C46.6245 34.3796 46.4244 34.6364 46.1557 34.8095C45.8869 34.9827 45.5585 35.0693 45.1703 35.0693Z" fill="#008080"/>
<path d="M0.223945 40.9905V37.7657H1.75573C1.9946 37.7657 2.19914 37.8075 2.36934 37.8911C2.54252 37.9747 2.67539 38.0911 2.76796 38.2404C2.86351 38.3897 2.91128 38.5644 2.91128 38.7645C2.91128 38.9645 2.86351 39.1407 2.76796 39.293C2.67241 39.4453 2.53804 39.5647 2.36486 39.6513C2.19466 39.7349 1.99162 39.7767 1.75573 39.7767H0.77037V39.2482H1.7199C1.87815 39.2482 2.00057 39.2049 2.08717 39.1183C2.17674 39.0287 2.22153 38.9123 2.22153 38.7689C2.22153 38.6256 2.17674 38.5107 2.08717 38.4241C2.00057 38.3375 1.87815 38.2942 1.7199 38.2942H0.913695V40.9905H0.223945ZM4.82769 40.9905V37.7657H6.2699C6.5028 37.7657 6.70584 37.806 6.87903 37.8866C7.05221 37.9642 7.18658 38.0747 7.28213 38.218C7.37768 38.3614 7.42545 38.5286 7.42545 38.7197C7.42545 38.9078 7.37768 39.0735 7.28213 39.2168C7.18658 39.3572 7.05221 39.4677 6.87903 39.5483C6.70584 39.6259 6.5028 39.6647 6.2699 39.6647H5.37412V39.1586H6.25198C6.41621 39.1586 6.54162 39.1213 6.62821 39.0466C6.71779 38.969 6.76258 38.8615 6.76258 38.7242C6.76258 38.5838 6.71928 38.4778 6.63269 38.4062C6.5461 38.3315 6.41919 38.2942 6.25198 38.2942H5.51744V40.9905H4.82769ZM6.64612 40.9905L5.35172 39.3154H6.08178L7.57773 40.9905H6.64612ZM10.9604 41.0353C10.7215 41.0353 10.5006 40.995 10.2975 40.9143C10.0975 40.8337 9.92281 40.7203 9.77351 40.5739C9.6272 40.4246 9.51225 40.2485 9.42864 40.0454C9.34802 39.8394 9.30771 39.6125 9.30771 39.3646C9.30771 39.0362 9.37788 38.7495 9.51822 38.5047C9.65856 38.2569 9.85264 38.0643 10.1005 37.9269C10.3513 37.7896 10.6364 37.7209 10.9559 37.7209C11.2814 37.7209 11.5681 37.7896 11.8159 37.9269C12.0637 38.0643 12.2578 38.2569 12.3981 38.5047C12.5415 38.7525 12.6131 39.0407 12.6131 39.3691C12.6131 39.614 12.5713 39.8394 12.4877 40.0454C12.4071 40.2485 12.2921 40.4246 12.1429 40.5739C11.9965 40.7203 11.8219 40.8337 11.6188 40.9143C11.4188 40.995 11.1993 41.0353 10.9604 41.0353ZM10.9559 40.4888C11.1441 40.4888 11.3098 40.4411 11.4531 40.3455C11.5964 40.25 11.7084 40.1186 11.789 39.9514C11.8726 39.7812 11.9144 39.5841 11.9144 39.3602C11.9144 39.1392 11.8741 38.9466 11.7935 38.7824C11.7129 38.6182 11.6009 38.4913 11.4576 38.4017C11.3143 38.3121 11.147 38.2673 10.9559 38.2673C10.7678 38.2673 10.6021 38.3121 10.4588 38.4017C10.3155 38.4913 10.2035 38.6182 10.1229 38.7824C10.0452 38.9436 10.0064 39.1362 10.0064 39.3602C10.0064 39.5871 10.0467 39.7857 10.1273 39.9559C10.208 40.1231 10.3199 40.2544 10.4633 40.35C10.6066 40.4426 10.7708 40.4888 10.9559 40.4888ZM14.5832 40.9905V37.7657H16.115C16.3538 37.7657 16.5584 37.8075 16.7286 37.8911C16.9018 37.9747 17.0346 38.0911 17.1272 38.2404C17.2227 38.3897 17.2705 38.5644 17.2705 38.7645C17.2705 38.9645 17.2227 39.1407 17.1272 39.293C17.0316 39.4453 16.8973 39.5647 16.7241 39.6513C16.5539 39.7349 16.3509 39.7767 16.115 39.7767H15.1296V39.2482H16.0791C16.2374 39.2482 16.3598 39.2049 16.4464 39.1183C16.536 39.0287 16.5808 38.9123 16.5808 38.7689C16.5808 38.6256 16.536 38.5107 16.4464 38.4241C16.3598 38.3375 16.2374 38.2942 16.0791 38.2942H15.2729V40.9905H14.5832ZM19.2048 40.9905V37.7657H19.8946V40.9905H19.2048ZM19.5273 40.9905V40.462H21.6055V40.9905H19.5273ZM19.5273 39.602V39.0825H21.4488V39.602H19.5273ZM19.5273 38.2942V37.7657H21.5518V38.2942H19.5273ZM23.5724 40.9905V37.7657H25.0146C25.2475 37.7657 25.4506 37.806 25.6237 37.8866C25.7969 37.9642 25.9313 38.0747 26.0268 38.218C26.1224 38.3614 26.1702 38.5286 26.1702 38.7197C26.1702 38.9078 26.1224 39.0735 26.0268 39.2168C25.9313 39.3572 25.7969 39.4677 25.6237 39.5483C25.4506 39.6259 25.2475 39.6647 25.0146 39.6647H24.1188V39.1586H24.9967C25.1609 39.1586 25.2863 39.1213 25.3729 39.0466C25.4625 38.969 25.5073 38.8615 25.5073 38.7242C25.5073 38.5838 25.464 38.4778 25.3774 38.4062C25.2908 38.3315 25.1639 38.2942 24.9967 38.2942H24.2622V40.9905H23.5724ZM25.3908 40.9905L24.0964 39.3154H24.8265L26.3224 40.9905H25.3908ZM29.0212 40.9905V38.2942H27.9687V37.7657H30.7635V38.2942H29.711V40.9905H29.0212ZM33.7325 40.9905V39.6871L32.5321 37.7657H33.3607L34.3102 39.4721H33.9206L34.8656 37.7657H35.6226L34.4222 39.6871V40.9905H33.7325ZM39.9731 40.9905V37.7657H40.6629V40.9905H39.9731ZM40.2956 40.9905V40.462H42.3738V40.9905H40.2956ZM40.2956 39.602V39.0825H42.217V39.602H40.2956ZM40.2956 38.2942V37.7657H42.3201V38.2942H40.2956ZM45.393 40.9905V39.6871L44.1927 37.7657H45.0212L45.9708 39.4721H45.5811L46.5262 37.7657H47.2831L46.0827 39.6871V40.9905H45.393ZM49.1683 40.9905V37.7657H49.8581V40.9905H49.1683ZM49.4908 40.9905V40.462H51.569V40.9905H49.4908ZM49.4908 39.602V39.0825H51.4123V39.602H49.4908ZM49.4908 38.2942V37.7657H51.5153V38.2942H49.4908Z" fill="black"/>
</svg>
