<svg width="24" height="24" viewBox="0 0 24 24" fill="none" xmlns="http://www.w3.org/2000/svg">
<path d="M16 15C15.7348 14.9999 15.4805 14.8945 15.293 14.707L12 11.414L8.707 14.707C8.61475 14.8025 8.50441 14.8787 8.3824 14.9311C8.2604 14.9835 8.12918 15.0111 7.9964 15.0123C7.86362 15.0134 7.73194 14.9881 7.60905 14.9378C7.48615 14.8875 7.3745 14.8133 7.2806 14.7194C7.18671 14.6255 7.11246 14.5139 7.06218 14.391C7.0119 14.2681 6.9866 14.1364 6.98775 14.0036C6.9889 13.8708 7.01649 13.7396 7.0689 13.6176C7.12131 13.4956 7.19749 13.3852 7.293 13.293L11.293 9.293C11.4805 9.10553 11.7348 9.00021 12 9.00021C12.2652 9.00021 12.5195 9.10553 12.707 9.293L16.707 13.293C16.8468 13.4329 16.942 13.611 16.9806 13.805C17.0192 13.9989 16.9993 14.2 16.9237 14.3827C16.848 14.5654 16.7199 14.7215 16.5555 14.8314C16.391 14.9413 16.1978 15 16 15Z" fill="#465461"/>
</svg>
