<svg width="100" height="100" viewBox="0 0 100 100" fill="none" xmlns="http://www.w3.org/2000/svg">
<path fill-rule="evenodd" clip-rule="evenodd" d="M0.00488281 50C0.00488281 36.7392 5.27272 24.0215 14.6495 14.6447C24.0264 5.26784 36.7441 0 50.0049 0C63.2657 0 75.9834 5.26784 85.3602 14.6447C94.737 24.0215 100.005 36.7392 100.005 50C100.005 63.2608 94.737 75.9785 85.3602 85.3553C75.9834 94.7322 63.2657 100 50.0049 100C36.7441 100 24.0264 94.7322 14.6495 85.3553C5.27272 75.9785 0.00488281 63.2608 0.00488281 50ZM47.1516 71.4L75.9382 35.4133L70.7382 31.2533L46.1915 61.9267L28.8049 47.44L24.5382 52.56L47.1516 71.4Z" fill="#008080"/>
</svg>
