<svg width="17" height="22" viewBox="0 0 17 22" fill="none" xmlns="http://www.w3.org/2000/svg">
<path d="M15.6252 16.8042H15.0627V8.83545C15.0627 5.52842 12.6182 2.79561 9.43774 2.34092V1.4292C9.43774 0.91123 9.01821 0.491699 8.50024 0.491699C7.98228 0.491699 7.56274 0.91123 7.56274 1.4292V2.34092C4.38228 2.79561 1.93774 5.52842 1.93774 8.83545V16.8042H1.37524C0.9604 16.8042 0.625244 17.1394 0.625244 17.5542V18.3042C0.625244 18.4073 0.709619 18.4917 0.812744 18.4917H5.87524C5.87524 19.9401 7.05181 21.1167 8.50024 21.1167C9.94868 21.1167 11.1252 19.9401 11.1252 18.4917H16.1877C16.2909 18.4917 16.3752 18.4073 16.3752 18.3042V17.5542C16.3752 17.1394 16.0401 16.8042 15.6252 16.8042ZM8.50024 19.6167C7.87915 19.6167 7.37524 19.1128 7.37524 18.4917H9.62524C9.62524 19.1128 9.12134 19.6167 8.50024 19.6167ZM3.62524 16.8042V8.83545C3.62524 7.53232 4.13149 6.30889 5.05259 5.38779C5.97368 4.4667 7.19712 3.96045 8.50024 3.96045C9.80337 3.96045 11.0268 4.4667 11.9479 5.38779C12.869 6.30889 13.3752 7.53232 13.3752 8.83545V16.8042H3.62524Z" fill="#777777"/>
</svg>
