<svg width="25" height="25" viewBox="0 0 25 25" fill="none" xmlns="http://www.w3.org/2000/svg">
<path d="M19.625 18.6699H19.0625V10.7012C19.0625 7.39414 16.618 4.65898 13.4375 4.2043V3.29492C13.4375 2.77695 13.018 2.35742 12.5 2.35742C11.982 2.35742 11.5625 2.77695 11.5625 3.29492V4.2043C8.38203 4.65898 5.9375 7.39414 5.9375 10.7012V18.6699H5.375C4.96016 18.6699 4.625 19.0051 4.625 19.4199V20.1699C4.625 20.273 4.70937 20.3574 4.8125 20.3574H9.875C9.875 21.8059 11.0516 22.9824 12.5 22.9824C13.9484 22.9824 15.125 21.8059 15.125 20.3574H20.1875C20.2906 20.3574 20.375 20.273 20.375 20.1699V19.4199C20.375 19.0051 20.0398 18.6699 19.625 18.6699ZM12.5 21.4824C11.8789 21.4824 11.375 20.9785 11.375 20.3574H13.625C13.625 20.9785 13.1211 21.4824 12.5 21.4824Z" fill="#008080"/>
</svg>
