<svg width="24" height="25" viewBox="0 0 24 25" fill="none" xmlns="http://www.w3.org/2000/svg">
<path d="M19.0002 4.37646H17.0002V3.37646C17.0002 3.11125 16.8949 2.85689 16.7074 2.66936C16.5198 2.48182 16.2655 2.37646 16.0002 2.37646C15.735 2.37646 15.4807 2.48182 15.2931 2.66936C15.1056 2.85689 15.0002 3.11125 15.0002 3.37646V4.37646H9.00024V3.37646C9.00024 3.11125 8.89489 2.85689 8.70735 2.66936C8.51981 2.48182 8.26546 2.37646 8.00024 2.37646C7.73503 2.37646 7.48067 2.48182 7.29314 2.66936C7.1056 2.85689 7.00024 3.11125 7.00024 3.37646V4.37646H5.00024C4.20459 4.37646 3.44153 4.69254 2.87892 5.25514C2.31631 5.81775 2.00024 6.58082 2.00024 7.37646V19.3765C2.00024 20.1721 2.31631 20.9352 2.87892 21.4978C3.44153 22.0604 4.20459 22.3765 5.00024 22.3765H19.0002C19.7959 22.3765 20.559 22.0604 21.1216 21.4978C21.6842 20.9352 22.0002 20.1721 22.0002 19.3765V7.37646C22.0002 6.58082 21.6842 5.81775 21.1216 5.25514C20.559 4.69254 19.7959 4.37646 19.0002 4.37646ZM20.0002 19.3765C20.0002 19.6417 19.8949 19.896 19.7074 20.0836C19.5198 20.2711 19.2655 20.3765 19.0002 20.3765H5.00024C4.73503 20.3765 4.48067 20.2711 4.29314 20.0836C4.1056 19.896 4.00024 19.6417 4.00024 19.3765V12.3765H20.0002V19.3765ZM20.0002 10.3765H4.00024V7.37646C4.00024 7.11125 4.1056 6.85689 4.29314 6.66936C4.48067 6.48182 4.73503 6.37646 5.00024 6.37646H7.00024V7.37646C7.00024 7.64168 7.1056 7.89604 7.29314 8.08357C7.48067 8.27111 7.73503 8.37646 8.00024 8.37646C8.26546 8.37646 8.51981 8.27111 8.70735 8.08357C8.89489 7.89604 9.00024 7.64168 9.00024 7.37646V6.37646H15.0002V7.37646C15.0002 7.64168 15.1056 7.89604 15.2931 8.08357C15.4807 8.27111 15.735 8.37646 16.0002 8.37646C16.2655 8.37646 16.5198 8.27111 16.7074 8.08357C16.8949 7.89604 17.0002 7.64168 17.0002 7.37646V6.37646H19.0002C19.2655 6.37646 19.5198 6.48182 19.7074 6.66936C19.8949 6.85689 20.0002 7.11125 20.0002 7.37646V10.3765Z" fill="#4B5563"/>
</svg>
