<svg width="36" height="33" viewBox="0 0 36 33" fill="none" xmlns="http://www.w3.org/2000/svg">
<path d="M0.875 27.75V10.875C0.875 9.88044 1.27009 8.92661 1.97335 8.22335C2.67661 7.52009 3.63044 7.125 4.625 7.125H6.36875C6.98597 7.12509 7.59367 6.97283 8.13794 6.68173C8.6822 6.39063 9.14619 5.96969 9.48875 5.45625L11.0113 3.16875C11.3538 2.65531 11.8178 2.23437 12.3621 1.94327C12.9063 1.65217 13.514 1.49991 14.1312 1.5H21.3688C21.986 1.49991 22.5937 1.65217 23.1379 1.94327C23.6822 2.23437 24.1462 2.65531 24.4887 3.16875L26.0113 5.45625C26.3538 5.96969 26.8178 6.39063 27.3621 6.68173C27.9063 6.97283 28.514 7.12509 29.1312 7.125H30.875C31.8696 7.125 32.8234 7.52009 33.5266 8.22335C34.2299 8.92661 34.625 9.88044 34.625 10.875V27.75C34.625 28.7446 34.2299 29.6984 33.5266 30.4016C32.8234 31.1049 31.8696 31.5 30.875 31.5H4.625C3.63044 31.5 2.67661 31.1049 1.97335 30.4016C1.27009 29.6984 0.875 28.7446 0.875 27.75Z" stroke="#777777" stroke-width="1.66667" stroke-linecap="round" stroke-linejoin="round"/>
<path d="M17.75 24C20.8566 24 23.375 21.4816 23.375 18.375C23.375 15.2684 20.8566 12.75 17.75 12.75C14.6434 12.75 12.125 15.2684 12.125 18.375C12.125 21.4816 14.6434 24 17.75 24Z" stroke="#777777" stroke-width="1.66667" stroke-linecap="round" stroke-linejoin="round"/>
</svg>
