<svg width="25" height="25" viewBox="0 0 25 25" fill="none" xmlns="http://www.w3.org/2000/svg">
<path d="M21.25 3.5L13.25 12M9.696 11.585C7.216 12.537 5.233 12.374 3.25 11.588C3.75 18.031 6.754 20.508 10.759 21.5C10.759 21.5 13.776 19.366 14.211 14.307C14.258 13.759 14.281 13.486 14.168 13.177C14.054 12.868 13.83 12.647 13.383 12.204C12.647 11.476 12.28 11.112 11.843 11.02C11.406 10.93 10.836 11.148 9.696 11.585Z" stroke="#DDDDDD" stroke-width="2" stroke-linecap="round" stroke-linejoin="round"/>
<path d="M4.75 16.946C4.75 16.946 7.25 17.43 9.75 15.5M11.25 4.5V4.6M8.75 7.75C8.75 8.08152 8.6183 8.39946 8.38388 8.63388C8.14946 8.8683 7.83152 9 7.5 9C7.16848 9 6.85054 8.8683 6.61612 8.63388C6.3817 8.39946 6.25 8.08152 6.25 7.75C6.25 7.41848 6.3817 7.10054 6.61612 6.86612C6.85054 6.6317 7.16848 6.5 7.5 6.5C7.83152 6.5 8.14946 6.6317 8.38388 6.86612C8.6183 7.10054 8.75 7.41848 8.75 7.75Z" stroke="#DDDDDD" stroke-width="2" stroke-linecap="round" stroke-linejoin="round"/>
</svg>
