<svg width="15" height="15" viewBox="0 0 15 15" fill="none" xmlns="http://www.w3.org/2000/svg">
<mask id="mask0_264_1963" style="mask-type:luminance" maskUnits="userSpaceOnUse" x="0" y="0" width="15" height="15">
<path d="M0.199707 0.237305H14.3333V14.3709H0.199707V0.237305Z" fill="white"/>
</mask>
<g mask="url(#mask0_264_1963)">
<path fill-rule="evenodd" clip-rule="evenodd" d="M1.37695 3.76492C1.37695 4.09016 1.64062 4.35382 1.96585 4.35382H12.566C12.8913 4.35382 13.1549 4.09016 13.1549 3.76492C13.1549 3.43969 12.8913 3.17603 12.566 3.17603H1.96585C1.64062 3.17603 1.37695 3.43969 1.37695 3.76492Z" fill="#4B5563"/>
<path fill-rule="evenodd" clip-rule="evenodd" d="M4.84031 1.33996C4.49534 1.68493 4.32285 2.10135 4.32285 2.58921V3.767C4.32285 4.09225 4.58652 4.35591 4.91175 4.35591C5.23699 4.35591 5.50065 4.09225 5.50065 3.767V2.58921C5.50065 2.42659 5.55814 2.28778 5.67313 2.17279C5.78812 2.0578 5.92693 2.00031 6.08955 2.00031H8.44515C8.60777 2.00031 8.74658 2.0578 8.86157 2.17279C8.97655 2.28778 9.03405 2.42659 9.03405 2.58921V3.767C9.03405 4.09225 9.29771 4.35591 9.62295 4.35591C9.94818 4.35591 10.2118 4.09225 10.2118 3.767V2.5892C10.2118 2.10134 10.0394 1.68493 9.69439 1.33996C9.34942 0.994994 8.93301 0.82251 8.44515 0.82251H6.08955C5.60169 0.82251 5.18527 0.994994 4.84031 1.33996ZM2.55615 3.767C2.55615 3.44177 2.81981 3.17811 3.14505 3.17811C3.47029 3.17811 3.73395 3.44177 3.73395 3.767V12.0116C3.73395 12.1742 3.79145 12.313 3.90644 12.428C4.02143 12.543 4.16023 12.6005 4.32285 12.6005H10.2118C10.3745 12.6005 10.5133 12.543 10.6283 12.428C10.7432 12.313 10.8007 12.1742 10.8007 12.0116V3.767C10.8007 3.44177 11.0644 3.17811 11.3897 3.17811C11.7149 3.17811 11.9785 3.44177 11.9785 3.767V12.0116C11.9785 12.4994 11.8061 12.9159 11.4611 13.2609C11.1161 13.6058 10.6997 13.7783 10.2118 13.7783H4.32285C3.83499 13.7783 3.41857 13.6058 3.07361 13.2609C2.72864 12.9159 2.55615 12.4994 2.55615 12.0116V3.767Z" fill="#4B5563"/>
<path fill-rule="evenodd" clip-rule="evenodd" d="M6.09329 6.12012C5.76806 6.12012 5.50439 6.38378 5.50439 6.70902V10.2424C5.50439 10.5676 5.76806 10.8313 6.09329 10.8313C6.41853 10.8313 6.68219 10.5676 6.68219 10.2424V6.70902C6.68219 6.38378 6.41853 6.12012 6.09329 6.12012Z" fill="#4B5563"/>
<path fill-rule="evenodd" clip-rule="evenodd" d="M8.44534 6.12012C8.12011 6.12012 7.85645 6.38378 7.85645 6.70902V10.2424C7.85645 10.5676 8.12011 10.8313 8.44534 10.8313C8.77058 10.8313 9.03424 10.5676 9.03424 10.2424V6.70902C9.03424 6.38378 8.77058 6.12012 8.44534 6.12012Z" fill="#4B5563"/>
</g>
</svg>
