<svg width="25" height="25" viewBox="0 0 25 25" fill="none" xmlns="http://www.w3.org/2000/svg">
<path d="M15.9163 10.1176C15.6518 10.1355 15.4519 10.3644 15.4698 10.6289C15.4877 10.8934 15.7166 11.0933 15.9811 11.0754L15.9163 10.1176ZM22.4496 12.2118L22.1102 12.5513L22.1102 12.5513L22.4496 12.2118ZM15.8699 13.0787L16.0623 12.6389H16.0623L15.8699 13.0787ZM9.80242 17.7277L10.2318 17.5131H10.2317L9.80242 17.7277ZM12.2058 13.4333L11.7443 13.5651V13.5651L12.2058 13.4333ZM11.8512 13.1574L12.0461 13.5961H12.0462L11.8512 13.1574ZM6.57166 15.3638L6.43972 15.8253L6.43978 15.8254L6.57166 15.3638ZM5.74427 14.7334L6.20736 14.6072L6.20735 14.6071L5.74427 14.7334ZM15.4365 9.41451L15.0072 9.62919V9.62925L15.4365 9.41451ZM16.7706 9.91713C16.9177 10.1378 17.2157 10.1974 17.4363 10.0503C17.6569 9.90333 17.7165 9.60531 17.5695 9.38469L16.7706 9.91713ZM15.9811 11.0754C16.9739 11.0082 18.1655 11.0232 19.2881 11.2392C20.4168 11.4564 21.4262 11.8673 22.1102 12.5513L22.789 11.8725C21.9141 10.9976 20.6919 10.5318 19.4694 10.2965C18.2408 10.0601 16.9614 10.0469 15.9163 10.1176L15.9811 11.0754ZM22.1102 12.5513C22.2192 12.6603 22.2428 12.7927 22.1946 12.9387C22.1415 13.0994 22.0086 13.2405 21.8522 13.2974L22.1802 14.1996C22.6272 14.037 22.9659 13.6648 23.1062 13.2395C23.2514 12.7996 23.1899 12.2734 22.789 11.8725L22.1102 12.5513ZM21.8522 13.2974C21.6234 13.3806 21.2836 13.3989 20.8354 13.3391C20.3961 13.2805 19.9 13.1538 19.3865 12.9929C18.8746 12.8324 18.3593 12.6423 17.8813 12.4617C17.4104 12.2836 16.9633 12.1098 16.6127 11.9929L16.3091 12.9036C16.6359 13.0126 17.054 13.1752 17.5418 13.3596C18.0226 13.5414 18.5595 13.7397 19.0993 13.9089C19.6373 14.0776 20.1921 14.2218 20.7086 14.2907C21.2162 14.3583 21.7374 14.3606 22.1802 14.1996L21.8522 13.2974ZM16.6127 11.9929C16.5725 11.9795 16.2689 11.862 16.0113 11.7917C15.8775 11.7551 15.7158 11.7189 15.5622 11.7116C15.4854 11.708 15.3884 11.7102 15.2883 11.7355C15.1879 11.7608 15.0499 11.8184 14.9435 11.9514L15.6931 12.5511C15.6261 12.635 15.548 12.66 15.523 12.6663C15.4983 12.6726 15.4922 12.6693 15.5166 12.6705C15.5655 12.6728 15.6477 12.6876 15.7586 12.7178C15.9905 12.7811 16.1795 12.8604 16.3091 12.9036L16.6127 11.9929ZM14.9435 11.9514C14.7828 12.1523 14.7308 12.3918 14.785 12.624C14.8328 12.8284 14.9528 12.9855 15.0536 13.0907C15.2555 13.3014 15.5247 13.4516 15.6776 13.5185L16.0623 12.6389C16.0284 12.6241 15.9696 12.594 15.9055 12.5525C15.8406 12.5105 15.7848 12.4662 15.7466 12.4263C15.7037 12.3816 15.7123 12.3732 15.7199 12.4056C15.7248 12.4266 15.727 12.4574 15.7191 12.4917C15.7113 12.5256 15.6975 12.5457 15.6931 12.5511L14.9435 11.9514ZM15.6776 13.5185C15.8784 13.6064 16.1128 13.6896 16.2731 13.7535C16.4515 13.8248 16.6044 13.8957 16.7463 13.9902L17.2788 13.1915C17.0562 13.0431 16.8329 12.9433 16.6288 12.8619C16.4064 12.7731 16.2517 12.7218 16.0623 12.6389L15.6776 13.5185ZM16.7462 13.9902C17.0642 14.2022 17.891 14.9465 18.336 15.6152C18.4443 15.7781 18.5183 15.9195 18.5585 16.0335C18.5782 16.0894 18.5873 16.1316 18.5904 16.1613C18.5936 16.1906 18.5904 16.2016 18.5909 16.1999C18.5972 16.1754 18.617 16.1756 18.5759 16.1956C18.516 16.2246 18.3795 16.2628 18.1157 16.2628V17.2228C18.4503 17.2228 18.7511 17.1777 18.9953 17.0591C19.2581 16.9314 19.4489 16.7196 19.521 16.4377C19.5868 16.1802 19.538 15.9245 19.4639 15.7143C19.3879 15.4988 19.2687 15.2841 19.1352 15.0835C18.6126 14.2979 17.6909 13.4662 17.2788 13.1915L16.7462 13.9902ZM18.1157 16.2628C17.5564 16.2628 17.179 16.1145 16.8947 15.9061C16.5998 15.6899 16.3736 15.3863 16.1562 15.0222C16.047 14.8391 15.9479 14.6549 15.8393 14.4589C15.7338 14.2685 15.6207 14.0695 15.4953 13.8841C15.2457 13.515 14.9129 13.1468 14.4063 12.9779L14.1027 13.8887C14.3167 13.96 14.4996 14.1255 14.7002 14.4219C14.7998 14.5694 14.8955 14.7361 14.9996 14.9241C15.1007 15.1067 15.2122 15.3135 15.332 15.5142C15.5727 15.9174 15.878 16.3511 16.3272 16.6804C16.7871 17.0175 17.3664 17.2228 18.1157 17.2228V16.2628ZM14.4063 12.9779C14.2268 12.9181 14.0206 12.929 13.8407 13.0509C13.691 13.1523 13.6109 13.2972 13.5668 13.3956C13.4789 13.5918 13.4269 13.8575 13.3833 14.0918C13.2868 14.6103 13.1922 15.2127 12.9491 15.7599L13.8264 16.1498C14.126 15.4755 14.2388 14.7419 14.3271 14.2674C14.3759 14.0051 14.4107 13.86 14.4428 13.7884C14.4587 13.7528 14.4471 13.7996 14.379 13.8457C14.2808 13.9123 14.1693 13.9109 14.1027 13.8887L14.4063 12.9779ZM12.9491 15.7599C12.8565 15.9684 12.6491 16.2172 12.3408 16.4709C12.0392 16.719 11.6735 16.9451 11.3111 17.1176C10.9442 17.2923 10.6084 17.3988 10.3673 17.4295C10.2451 17.445 10.1781 17.4369 10.1535 17.4304C10.1364 17.4259 10.1946 17.4389 10.2318 17.5131L9.37306 17.9424C9.49408 18.1845 9.71032 18.3061 9.90754 18.3584C10.0974 18.4087 10.3011 18.4056 10.4884 18.3818C10.8662 18.3338 11.304 18.1842 11.7237 17.9844C12.1479 17.7825 12.5816 17.5159 12.9507 17.2122C13.3131 16.914 13.6476 16.5521 13.8264 16.1498L12.9491 15.7599ZM10.2317 17.5131C10.1673 17.3842 10.1652 17.1942 10.3511 16.863C10.5359 16.5338 10.8475 16.1744 11.2106 15.7853C11.5553 15.416 11.9566 15.0102 12.2399 14.6411C12.3836 14.4539 12.5176 14.2507 12.6036 14.0404C12.6898 13.8297 12.7443 13.571 12.6673 13.3014L11.7443 13.5651C11.741 13.5539 11.7545 13.5806 11.7151 13.6769C11.6756 13.7736 11.5992 13.8991 11.4784 14.0566C11.2324 14.3771 10.8869 14.7252 10.5088 15.1303C10.1492 15.5156 9.76204 15.9511 9.51388 16.3931C9.2668 16.8334 9.09736 17.3912 9.37306 17.9424L10.2317 17.5131ZM12.6674 13.3015C12.6285 13.1653 12.5409 13.005 12.4169 12.8815C12.2981 12.7632 12.0103 12.5615 11.6562 12.7188L12.0462 13.5961C11.9687 13.6305 11.885 13.6289 11.8201 13.6072C11.7665 13.5893 11.7411 13.5634 11.7397 13.562C11.7363 13.5585 11.7394 13.5611 11.7445 13.5699C11.7502 13.5797 11.7485 13.58 11.7443 13.5651L12.6674 13.3015ZM11.6562 12.7188C11.1888 12.9266 10.7521 13.2216 10.3449 13.5152C9.92434 13.8183 9.5461 14.1113 9.14218 14.37C8.35186 14.8764 7.60036 15.1586 6.70354 14.9023L6.43978 15.8254C7.72648 16.193 8.77594 15.7448 9.66004 15.1784C10.0934 14.9008 10.5207 14.5718 10.9062 14.2939C11.3051 14.0064 11.6747 13.7612 12.0461 13.5961L11.6562 12.7188ZM6.7036 14.9024C6.54838 14.858 6.42214 14.8096 6.33112 14.7504C6.24725 14.6958 6.21895 14.6496 6.20736 14.6072L5.28117 14.8597C5.37165 15.1916 5.58797 15.4122 5.80775 15.5552C6.02035 15.6934 6.25684 15.7731 6.43972 15.8253L6.7036 14.9024ZM6.20735 14.6071C6.10409 14.2285 6.116 13.958 6.17725 13.761C6.23754 13.5671 6.35866 13.4022 6.54994 13.2548C6.9571 12.941 7.62382 12.7488 8.43448 12.609C8.82982 12.5408 9.23626 12.4883 9.6382 12.4353C10.0347 12.383 10.4306 12.3298 10.7828 12.2611C11.1296 12.1935 11.4713 12.1043 11.7472 11.9656C12.0214 11.8278 12.313 11.5977 12.3986 11.2128L11.4614 11.0046C11.466 10.9836 11.4735 11.0288 11.316 11.1079C11.1603 11.1862 10.9229 11.2557 10.599 11.3189C10.2806 11.381 9.91408 11.4306 9.51268 11.4836C9.11668 11.5358 8.68942 11.5908 8.27128 11.663C7.45492 11.8038 6.57538 12.0231 5.96397 12.4943C5.64599 12.7394 5.38979 13.0603 5.26055 13.4759C5.13227 13.8885 5.14246 14.3511 5.28117 14.8597L6.20735 14.6071ZM12.3986 11.2128C12.4757 10.8654 12.4069 10.5416 12.1981 10.2798C12.0086 10.0422 11.7362 9.89685 11.4787 9.80019C10.9671 9.60819 10.2852 9.52881 9.70618 9.46419C9.07696 9.39393 8.58202 9.34089 8.29714 9.23481C8.14444 9.17799 8.1964 9.15627 8.23114 9.24501C8.27872 9.36669 8.19136 9.40683 8.2945 9.27009L7.528 8.69211C7.35628 8.91981 7.20046 9.24555 7.33714 9.59487C7.46092 9.91113 7.75948 10.059 7.96216 10.1344C8.38792 10.293 9.03862 10.3556 9.59968 10.4183C10.2108 10.4865 10.7639 10.5573 11.1414 10.699C11.3285 10.7692 11.4143 10.8366 11.4476 10.8785C11.4617 10.8962 11.4806 10.9184 11.4614 11.0046L12.3986 11.2128ZM8.2945 9.27009C8.4925 9.00747 8.71552 8.89269 8.96542 8.85165C9.23536 8.80731 9.55984 8.84619 9.94288 8.94675C10.3276 9.04779 10.7151 9.19437 11.1303 9.33891C11.5255 9.47655 11.9552 9.61575 12.355 9.65577L12.4505 8.70051C12.1778 8.67327 11.8472 8.57199 11.4459 8.43231C11.0645 8.29947 10.6194 8.13189 10.1867 8.01825C9.75244 7.90419 9.2749 7.82793 8.80978 7.90431C8.32468 7.98399 7.87954 8.22585 7.528 8.69211L8.2945 9.27009ZM12.355 9.65577C12.5004 9.67029 12.6334 9.62925 12.7083 9.60297C12.798 9.57147 12.8927 9.52791 12.9852 9.48105C13.1709 9.38709 13.3942 9.25593 13.6317 9.11253C14.1177 8.81913 14.6876 8.45997 15.2649 8.14947C15.8505 7.83447 16.3849 7.60299 16.7899 7.53777C16.9895 7.50567 17.1117 7.52199 17.1798 7.54893C17.2286 7.56825 17.2752 7.60107 17.3154 7.70163L18.2067 7.34505C18.0749 7.01535 17.8428 6.77901 17.5334 6.65643C17.2432 6.54147 16.9277 6.54321 16.6373 6.59001C16.062 6.68265 15.4067 6.98313 14.8101 7.30407C14.2051 7.62951 13.6001 8.01027 13.1356 8.29071C12.8978 8.43423 12.7019 8.54847 12.5516 8.62455C12.4762 8.66277 12.4236 8.68545 12.3903 8.69715C12.3422 8.71401 12.3763 8.69307 12.4505 8.70051L12.355 9.65577ZM17.3154 7.70163C17.2928 7.64511 17.3089 7.58697 17.3184 7.56981C17.3192 7.56843 17.3135 7.57875 17.2929 7.59981C17.2727 7.62057 17.243 7.64661 17.2013 7.67751C17.0218 7.81071 16.7408 7.94847 16.404 8.10387C16.0946 8.24667 15.726 8.40927 15.4635 8.57517C15.335 8.65629 15.1812 8.76843 15.0743 8.91819C14.9503 9.09207 14.87 9.35493 15.0072 9.62919L15.8658 9.19989C15.9298 9.32781 15.877 9.44607 15.8558 9.47577C15.8517 9.48147 15.8762 9.44991 15.9761 9.38679C16.1703 9.26409 16.4593 9.13563 16.8063 8.97555C17.1259 8.82807 17.5003 8.65107 17.7733 8.44857C17.9096 8.34741 18.0598 8.21223 18.1577 8.03577C18.2669 7.83915 18.3068 7.59507 18.2067 7.34505L17.3154 7.70163ZM15.0072 9.62925C15.1004 9.81549 15.2586 9.91041 15.3873 9.95583C15.5088 9.99879 15.6321 10.0088 15.7272 10.0107C15.9128 10.0143 16.1388 9.98547 16.3044 9.96807C16.4955 9.94797 16.6401 9.93813 16.7472 9.94917C16.8629 9.96111 16.8159 9.98511 16.7706 9.91713L17.5695 9.38469C17.3742 9.09177 17.0567 9.01599 16.8457 8.99421C16.626 8.97153 16.3876 8.99403 16.204 9.01335C15.9947 9.03531 15.8541 9.05295 15.7458 9.05085C15.6939 9.04983 15.6882 9.04401 15.7071 9.05067C15.7331 9.05985 15.8149 9.09807 15.8658 9.19983L15.0072 9.62925Z" fill="#DDDDDD" fill-opacity="0.9"/>
<path d="M6.97425 11.9067C7.19703 11.763 7.26111 11.4659 7.11741 11.2432C6.97371 11.0204 6.67659 10.9563 6.4538 11.1001L6.97425 11.9067ZM7.33862 10.7767C7.59015 10.6929 7.72605 10.421 7.64223 10.1696C7.55835 9.91807 7.28655 9.78217 7.03503 9.86605L7.33862 10.7767ZM6.4538 11.1001C5.97057 11.4118 5.14107 11.814 4.28155 12.0905C3.85367 12.2282 3.43049 12.3307 3.04864 12.3775C2.66102 12.4251 2.34839 12.4111 2.12403 12.3437L1.84818 13.2633C2.25104 13.3841 2.71236 13.386 3.16553 13.3304C3.62446 13.2741 4.10891 13.1545 4.57557 13.0043C5.50513 12.7053 6.41241 12.2692 6.97425 11.9067L6.4538 11.1001ZM2.12403 12.3437C2.09779 12.3359 2.1761 12.3551 2.21558 12.4582C2.24641 12.5388 2.21516 12.5766 2.23751 12.5185C2.28327 12.3996 2.43206 12.1914 2.69308 11.9298C3.20534 11.4164 3.9242 10.9162 4.30417 10.7689L3.95714 9.87385C3.40711 10.0871 2.57857 10.6855 2.01352 11.2517C1.73586 11.53 1.46351 11.8569 1.34156 12.1738C1.28006 12.3335 1.22831 12.5644 1.319 12.8014C1.41835 13.061 1.63686 13.1999 1.84818 13.2633L2.12403 12.3437ZM4.30417 10.7689C4.61847 10.6471 4.94877 10.703 5.48649 10.8027C5.98585 10.8952 6.63045 11.0128 7.33862 10.7767L7.03503 9.86605C6.58707 10.0154 6.16855 9.95275 5.66139 9.85873C5.19256 9.77191 4.57287 9.63511 3.95714 9.87385L4.30417 10.7689Z" fill="#DDDDDD" fill-opacity="0.9"/>
</svg>
