<svg width="15" height="16" viewBox="0 0 15 16" fill="none" xmlns="http://www.w3.org/2000/svg">
<path d="M10.999 0.687429C12.0778 0.619999 13.1416 0.995181 13.9433 1.72942C14.6774 2.531 15.052 3.59438 14.9921 4.68059V11.6786C15.0595 12.765 14.6779 13.8291 13.9511 14.6308C13.1494 15.365 12.0778 15.7392 10.999 15.6718H4.00091C2.91478 15.7391 1.85129 15.3648 1.04973 14.6308C0.315488 13.8291 -0.0596887 12.765 0.00774208 11.6786V4.68059C-0.0595938 3.59434 0.315571 2.53101 1.04973 1.72942C1.85132 0.995273 2.91465 0.620099 4.00091 0.687429H10.999ZM10.8046 4.11126C10.3401 3.64677 9.59044 3.64682 9.12591 4.11126L8.62395 4.62102C8.54908 4.69595 8.54905 4.82346 8.62395 4.89837C8.63708 4.91141 9.81547 6.08243 9.83782 6.11223C9.92011 6.20211 9.97259 6.32222 9.97259 6.45696C9.97236 6.72637 9.75534 6.9509 9.47845 6.9511C9.35111 6.9511 9.23078 6.89871 9.14837 6.81634L7.89739 5.5722C7.83755 5.51239 7.73276 5.51257 7.67278 5.5722L4.09856 9.14641C3.85141 9.39361 3.70863 9.72309 3.7011 10.0751L3.65618 11.8505C3.65618 11.9478 3.68655 12.038 3.75384 12.1054C3.82127 12.1728 3.91132 12.2109 4.00872 12.2109H5.76946C6.12906 12.2108 6.47405 12.0681 6.73626 11.8134L11.7782 6.75579C12.235 6.29133 12.235 5.54284 11.7782 5.08587L10.8046 4.11126Z" fill="#008080"/>
</svg>
