<svg width="15" height="9" viewBox="0 0 15 9" fill="none" xmlns="http://www.w3.org/2000/svg">
<path d="M1.79582 5.23803C1.7324 5.41116 1.60398 5.55273 1.43784 5.63268C1.27169 5.71263 1.08093 5.72464 0.906065 5.66617C0.731205 5.6077 0.586035 5.48335 0.5014 5.31955C0.416765 5.15574 0.399336 4.96539 0.452816 4.78894C0.478761 4.71121 0.508067 4.63322 0.54065 4.55803C0.597316 4.42344 0.6809 4.23786 0.79565 4.01828C1.0294 3.57911 1.39348 2.99403 1.9304 2.40894C3.01415 1.22603 4.78923 0.0544434 7.49932 0.0544434C10.2094 0.0544434 11.9845 1.22603 13.0682 2.40894C13.6463 3.04391 14.1154 3.77006 14.4566 4.55803L14.5217 4.71811C14.526 4.72944 14.5401 4.80311 14.5543 4.87394L14.5827 5.01278C14.5827 5.01278 14.7016 5.48453 14.0981 5.68428C13.9204 5.74363 13.7264 5.73014 13.5586 5.64677C13.3908 5.5634 13.2629 5.41693 13.2028 5.23944V5.23519L13.1943 5.21253L13.1504 5.10203C12.8721 4.46559 12.4917 3.87891 12.0241 3.36519C11.16 2.42594 9.74757 1.47111 7.49932 1.47111C5.25107 1.47111 3.83865 2.42453 2.97448 3.36661C2.50708 3.8799 2.12665 4.46609 1.84823 5.10203L1.80573 5.21253L1.79582 5.23803ZM7.49932 2.88778C6.74787 2.88778 6.0272 3.18629 5.49585 3.71764C4.96449 4.24899 4.66598 4.96966 4.66598 5.72111C4.66598 6.47256 4.96449 7.19323 5.49585 7.72458C6.0272 8.25593 6.74787 8.55444 7.49932 8.55444C8.25076 8.55444 8.97143 8.25593 9.50279 7.72458C10.0341 7.19323 10.3327 6.47256 10.3327 5.72111C10.3327 4.96966 10.0341 4.24899 9.50279 3.71764C8.97143 3.18629 8.25076 2.88778 7.49932 2.88778ZM6.08265 5.72111C6.08265 5.34539 6.23191 4.98505 6.49758 4.71938C6.76326 4.4537 7.12359 4.30444 7.49932 4.30444C7.87504 4.30444 8.23537 4.4537 8.50105 4.71938C8.76673 4.98505 8.91598 5.34539 8.91598 5.72111C8.91598 6.09683 8.76673 6.45717 8.50105 6.72284C8.23537 6.98852 7.87504 7.13778 7.49932 7.13778C7.12359 7.13778 6.76326 6.98852 6.49758 6.72284C6.23191 6.45717 6.08265 6.09683 6.08265 5.72111Z" fill="#4B5563"/>
</svg>
