<svg width="25" height="25" viewBox="0 0 25 25" fill="none" xmlns="http://www.w3.org/2000/svg">
<g clip-path="url(#clip0_495_1226)">
<path d="M12.2499 6.19869L3.14451 14.2299C3.07701 14.2908 2.99076 14.3191 2.91659 14.3695V22.0754C2.91659 22.4437 3.21493 22.742 3.58326 22.742H9.80118L8.24993 19.7083L12.5878 17.0416L10.0812 12.0741L16.2499 17.7733L11.912 20.4399L13.5753 22.742H20.9166C21.2849 22.742 21.5833 22.4437 21.5833 22.0754V14.3712C21.5124 14.3229 21.4283 14.2954 21.3641 14.2379L12.2499 6.19869ZM24.0287 11.2537L21.5833 9.09411V3.40869C21.5833 3.04036 21.2849 2.74203 20.9166 2.74203H18.2499C17.8816 2.74203 17.5833 3.04036 17.5833 3.40869V5.56244L13.3645 1.83828C13.0466 1.55244 12.6483 1.40911 12.2499 1.40869C11.8516 1.40828 11.4541 1.55078 11.1374 1.83661L0.471177 11.2537C0.197427 11.4999 0.17451 11.9212 0.42076 12.1954L1.31243 13.1879C1.55826 13.4616 1.97993 13.4845 2.25409 13.2383L11.8091 4.80994C12.0612 4.58786 12.4391 4.58786 12.6912 4.80994L22.2462 13.2379C22.5199 13.4837 22.9416 13.4612 23.1878 13.1874L24.0795 12.1949C24.3253 11.9212 24.3028 11.4995 24.0287 11.2537Z" fill="#008080"/>
</g>
<defs>
<clipPath id="clip0_495_1226">
<rect width="24" height="24" fill="white" transform="translate(0.25 0.0751953)"/>
</clipPath>
</defs>
</svg>
