<svg width="18" height="17" viewBox="0 0 18 17" fill="none" xmlns="http://www.w3.org/2000/svg">
<path d="M9.25008 14.3504L5.10008 16.8504C4.91675 16.9671 4.72508 17.0171 4.52508 17.0004C4.32508 16.9837 4.15008 16.9171 4.00008 16.8004C3.85008 16.6837 3.73342 16.5381 3.65008 16.3634C3.56675 16.1887 3.55008 15.9927 3.60008 15.7754L4.70008 11.0504L1.02508 7.87539C0.858418 7.72539 0.754418 7.55439 0.713085 7.36239C0.671751 7.17039 0.684085 6.98306 0.750085 6.80039C0.816085 6.61772 0.916085 6.46772 1.05008 6.35039C1.18408 6.23306 1.36742 6.15806 1.60008 6.12539L6.45008 5.70039L8.32508 1.25039C8.40842 1.05039 8.53775 0.90039 8.71309 0.80039C8.88842 0.70039 9.06742 0.650391 9.25008 0.650391C9.43275 0.650391 9.61175 0.70039 9.78708 0.80039C9.96242 0.90039 10.0918 1.05039 10.1751 1.25039L12.0501 5.70039L16.9001 6.12539C17.1334 6.15872 17.3168 6.23372 17.4501 6.35039C17.5834 6.46706 17.6834 6.61706 17.7501 6.80039C17.8168 6.98372 17.8294 7.17139 17.7881 7.36339C17.7468 7.55539 17.6424 7.72606 17.4751 7.87539L13.8001 11.0504L14.9001 15.7754C14.9501 15.9921 14.9334 16.1881 14.8501 16.3634C14.7668 16.5387 14.6501 16.6844 14.5001 16.8004C14.3501 16.9164 14.1751 16.9831 13.9751 17.0004C13.7751 17.0177 13.5834 16.9677 13.4001 16.8504L9.25008 14.3504Z" fill="#008080"/>
</svg>
