<svg width="24" height="22" viewBox="0 0 24 22" fill="none" xmlns="http://www.w3.org/2000/svg">
<path d="M4.51729 10.2385L11.8884 1.77441C7.7737 4.8074 -0.194703 10.9369 0.849218 11.1908C1.89314 11.4447 3.72957 10.6617 4.51729 10.2385Z" fill="#008080"/>
<path d="M6.20091 9.05885C6.1577 9.12831 6.07767 9.199 6.01041 9.24712C5.98938 9.26224 5.97778 9.23521 5.96236 9.24486C5.93223 9.26377 5.9212 9.29622 5.88985 9.31353C5.87936 9.31918 5.85682 9.28114 5.84654 9.2877C5.79048 9.32383 5.75874 9.37655 5.70939 9.41963C5.46625 9.63178 5.248 9.8584 5.02107 10.0898C4.94208 10.1689 4.85061 10.2272 4.75483 10.3464C4.74454 10.359 4.77692 10.379 4.77676 10.3834C4.77169 10.4518 4.7333 10.3858 4.70305 10.399C4.58445 10.4522 4.45397 10.5169 4.37847 10.5691C4.3443 10.5929 4.41406 10.6401 4.35831 10.6217C4.35446 10.6205 4.3466 10.5808 4.33452 10.5821C4.30715 10.585 4.26536 10.613 4.24612 10.6187C4.20868 10.6298 4.20192 10.6334 4.1693 10.6482C4.12419 10.6683 4.06185 10.6756 4.01689 10.7056C4.00725 10.7121 4.03764 10.7424 4.02366 10.7562C4.00938 10.7701 3.96438 10.7865 3.94556 10.7844C3.92681 10.7823 3.92047 10.7507 3.91492 10.7452C3.86863 10.699 3.85158 10.7984 3.84575 10.8032C3.73875 10.888 3.61671 10.8862 3.50274 10.9312C3.41587 10.9657 3.32829 11.0158 3.24392 11.0442C3.14312 11.0779 3.05148 11.0867 2.95477 11.1226C2.94455 11.1263 2.97144 11.1671 2.95894 11.1718C2.82607 11.2212 2.68875 11.2575 2.5438 11.2642C2.52927 11.2648 2.53596 11.2201 2.52085 11.2183C2.42825 11.2085 2.27934 11.161 2.26918 11.3481C2.21015 11.3545 2.13748 11.3625 2.079 11.337C2.04096 11.3206 2.06486 11.27 2.02762 11.2967C2.01919 11.3027 2.03856 11.3392 2.02527 11.3453C1.9694 11.3705 1.90248 11.3688 1.8471 11.3976C1.83583 11.4036 1.84423 11.4382 1.84176 11.445C1.81988 11.5004 1.75981 11.4223 1.74891 11.4174C1.66413 11.3814 1.6088 11.4052 1.53345 11.4095C1.51609 11.4105 1.53998 11.4565 1.52321 11.4591C1.43686 11.4718 1.34249 11.4704 1.25621 11.4476C1.23712 11.4424 1.25559 11.4023 1.24664 11.3977C1.207 11.3779 1.19465 11.454 1.15616 11.4353C1.14811 11.4314 1.15485 11.3971 1.15359 11.3932C1.13463 11.3322 1.1079 11.415 1.10121 11.4163C1.01886 11.4348 0.979962 11.3405 0.907042 11.34C0.897957 11.3399 0.909047 11.3867 0.883775 11.3836C0.689796 11.4809 0.541311 10.8247 0.714246 10.7876C0.732486 10.7681 0.750798 10.8014 0.755141 10.802C0.82253 10.8136 0.760783 10.7529 0.762781 10.7441C0.778364 10.6788 0.872707 10.6716 0.818235 10.5764C1.01301 10.3833 1.15207 10.1564 1.39768 10.0371C1.40078 10.0355 1.42628 10.0693 1.43233 10.0659C1.50488 10.0264 1.44694 9.99239 1.42817 9.89887C1.42347 9.87538 1.51975 9.91553 1.52724 9.91807C1.55475 9.92746 1.58872 9.98144 1.59535 9.98198C1.64882 9.9849 1.50033 9.84178 1.53436 9.80861C1.53567 9.80782 1.55763 9.83937 1.56311 9.83931C1.58022 9.8392 1.57857 9.81981 1.59643 9.82071C1.63759 9.82296 1.71405 9.88834 1.70496 9.81631C1.70358 9.80716 1.6172 9.72795 1.65189 9.70247C1.66547 9.69266 1.71854 9.63955 1.73938 9.63035C1.76008 9.62123 1.77527 9.65869 1.7775 9.65883C1.8535 9.65571 1.85181 9.68567 1.92334 9.7197C1.99421 9.754 1.86857 9.63157 1.86361 9.60942C1.85862 9.58738 1.91685 9.58931 1.93407 9.59283C1.95126 9.59637 1.95825 9.62255 1.97038 9.62232C2.05043 9.62016 1.93064 9.54054 1.92641 9.50655C1.91657 9.42593 2.03185 9.49648 2.07144 9.47747C2.08223 9.47225 2.05532 9.45675 2.06101 9.44779C2.08387 9.41254 2.12934 9.42594 2.13917 9.36677C2.14076 9.35713 2.11678 9.27338 2.17285 9.3C2.18092 9.30385 2.19547 9.33436 2.2131 9.32821C2.23944 9.31907 2.27884 9.29311 2.29253 9.26627C2.30263 9.24644 2.24925 9.22264 2.27983 9.21748C2.29345 9.21521 2.2982 9.25288 2.32205 9.24668C2.34591 9.24046 2.38631 9.20252 2.40093 9.18806C2.41567 9.17345 2.38028 9.15076 2.37972 9.14761C2.37689 9.12921 2.39389 9.08797 2.3966 9.08563C2.52885 8.96162 2.69768 8.90452 2.81418 8.77363C2.82343 8.76334 2.78857 8.73707 2.78969 8.73517C2.81361 8.69079 2.85981 8.80092 2.90956 8.80811C2.84929 8.7457 2.87424 8.74485 2.89335 8.7158C2.90252 8.70174 2.87396 8.68208 2.87283 8.67852C2.85738 8.62456 2.91257 8.66387 2.92456 8.67131C2.9686 8.69873 2.94323 8.64336 2.97285 8.66155C3.00229 8.67956 3.0156 8.73235 3.03908 8.71134C3.02558 8.68205 2.95496 8.63589 2.9646 8.61029C3.00128 8.5132 3.17123 8.45173 3.23134 8.4094C3.29146 8.36701 3.30586 8.34734 3.34515 8.32878C3.41641 8.29508 3.35629 8.26718 3.37492 8.21544C3.39378 8.16356 3.47133 8.29168 3.49707 8.31157C3.52271 8.33153 3.50727 8.30175 3.52496 8.30971C3.54262 8.31767 3.54267 8.3459 3.56197 8.33823C3.58126 8.33055 3.5863 8.25244 3.57003 8.22269C3.53591 8.15935 3.46994 8.11818 3.52622 8.10488C3.52949 8.10415 3.54709 8.14015 3.55834 8.13585C3.64661 8.1009 3.72188 8.04044 3.80759 8.00354C3.8195 7.99845 3.83866 8.03881 3.8459 8.03622C3.92148 8.00934 3.85414 7.97046 3.83425 7.8816C3.89602 7.97052 3.95574 8.00669 4.00052 7.97039C4.02748 7.94858 3.99283 7.91611 3.98899 7.87618C3.98779 7.86418 4.02701 7.87371 4.01629 7.85382C3.9813 7.78877 3.91196 7.7409 3.978 7.7282C3.98097 7.72773 3.99986 7.76355 4.00829 7.7597C4.06291 7.73496 4.02005 7.67211 4.06285 7.62495C4.0966 7.5878 4.19321 7.56817 4.24115 7.53855C4.31708 7.63312 4.34028 7.57818 4.304 7.49981C4.33431 7.4794 4.36193 7.45069 4.39652 7.43735C4.4083 7.43281 4.42439 7.465 4.42796 7.46698C4.48354 7.49842 4.44429 7.42544 4.44832 7.41804C4.49426 7.3405 4.58691 7.34455 4.6122 7.24633C4.61306 7.24288 4.56358 7.17432 4.62049 7.20772C4.62424 7.21019 4.62608 7.2574 4.65947 7.23506C4.69315 7.21243 4.77944 7.20724 4.80711 7.14672C4.81277 7.1325 4.81349 7.05392 4.86413 7.08867C4.8708 7.09349 4.87795 7.11688 4.88867 7.12661C4.92233 7.15793 4.89495 7.07675 4.94235 7.13496C4.99036 7.19309 5.03902 7.23095 5.07142 7.16884C5.07236 7.16704 5.06495 7.09869 5.08182 7.09526C5.10819 7.08988 5.14839 7.09553 5.1754 7.09084C5.18837 7.08854 5.17364 7.04845 5.17582 7.04733C5.26566 7.01061 5.3376 7.04642 5.43046 7.07492C5.44642 7.0799 5.51066 7.03342 5.53355 7.08653C5.55635 7.14448 5.46607 7.33059 5.54382 7.30588C5.57121 7.29498 5.72526 7.0765 5.71579 7.22653C5.8359 7.25767 5.8717 7.37985 5.97899 7.44082C5.98374 7.44348 6.0527 7.41395 6.05996 7.42596C6.07037 7.44351 6.04801 7.47151 6.05353 7.48425C6.07568 7.53807 6.12596 7.57222 6.1435 7.62744C6.14996 7.6482 6.1145 7.65382 6.12105 7.67774C6.12725 7.70136 6.17699 7.70419 6.16427 7.74372C6.15442 7.77398 6.06689 7.81721 6.06049 7.8475C6.15286 7.83397 6.15514 7.85635 6.18311 7.8957C6.18851 7.90339 6.22027 7.89218 6.2245 7.89579C6.24246 7.91094 6.21628 7.92751 6.2349 7.94233C6.23937 7.94597 6.27128 7.9455 6.27672 7.94862C6.32445 7.97607 6.25064 8.02096 6.23753 8.02669C6.18824 8.05118 6.2281 8.06747 6.20674 8.08679C6.1853 8.1052 6.16653 8.07116 6.15189 8.09315C6.12175 8.13746 6.11248 8.19681 6.09525 8.24243C6.08856 8.26069 6.13309 8.2622 6.13307 8.26515C6.12896 8.30969 6.07158 8.32746 6.13774 8.38584C5.92734 8.31643 6.14681 8.41822 6.07703 8.45273C6.07138 8.45538 5.97925 8.40752 5.97422 8.38563C5.96905 8.36399 6.00954 8.35707 5.99791 8.32651C5.9957 8.31852 5.91928 8.25172 5.91492 8.24668C5.8833 8.20342 6.02874 8.25598 6.03753 8.25706C6.13105 8.27028 6.04463 8.19743 6.03975 8.18765C6.01999 8.13719 6.04839 8.10657 6.03004 8.06756C6.018 8.04229 5.917 8.02998 5.9214 8.01551C5.93517 7.96941 6.0762 7.93808 5.94901 7.89742C5.92161 7.88933 5.81354 7.91467 5.89462 7.86786C5.89994 7.86566 5.97307 7.82189 5.91981 7.81723C5.91314 7.81678 5.88174 7.82457 5.87851 7.82285C5.85746 7.81138 5.87924 7.79385 5.86178 7.78037C5.84431 7.76703 5.81997 7.75505 5.82186 7.73258C5.82314 7.71934 5.86989 7.67803 5.87977 7.66511C5.9085 7.6282 5.83792 7.64562 5.8758 7.6091C5.91281 7.57082 5.99445 7.5524 6.00172 7.50209C5.93076 7.54717 5.85732 7.59255 5.78627 7.6384C5.75594 7.58784 5.73469 7.52381 5.68388 7.48696C5.67762 7.48258 5.65507 7.52246 5.64803 7.51905C5.61906 7.5052 5.61335 7.46244 5.57743 7.45695C5.54945 7.45287 5.50509 7.48503 5.47961 7.48825C5.50041 7.39297 5.44973 7.41071 5.4249 7.39684C5.41578 7.39183 5.42137 7.36678 5.41539 7.35715C5.39212 7.32173 5.39225 7.40808 5.38342 7.42025C5.34868 7.47345 5.36391 7.28105 5.31733 7.28482C5.31405 7.28487 5.28963 7.38792 5.28769 7.39455C5.26949 7.43728 5.2824 7.35901 5.26787 7.35244C5.24121 7.34074 5.21767 7.31905 5.19225 7.35476C5.18412 7.36548 5.18061 7.43181 5.15107 7.38887C5.14709 7.38327 5.13898 7.35033 5.13655 7.34897C5.09178 7.32782 5.12448 7.42983 5.1211 7.46948C5.11807 7.50904 5.06514 7.45221 5.05039 7.43579C5.01283 7.39289 5.05104 7.40961 5.04959 7.40446C5.03282 7.34185 5.01648 7.36105 4.99803 7.3642C4.94851 7.27207 4.925 7.29133 4.97884 7.36812C4.98465 7.37652 4.99259 7.36153 4.99803 7.3642C5.02984 7.46287 5.02182 7.4813 4.94269 7.41715C4.9051 7.38771 4.88861 7.33537 4.85641 7.37979C4.84255 7.39978 4.89269 7.4525 4.88863 7.47951C4.88087 7.5398 4.78445 7.53357 4.74891 7.57582C4.736 7.59129 4.77578 7.60966 4.76782 7.62127C4.74679 7.65219 4.70371 7.64921 4.68553 7.68358C4.68391 7.68673 4.71608 7.71366 4.7078 7.7211C4.64586 7.77786 4.57115 7.80489 4.50263 7.86016C4.46942 7.88697 4.42554 7.95246 4.38811 7.97737C4.32379 8.02038 4.21315 8.03404 4.17247 8.08664C4.14539 8.12115 4.17886 8.14695 4.18263 8.1803C4.19003 8.24486 4.07968 8.20976 4.06357 8.20353C4.06304 8.20331 4.08511 8.17235 4.0565 8.16861C4.01956 8.142 4.06376 8.20312 4.06357 8.20353C4.05306 8.19957 3.99085 8.23916 3.98481 8.25445C3.98153 8.26279 4.0099 8.28998 4.00772 8.29375C3.95495 8.38321 3.88509 8.45457 3.79814 8.50376C3.7963 8.50427 3.77021 8.46915 3.76625 8.47077C3.70957 8.49301 3.71533 8.55802 3.69956 8.61282C3.68375 8.66764 3.64843 8.68359 3.57875 8.64434C3.55809 8.67419 3.49657 8.6829 3.46103 8.6867C3.42539 8.69059 3.47735 8.75802 3.47646 8.76098C3.44949 8.85457 3.3834 8.84698 3.31378 8.89664C3.28075 8.91999 3.22879 8.9809 3.20254 9.01582C3.18205 9.04338 3.1528 9.04231 3.13721 9.07264C3.13508 9.07673 3.16313 9.10252 3.16309 9.10448C3.16602 9.16184 3.1183 9.08076 3.10196 9.07304C3.04266 9.04488 3.00929 9.03144 2.994 9.08218C2.99042 9.09386 3.05527 9.21407 3.04637 9.23216C3.03463 9.25551 3.01011 9.21352 2.99812 9.23934C2.99707 9.24152 3.01678 9.26342 3.00386 9.27298C2.94391 9.31786 2.87374 9.35665 2.81789 9.40993C2.81016 9.41715 2.85125 9.44321 2.84062 9.4542C2.7905 9.50588 2.73285 9.55483 2.66666 9.58468C2.65017 9.59201 2.63637 9.56045 2.62711 9.55569C2.5708 9.52718 2.60384 9.61232 2.60101 9.61705C2.53546 9.73116 2.41053 9.74015 2.34293 9.8523C2.33921 9.85864 2.36126 9.96286 2.29042 9.92145C2.28568 9.91872 2.21358 9.87598 2.23575 9.93039C2.23715 9.93378 2.27601 9.95413 2.25448 9.9684C2.23286 9.98277 2.22259 10.0302 2.16501 10.0219C2.14698 10.0192 2.07242 9.97927 2.09214 10.0486C2.09351 10.0534 2.15614 10.1931 2.07453 10.1332C2.06092 10.1235 1.99135 10.0441 1.99911 10.1115C2.00078 10.1244 2.02715 10.1317 2.02267 10.1563C2.01594 10.1942 1.96706 10.202 1.97336 10.2614C1.97436 10.272 2.0056 10.3415 1.95129 10.3186C1.94279 10.315 1.923 10.2851 1.91166 10.2907C1.85743 10.3174 1.83381 10.3739 1.77677 10.3967C1.75627 10.4051 1.72324 10.3576 1.69742 10.362C1.67158 10.3664 1.63149 10.3862 1.63518 10.4197C1.63891 10.4532 1.72003 10.4999 1.70332 10.5275C1.6267 10.6519 1.49551 10.7148 1.40266 10.8111C1.38932 10.8249 1.42461 10.8335 1.40583 10.8566C1.33709 10.9401 1.26058 11.0946 1.17862 11.1065C1.11011 11.119 1.09719 11.0511 1.06148 11.0726C1.04373 11.0852 1.14003 11.1306 1.14425 11.1283C1.18898 11.17 1.13184 10.8645 0.968587 10.8117C0.952787 10.8037 0.985247 10.7686 0.971738 10.7629C0.921865 10.7468 0.998605 10.7825 1.01894 10.7823C1.03207 10.7829 1.03595 10.7505 1.04643 10.7547C1.07142 10.7645 1.09145 10.7809 1.11257 10.8139C1.11466 10.8169 1.09364 10.8556 1.11337 10.8592C1.14471 10.8648 1.18775 10.8983 1.23185 10.8686C1.24493 10.8597 1.24741 10.7852 1.27269 10.8372C1.27803 10.848 1.26983 10.9377 1.30235 10.8605C1.30834 10.8477 1.35896 10.7429 1.38667 10.8092C1.39401 10.8267 1.41504 10.8993 1.43065 10.887C1.4327 10.8851 1.42221 10.8455 1.43506 10.8409C1.4795 10.8256 1.52859 10.8261 1.57434 10.809C1.58659 10.8043 1.56383 10.7649 1.58204 10.7593C1.63231 10.7437 1.69749 10.746 1.75075 10.7511C1.7702 10.7531 1.76241 10.789 1.76432 10.7925C1.79575 10.8493 1.79646 10.766 1.80295 10.7601C1.84423 10.7243 1.88539 10.7562 1.92624 10.738C1.9375 10.7331 1.92179 10.6963 1.92347 10.6924C1.94108 10.6543 1.93646 10.7268 1.95335 10.7314C2.00032 10.7445 2.04839 10.7312 2.09081 10.7165C2.10639 10.7111 2.0785 10.6709 2.09251 10.6665C2.17531 10.6398 2.26419 10.6219 2.35367 10.6236C2.37057 10.6239 2.36992 10.6603 2.37529 10.6671C2.41276 10.7148 2.42573 10.6321 2.43122 10.623C2.45663 10.5813 2.4785 10.6071 2.50741 10.5926C2.6479 10.5215 2.8367 10.4805 2.98049 10.4421C3.16765 10.392 3.32108 10.3676 3.48949 10.2881C3.50018 10.2831 3.47128 10.2448 3.48022 10.2399C3.59647 10.1791 3.72218 10.1436 3.8353 10.0766C3.84469 10.0712 3.8121 10.0377 3.82646 10.0276C3.85567 10.0067 3.89668 9.99007 3.93447 9.98763C3.9528 9.98639 3.94847 10.0304 3.96663 10.0284C4.0083 10.0242 4.0502 10.0073 4.08375 9.98286C4.09876 9.97196 4.05395 9.94385 4.07492 9.93287C4.23466 9.84702 4.19378 9.86553 4.35094 9.77739C4.36146 9.7714 4.43714 9.82402 4.43985 9.79416C4.42187 9.77608 4.39925 9.75651 4.37928 9.73806C4.52591 9.54739 4.70592 9.38905 4.86774 9.21071C4.87455 9.20319 4.82642 9.18454 4.83943 9.1698C4.91467 9.0845 4.97707 8.99237 5.08986 8.93632C5.101 8.93072 5.16152 8.99127 5.17412 8.95713C5.17629 8.95106 5.20134 8.90494 5.19606 8.88278C5.19514 8.87958 5.15893 8.86045 5.1689 8.84724C5.22735 8.77091 5.30024 8.70106 5.38151 8.64483C5.39469 8.6358 5.41589 8.6761 5.42555 8.66991C5.49383 8.62582 5.52529 8.54056 5.60337 8.50959C5.65574 8.48897 5.69894 8.55111 5.77084 8.57853C5.78099 8.58239 5.80253 8.56012 5.83527 8.58652C5.91766 8.65283 5.99509 8.74012 6.08407 8.80946C6.10322 8.82442 6.11072 8.77602 6.13883 8.83302C6.14067 8.83689 6.13561 8.87232 6.14576 8.89096C6.15274 8.90387 6.19107 8.92494 6.19745 8.94443C6.20381 8.9639 6.16921 8.94908 6.17336 8.9758C6.17772 9.00268 6.21941 9.02884 6.20091 9.05885ZM3.30153 8.70443C3.25434 8.69102 3.34843 8.80733 3.34751 8.76107C3.34735 8.7587 3.30389 8.70504 3.30153 8.70443ZM5.81246 7.44636C5.83667 7.37743 5.75577 7.43575 5.73587 7.48642C5.71408 7.53554 5.80423 7.46649 5.81246 7.44636ZM6.02548 7.68597C6.05923 7.63046 5.86324 7.71192 5.91527 7.72592C5.9182 7.72673 6.02344 7.68906 6.02548 7.68597ZM5.70551 8.68487C5.70726 8.68589 5.72332 8.67039 5.72218 8.6687C5.69414 8.62858 5.66205 8.65958 5.70551 8.68487ZM6.1292 8.0103C6.15873 7.99893 6.12614 7.96197 6.09025 7.97682C6.06157 7.98778 6.09273 8.02322 6.1292 8.0103ZM2.1216 9.53052C2.11977 9.52916 2.10681 9.53833 2.11556 9.5474C2.14376 9.57658 2.15217 9.55334 2.1216 9.53052ZM5.90913 8.55673C5.9677 8.49581 6.14954 8.53745 6.06816 8.61814C6.05379 8.63163 6.04791 8.55107 6.02048 8.56199C5.97231 8.5793 6.03973 8.67127 5.96373 8.66912C5.95074 8.66784 5.90614 8.5595 5.90904 8.55645C5.90907 8.55654 5.9091 8.55664 5.90913 8.55673ZM3.17299 8.57798C3.17129 8.57683 3.15348 8.58958 3.15436 8.59141C3.17622 8.63517 3.2121 8.60953 3.17299 8.57798ZM1.38446 10.1086C1.38052 10.1066 1.34196 10.1404 1.34368 10.1442C1.38083 10.2173 1.45835 10.1498 1.38446 10.1086ZM4.24388 7.5405C4.23222 7.48828 4.25101 7.46561 4.30387 7.49983C4.28329 7.51258 4.26433 7.52752 4.24388 7.5405Z" fill="#008080"/>
<path d="M11.2178 21.595C11.6173 19.9727 13.1711 16.4812 16.1904 15.4937C18.9684 14.5852 20.9819 12.9123 22.0903 11.755C22.727 10.9715 23.0981 10.5264 22.927 10.7679C22.7688 10.9913 22.4877 11.34 22.0903 11.755C20.9414 13.1686 18.9277 15.6839 17.6722 17.2571L11.2178 21.595Z" fill="#008080"/>
<path d="M11.8882 18.7039C11.9641 18.546 12.0962 18.3574 12.2075 18.2218C12.2423 18.1794 12.2493 18.217 12.2744 18.1886C12.3234 18.1329 12.3509 18.0689 12.4022 18.016C12.4193 17.9986 12.4369 18.047 12.454 18.0283C12.5476 17.9257 12.6148 17.8141 12.7061 17.7079C13.1546 17.1867 13.6285 16.6998 14.1853 16.2782C14.369 16.1386 14.6175 16.0071 14.8095 15.8671C14.832 15.8507 14.7984 15.8282 14.8013 15.8228C14.8476 15.7393 14.8633 15.8171 14.9146 15.7976C15.1184 15.72 15.3289 15.6125 15.5104 15.5136C15.5878 15.4716 15.4771 15.4412 15.5755 15.4423C15.5823 15.4423 15.5776 15.4871 15.6014 15.4812C15.655 15.4676 15.7493 15.4207 15.7898 15.4081C15.8681 15.3838 15.8807 15.3786 15.9529 15.3526C16.0513 15.3174 16.1743 15.2992 16.273 15.256C16.2941 15.2467 16.2526 15.2185 16.285 15.2002C16.3175 15.1819 16.4093 15.1534 16.4428 15.1514C16.4763 15.1495 16.4737 15.1839 16.4815 15.1888C16.5468 15.2303 16.6238 15.1119 16.6362 15.105C16.8669 14.9806 17.0903 14.9416 17.3167 14.8428C17.4867 14.7684 17.6613 14.6701 17.8219 14.5943C18.0132 14.5042 18.1832 14.4411 18.3612 14.3408C18.3801 14.3302 18.3353 14.3009 18.3584 14.2877C18.6038 14.1483 18.8449 14.0141 19.1005 13.8929C19.126 13.8808 19.1172 13.9351 19.144 13.9251C19.3074 13.8641 19.5838 13.7805 19.5675 13.5734C19.6674 13.5145 19.7882 13.4394 19.8939 13.4087C19.9619 13.3888 19.9354 13.4633 19.9909 13.3998C20.0037 13.3852 19.9607 13.3675 19.9816 13.3482C20.0699 13.2666 20.1787 13.2019 20.2604 13.1142C20.2767 13.0964 20.2501 13.0722 20.2515 13.063C20.265 12.9879 20.39 12.999 20.4101 12.991C20.5629 12.9303 20.639 12.8456 20.7524 12.7534C20.7785 12.7322 20.7176 12.7209 20.7416 12.6992C20.8648 12.5882 21.0004 12.4771 21.1374 12.3835C21.1678 12.3629 21.1698 12.4154 21.1857 12.407C21.2552 12.3701 21.2171 12.3014 21.2832 12.2636C21.297 12.2555 21.3139 12.2871 21.3186 12.288C21.392 12.3018 21.3629 12.2134 21.3699 12.2044C21.4587 12.0871 21.5856 12.0885 21.679 11.98C21.6899 11.9671 21.6322 11.9621 21.6646 11.928C21.8802 11.6998 22.1165 11.4692 22.3472 11.2585C22.3829 11.2257 22.3852 11.2733 22.3902 11.2737C22.4707 11.2779 22.4262 11.1991 22.4346 11.1843C22.4991 11.0734 22.6251 11.0319 22.5994 10.9011C23.0982 10.0988 22.6765 11.5312 22.2835 11.6955C22.2783 11.7002 22.2537 11.6641 22.2435 11.6737C22.1256 11.7812 22.1952 11.7988 22.1885 11.9335C22.1857 11.9686 22.0617 11.9688 22.0515 11.9702C22.0149 11.9741 21.9835 11.9139 21.9741 11.9175C21.8976 11.9491 22.0655 12.0693 22.0022 12.1475C21.9999 12.1497 21.9788 12.1155 21.9705 12.1197C21.9445 12.1331 21.9409 12.1615 21.9152 12.1725C21.856 12.1975 21.7655 12.1501 21.755 12.2558C21.7537 12.2694 21.8555 12.3294 21.7949 12.3956C21.7718 12.4205 21.6764 12.5417 21.6426 12.5716C21.609 12.6011 21.5987 12.5539 21.5954 12.5553C21.4815 12.6171 21.495 12.5675 21.4008 12.5668C21.3071 12.5659 21.4535 12.6635 21.4538 12.6943C21.454 12.7251 21.3678 12.7665 21.3432 12.7743C21.3186 12.7819 21.3168 12.7461 21.2985 12.7559C21.1788 12.8201 21.332 12.8529 21.328 12.9021C21.3193 13.0179 21.1707 12.9952 21.1045 13.057C21.0867 13.0737 21.122 13.0771 21.1109 13.0952C21.0668 13.1668 21.0036 13.1807 20.972 13.2791C20.967 13.2951 20.9782 13.4058 20.9026 13.4082C20.8918 13.4085 20.8791 13.3726 20.8511 13.3959C20.8092 13.4306 20.743 13.5015 20.715 13.5536C20.6944 13.5921 20.7668 13.5872 20.72 13.6189C20.6992 13.633 20.7028 13.5787 20.6656 13.6069C20.629 13.6344 20.559 13.7236 20.5326 13.7582C20.5063 13.7927 20.5527 13.7995 20.5527 13.804C20.5516 13.8303 20.5145 13.9076 20.5099 13.9133C20.2823 14.2044 20.0146 14.4289 19.8068 14.7242C19.7904 14.7474 19.8355 14.7594 19.8334 14.7632C19.7867 14.85 19.746 14.7194 19.674 14.7484C19.7477 14.795 19.7104 14.8164 19.6751 14.8756C19.6582 14.9042 19.6956 14.9112 19.6964 14.9157C19.7056 14.9856 19.633 14.9709 19.6171 14.9693C19.5582 14.9635 19.582 15.0275 19.5424 15.0239C19.503 15.0205 19.4966 14.9506 19.4562 15.0021C19.4689 15.0358 19.5626 15.0485 19.5417 15.0956C19.463 15.2732 19.1943 15.5071 19.0956 15.6198C18.996 15.7337 18.97 15.7753 18.9067 15.8364C18.7928 15.9464 18.8751 15.9397 18.8351 16.0338C18.7948 16.1282 18.7093 15.9983 18.6756 15.9895C18.6421 15.9805 18.6582 16.0128 18.6338 16.0153C18.6094 16.0179 18.6157 15.9753 18.5854 16.0028C18.5551 16.0301 18.5301 16.1519 18.5468 16.1843C18.5827 16.2522 18.6718 16.2592 18.5842 16.3272C18.5791 16.331 18.5612 16.2911 18.5434 16.3071C18.4033 16.4344 18.2797 16.5861 18.1417 16.7163C18.1225 16.7344 18.1033 16.6892 18.0917 16.6994C17.9718 16.8051 18.064 16.8066 18.0743 16.9236C18.0017 16.8417 17.9221 16.8356 17.846 16.9299C17.8008 16.9858 17.8454 17.0055 17.8427 17.0621C17.8419 17.0791 17.7855 17.0979 17.7972 17.1187C17.8333 17.1882 17.9368 17.1957 17.819 17.2813C17.8138 17.2846 17.7974 17.244 17.7819 17.2572C17.6817 17.3374 17.7104 17.4107 17.6018 17.4951C17.5215 17.5577 17.3457 17.6202 17.2455 17.6785C17.1799 17.5765 17.1047 17.6605 17.1145 17.7546C17.0503 17.7937 16.9856 17.8428 16.9189 17.8737C16.896 17.8844 16.89 17.8461 16.8853 17.8447C16.812 17.8222 16.8303 17.908 16.8186 17.9196C16.6901 18.0434 16.537 18.072 16.4314 18.2155C16.4277 18.2207 16.4667 18.296 16.3952 18.2699C16.3904 18.268 16.415 18.2053 16.3479 18.2468C16.2808 18.2884 16.1322 18.3338 16.0631 18.4273C16.0463 18.4499 16.0288 18.544 15.9544 18.5297C15.9444 18.5277 15.9374 18.5032 15.9213 18.4979C15.8697 18.481 15.902 18.5618 15.8291 18.5237C15.7561 18.4856 15.658 18.4862 15.5942 18.5893C15.5921 18.5924 15.608 18.663 15.5786 18.6815C15.5316 18.711 15.4585 18.7432 15.4107 18.7758C15.3878 18.7915 15.4259 18.8164 15.4223 18.8197C15.2808 18.9431 15.1498 18.9861 14.9751 19.084C14.943 19.1019 14.8876 19.208 14.8036 19.21C14.7115 19.2124 14.6631 18.997 14.542 19.1374C14.4931 19.1939 14.5629 19.4615 14.3799 19.4216C14.1899 19.5896 13.9584 19.6618 13.7759 19.8421C13.7677 19.8502 13.7785 19.9307 13.7559 19.9447C13.7221 19.9654 13.6851 19.9493 13.6604 19.9632C13.5565 20.0207 13.4828 20.1053 13.3856 20.1652C13.348 20.1882 13.3411 20.1512 13.2965 20.1758C13.2515 20.1995 13.241 20.2582 13.1642 20.2657C13.1054 20.2709 13.0272 20.197 12.9631 20.1986C12.9791 20.2902 12.9317 20.3011 12.842 20.3295C12.8245 20.3349 12.8446 20.3668 12.8361 20.371C12.8008 20.3887 12.7684 20.3608 12.7338 20.3761C12.7253 20.3798 12.7218 20.4115 12.7142 20.4161C12.6468 20.4577 12.5626 20.3627 12.5534 20.3458C12.51 20.2823 12.4707 20.3101 12.4372 20.273C12.4062 20.2361 12.4745 20.2453 12.436 20.2121C12.358 20.1441 12.2653 20.0663 12.2144 19.9873C12.1942 19.9562 12.1724 20.0003 12.1687 19.9964C12.1136 19.9309 12.1298 19.843 12.0364 19.8205C12.2371 19.7139 11.998 19.7767 12.0341 19.6473C12.0375 19.637 12.1408 19.627 12.1571 19.6563C12.1734 19.6846 12.1467 19.7349 12.1801 19.7702C12.1878 19.7803 12.2958 19.7987 12.3033 19.8001C12.3625 19.8243 12.2298 19.9003 12.224 19.9083C12.1612 19.9876 12.2949 19.9933 12.3107 19.9987C12.3889 20.0385 12.4332 20.0972 12.5084 20.1099C12.5578 20.1174 12.6001 20.0242 12.6271 20.0374C12.7135 20.0769 12.7649 20.2243 12.8704 20.094C12.8918 20.0648 12.8518 19.9611 12.9427 20.0322C12.9469 20.0374 13.0303 20.0985 13.048 20.0373C13.0501 20.0298 13.0385 19.9996 13.0426 19.9951C13.0684 19.9659 13.0974 19.9812 13.1287 19.9506C13.1586 19.9211 13.1984 19.8715 13.2579 19.8448C13.293 19.8291 13.367 19.852 13.3903 19.8541C13.4565 19.8608 13.4632 19.7723 13.5183 19.7974C13.5737 19.8225 13.5656 19.9226 13.6539 19.9035C13.6096 19.832 13.5674 19.7564 13.5244 19.6835C13.6787 19.5834 13.844 19.505 13.995 19.399C14.0137 19.3858 13.9691 19.3613 13.9885 19.3462C14.0703 19.2825 14.1633 19.2589 14.2452 19.1884C14.3085 19.1336 14.3574 19.0431 14.4227 18.9847C14.5204 19.0349 14.6092 18.936 14.6918 18.891C14.7207 18.8753 14.7332 18.8978 14.7572 18.8918C14.8475 18.8684 14.7659 18.8208 14.7784 18.7963C14.8325 18.6912 14.9472 18.8459 15.0458 18.7739C15.051 18.7702 15.0594 18.641 15.0649 18.6296C15.099 18.5565 15.0943 18.6529 15.1344 18.635C15.2077 18.6024 15.2669 18.5921 15.3271 18.5155C15.3446 18.493 15.3627 18.4038 15.4339 18.4156C15.4432 18.4171 15.459 18.4474 15.4647 18.4459C15.5666 18.4172 15.5094 18.3274 15.537 18.2654C15.5646 18.2034 15.6793 18.2148 15.7062 18.2223C15.776 18.2415 15.6892 18.262 15.69 18.2679C15.7008 18.3378 15.7484 18.2925 15.7925 18.2694C15.8567 18.3521 15.9106 18.3083 15.838 18.2451C15.8299 18.2383 15.8034 18.2678 15.7925 18.2694C15.7714 18.1601 15.8272 18.1068 15.9503 18.1394C16.008 18.1547 16.0063 18.2189 16.0948 18.1364C16.135 18.099 16.0775 18.051 16.1062 18.008C16.172 17.9099 16.3273 17.8864 16.4149 17.8147C16.4467 17.7887 16.3917 17.7783 16.4127 17.7594C16.4683 17.7092 16.5391 17.6972 16.5925 17.6431C16.5973 17.6381 16.5606 17.6131 16.5795 17.5998C16.7226 17.4978 16.8643 17.4344 17.0169 17.3328C17.0906 17.2836 17.2094 17.1764 17.2881 17.129C17.4482 17.0354 17.5251 17.038 17.6154 16.8994C17.663 16.8248 17.6189 16.814 17.6208 16.7667C17.6249 16.6743 17.7812 16.6348 17.8039 16.6306C17.8046 16.6305 17.765 16.6956 17.8067 16.6773C17.8558 16.6865 17.8035 16.6314 17.8039 16.6306C17.8185 16.628 17.9214 16.5141 17.9347 16.4848C17.9418 16.469 17.9054 16.4521 17.9095 16.4445C18.0077 16.2657 18.1282 16.099 18.2722 15.9482C18.2751 15.9458 18.3057 15.9774 18.3122 15.9715C18.4026 15.8894 18.4075 15.7978 18.4449 15.7003C18.4824 15.6027 18.539 15.5489 18.634 15.5502C18.6729 15.4864 18.7662 15.4229 18.8202 15.3877C18.8741 15.3525 18.8131 15.2926 18.8152 15.2874C18.8783 15.1224 18.9778 15.076 19.0929 14.9445C19.1478 14.8819 19.2416 14.7452 19.2906 14.6692C19.3293 14.6089 19.3717 14.5879 19.4028 14.5287C19.407 14.5207 19.3719 14.504 19.3724 14.501C19.383 14.4155 19.4331 14.5009 19.4555 14.4994C19.5367 14.4942 19.5828 14.4878 19.6194 14.397C19.6279 14.3761 19.5634 14.2436 19.5819 14.208C19.6063 14.1618 19.6314 14.2069 19.656 14.1576C19.6582 14.1535 19.6346 14.1358 19.6564 14.1107C19.7572 13.9941 19.8753 13.8743 19.9732 13.7477C19.9867 13.7305 19.9327 13.723 19.9515 13.6977C20.0394 13.5794 20.1433 13.4528 20.2501 13.3549C20.2765 13.3309 20.2882 13.3686 20.3006 13.3687C20.3756 13.3693 20.3518 13.2625 20.3574 13.253C20.4913 13.0209 20.6766 12.9141 20.8183 12.6796C20.8259 12.6667 20.8252 12.5215 20.9174 12.5323C20.9235 12.5331 21.0174 12.5447 21.0027 12.4755C21.0017 12.4712 20.9499 12.4695 20.9875 12.4297C21.025 12.3898 21.0582 12.3047 21.1394 12.2765C21.1648 12.2678 21.2636 12.2731 21.2581 12.1782C21.2576 12.1718 21.2132 11.9969 21.3144 12.0302C21.3312 12.0356 21.4083 12.1079 21.4202 12.0072C21.4223 11.988 21.3854 11.9961 21.4009 11.9536C21.4248 11.8881 21.4987 11.8417 21.5129 11.7496C21.5154 11.7333 21.4977 11.6414 21.5697 11.6389C21.581 11.6385 21.5995 11.6716 21.6182 11.6547C21.7058 11.5768 21.7701 11.4602 21.8623 11.3856C21.8958 11.3579 21.9266 11.4103 21.9672 11.3846C22.0081 11.3586 22.0758 11.2988 22.0837 11.2479C22.0941 11.1941 21.9907 11.1773 22.0307 11.1169C22.2143 10.8486 22.362 10.7209 22.6939 10.3832C24.2651 11.6137 23.1248 10.794 23.3066 11.0135C23.1567 11.2347 22.8922 11.5976 22.6935 11.7147C22.536 11.8076 22.6516 11.6161 22.5455 11.7002C22.4934 11.7418 22.5252 11.8628 22.5167 11.8768C22.4366 12.0125 22.3286 12.0574 22.2446 12.1633C22.227 12.1854 22.2768 12.1958 22.2614 12.2143C22.2086 12.2783 22.1336 12.326 22.0801 12.3831C22.056 12.409 22.0834 12.4278 22.0581 12.4489C21.9966 12.5006 21.9399 12.5357 21.8631 12.566C21.8561 12.5687 21.8623 12.5071 21.8193 12.5455C21.7485 12.6087 21.6465 12.6616 21.5869 12.7571C21.57 12.7848 21.619 12.8413 21.5341 12.8478C21.5162 12.8493 21.4708 12.7699 21.4624 12.8805C21.4608 12.8992 21.429 13.0655 21.3354 13.0568C21.3107 13.0545 21.2297 13.0272 21.2079 13.0607C21.2051 13.0655 21.2469 13.0826 21.2251 13.1062C21.1495 13.1869 21.0556 13.2587 20.9753 13.3395C20.9538 13.3611 21.015 13.3652 20.9821 13.3964C20.8913 13.4828 20.761 13.5711 20.6556 13.6348C20.6165 13.6584 20.6208 13.612 20.6159 13.611C20.537 13.5945 20.561 13.6791 20.5501 13.6932C20.4809 13.7807 20.3906 13.7991 20.3146 13.8664C20.2939 13.8846 20.3326 13.905 20.3302 13.9111C20.3038 13.9719 20.2973 13.8901 20.2635 13.9047C20.169 13.9452 20.0764 14.0137 19.9957 14.0748C19.9658 14.0975 20.0262 14.1112 19.999 14.1312C19.8374 14.2506 19.6592 14.3614 19.4804 14.4434C19.4467 14.4587 19.4479 14.4168 19.4372 14.4141C19.3632 14.3943 19.3372 14.4996 19.3255 14.5151C19.2729 14.5859 19.2301 14.5754 19.1718 14.6167C18.8846 14.8209 18.4931 15.0092 18.1922 15.1431C17.7976 15.3191 17.4814 15.4227 17.1006 15.5835C17.0762 15.5936 17.1178 15.6272 17.097 15.6365C16.8286 15.7544 16.5493 15.8343 16.2863 15.9342C16.2657 15.9422 16.3096 15.9738 16.2774 15.9881C16.2115 16.0178 16.128 16.0462 16.0591 16.0584C16.0255 16.0645 16.0538 16.0125 16.02 16.0195C15.941 16.0359 15.862 16.0664 15.7883 16.108C15.7574 16.1258 15.8248 16.1442 15.7834 16.164C15.5019 16.3004 15.2421 16.4605 14.9455 16.5962C14.9253 16.6055 14.8563 16.5419 14.8279 16.584C14.8399 16.6067 14.8575 16.6308 14.8722 16.6538C14.5059 16.9364 14.1423 17.2256 13.8193 17.5723C13.8057 17.5869 13.8647 17.5942 13.8388 17.6226C13.6889 17.787 13.5614 17.9611 13.3833 18.1135C13.3657 18.1287 13.3049 18.0674 13.2743 18.1293C13.2689 18.1401 13.2169 18.229 13.2166 18.2611C13.2167 18.2657 13.2598 18.2743 13.2415 18.3013C13.1346 18.4584 13.0154 18.6174 12.8922 18.7651C12.8722 18.7889 12.8541 18.7384 12.8396 18.7552C12.7365 18.8751 12.6765 19.0372 12.5685 19.1483C12.4963 19.2225 12.4509 19.154 12.3614 19.166C12.3487 19.1677 12.3166 19.2222 12.2782 19.2048C12.1815 19.1614 12.0952 19.0782 11.9904 19.0351C11.9677 19.0258 11.9488 19.115 11.9221 19.0415C11.9204 19.0364 11.934 18.9712 11.9244 18.9477C11.9178 18.9314 11.8707 18.928 11.8663 18.8997C11.862 18.8714 11.9055 18.8671 11.9058 18.8246C11.9061 18.7818 11.8555 18.772 11.8882 18.7039ZM19.0632 15.228C19.1308 15.2089 19.0194 15.1088 19.0087 15.1794C19.0083 15.183 19.0598 15.229 19.0632 15.228ZM13.9061 19.5992C14.0046 19.6124 13.9927 19.5036 13.9208 19.4905C13.8488 19.4776 13.8761 19.5952 13.9061 19.5992ZM13.293 20.0691C13.3937 20.0644 13.2865 19.8807 13.234 19.9676C13.2313 19.9723 13.2873 20.0692 13.293 20.0691ZM12.4688 18.9376C12.4667 18.9372 12.442 18.9753 12.4432 18.9773C12.4721 19.022 12.5211 18.946 12.4688 18.9376ZM12.604 20.2469C12.6226 20.2828 12.7062 20.2639 12.6798 20.223C12.6603 20.1913 12.5833 20.204 12.604 20.2469ZM21.0462 13.0131C21.0485 13.0138 21.071 12.989 21.0608 12.9816C21.0278 12.9579 21.0075 13.0014 21.0462 13.0131ZM12.1812 19.3151C12.1097 19.4688 11.9196 19.5702 11.9934 19.3524C12.0082 19.3154 12.0238 19.4499 12.0524 19.4059C12.103 19.3319 12.0256 19.2314 12.1239 19.1721C12.1398 19.1638 12.184 19.3073 12.1813 19.3154C12.1812 19.3153 12.1812 19.3152 12.1812 19.3151ZM19.224 15.3146C19.2263 15.3149 19.2564 15.2803 19.2555 15.2783C19.2339 15.2293 19.1733 15.2988 19.224 15.3146ZM22.3302 11.5735C22.3355 11.5736 22.4026 11.4976 22.4029 11.4911C22.3777 11.3993 22.2377 11.5579 22.3302 11.5735ZM17.2422 17.6768C17.2275 17.7443 17.1812 17.7822 17.1148 17.7545C17.1576 17.7296 17.1992 17.7022 17.2422 17.6768Z" fill="#008080"/>
<path d="M5.78711 18.2795L0.25 21.3478C5.36376 12.2136 13.9691 8.61625 22.6449 0.575195C21.0814 2.50315 17.3477 7.22665 14.9213 10.697C12.4949 14.1673 7.82083 17.198 5.78711 18.2795Z" fill="#008080"/>
<path d="M3.38004 19.0475C3.54775 18.9397 3.78262 18.8255 3.96526 18.7461C4.02246 18.7212 4.0078 18.7596 4.04787 18.7435C4.12622 18.7118 4.18826 18.6626 4.2667 18.6331C4.29276 18.6235 4.2832 18.6768 4.31006 18.6659C4.4571 18.6056 4.58251 18.5239 4.72667 18.4542C5.43679 18.107 6.12319 17.7666 6.80867 17.37C7.03353 17.2413 7.32341 17.1055 7.542 16.9454C7.56775 16.9265 7.53186 16.9057 7.53532 16.8999C7.5905 16.8092 7.60289 16.8896 7.65961 16.8648C7.88416 16.7661 8.11549 16.617 8.29926 16.4754C8.37822 16.4144 8.25441 16.41 8.36061 16.3875C8.36796 16.3859 8.36897 16.4325 8.39403 16.4205C8.45102 16.3931 8.5443 16.3206 8.58519 16.2962C8.66464 16.2488 8.67706 16.2397 8.74967 16.1896C8.8502 16.1207 8.97514 16.0563 9.07588 15.9735C9.09721 15.9558 9.04412 15.9445 9.07602 15.9133C9.10838 15.8818 9.20292 15.818 9.24025 15.8026C9.2774 15.7874 9.28246 15.8226 9.29229 15.8244C9.37413 15.8405 9.43386 15.6923 9.44608 15.6806C9.67688 15.4671 9.92221 15.3424 10.1555 15.162C10.3324 15.025 10.5105 14.8642 10.678 14.7318C10.877 14.5748 11.057 14.4543 11.2429 14.2925C11.2626 14.2754 11.2088 14.2591 11.2327 14.2381C11.4868 14.0158 11.7411 13.7997 12.0109 13.5971C12.038 13.5768 12.0338 13.6367 12.0626 13.6182C12.2379 13.5049 12.5332 13.3389 12.4961 13.1239C12.6014 13.0326 12.7273 12.9192 12.8412 12.8568C12.9146 12.8165 12.8914 12.9037 12.9475 12.82C12.9602 12.8011 12.9117 12.7939 12.9328 12.7677C13.0218 12.6573 13.138 12.5561 13.2189 12.4413C13.2354 12.4178 13.2044 12.3991 13.2052 12.3889C13.2141 12.3046 13.3526 12.2814 13.3738 12.2676C13.5339 12.163 13.6125 12.0489 13.7276 11.9201C13.7543 11.8902 13.6873 11.8943 13.7116 11.8645C13.8389 11.7092 13.9751 11.5549 14.1159 11.4156C14.1472 11.3848 14.1532 11.4416 14.1698 11.4281C14.2425 11.3683 14.1956 11.3045 14.263 11.2462C14.2772 11.2338 14.2979 11.2635 14.303 11.2632C14.3828 11.2587 14.345 11.1694 14.3518 11.1576C14.4377 11.0054 14.5738 10.9717 14.6631 10.8283C14.6736 10.8112 14.6116 10.8218 14.6431 10.7754C14.9023 10.4498 14.9142 10.2187 14.8156 9.86629C14.8001 9.81475 14.8451 9.83718 14.8476 9.8326C14.8835 9.75451 14.7898 9.75724 14.7792 9.74317C14.6977 9.63052 14.6814 9.47823 14.5427 9.46124C14.212 8.97283 13.6697 8.59992 13.1276 8.52234C13.1206 8.52172 13.1308 8.47908 13.1162 8.47812C12.9373 8.4749 12.9781 8.54341 12.9305 8.64676C12.9214 8.67088 12.7983 8.63501 12.7856 8.63732C12.7449 8.63548 12.7335 8.56606 12.722 8.56837C12.6287 8.58921 12.7639 8.74538 12.6702 8.81603C12.667 8.81797 12.6565 8.77838 12.6464 8.78129C12.6148 8.79024 12.5997 8.82053 12.5679 8.8281C12.4951 8.84518 12.4154 8.77979 12.367 8.88936C12.3609 8.90339 12.4475 8.98456 12.3605 9.04332C12.3257 9.06667 12.1796 9.17967 12.1338 9.20482C12.0881 9.22995 12.0936 9.17851 12.0897 9.17943C11.9487 9.22373 11.9782 9.17551 11.8779 9.15895C11.7778 9.14266 11.8992 9.27059 11.8883 9.30339C11.8774 9.33617 11.7712 9.36522 11.7426 9.36904C11.714 9.37284 11.7244 9.33485 11.7017 9.34191C11.5521 9.38937 11.7028 9.4504 11.6809 9.50204C11.6292 9.62418 11.4792 9.57515 11.3879 9.62894C11.3632 9.6435 11.3996 9.65291 11.3812 9.67049C11.308 9.7398 11.2353 9.74442 11.1673 9.84354C11.1561 9.85975 11.1305 9.97795 11.0483 9.96894C11.0365 9.96755 11.0358 9.92722 10.9975 9.94756C10.9403 9.97787 10.8447 10.0427 10.7969 10.0934C10.7617 10.1308 10.8403 10.1374 10.7797 10.1634C10.7527 10.1749 10.7752 10.118 10.7261 10.1417C10.6772 10.1653 10.571 10.2494 10.531 10.282C10.491 10.3146 10.5381 10.3292 10.5365 10.3339C10.5262 10.3617 10.4602 10.4379 10.4533 10.4432C10.1097 10.7178 9.74823 10.9167 9.42828 11.2029C9.4031 11.2253 9.44735 11.2445 9.44378 11.2483C9.36525 11.3345 9.36483 11.1891 9.27825 11.2101C9.3417 11.2702 9.29482 11.2878 9.23774 11.3462C9.21029 11.3744 9.24795 11.3871 9.24734 11.392C9.2344 11.468 9.16169 11.4423 9.14513 11.4384C9.08408 11.4242 9.08852 11.4961 9.04735 11.4869C9.00633 11.478 9.02223 11.4022 8.96219 11.4519C8.96487 11.4897 9.06088 11.516 9.0234 11.5635C8.88209 11.7427 8.52149 11.9585 8.3799 12.0689C8.23852 12.1788 8.19821 12.2205 8.1115 12.2792C7.95481 12.3856 8.04632 12.3868 7.97537 12.4835C7.90431 12.5805 7.85132 12.4312 7.81782 12.418C7.78455 12.4047 7.79213 12.4413 7.76512 12.4414C7.73815 12.4416 7.7578 12.3962 7.71687 12.4227C7.6759 12.4492 7.61269 12.5786 7.62156 12.6149C7.64034 12.6919 7.73363 12.7087 7.62029 12.7728C7.61374 12.7764 7.60619 12.7314 7.5824 12.7469C7.39431 12.8709 7.21882 13.0231 7.03487 13.1521C7.00951 13.1698 7.00113 13.1192 6.98604 13.1292C6.82879 13.233 6.9271 13.2429 6.90579 13.3713C6.85049 13.2759 6.76423 13.2646 6.65913 13.3594C6.59596 13.4164 6.63853 13.4414 6.62041 13.503C6.61502 13.5215 6.54885 13.5383 6.55583 13.562C6.57846 13.6396 6.67484 13.6609 6.54625 13.7357C6.54052 13.7389 6.52852 13.696 6.51071 13.7092C6.3955 13.7945 6.43455 13.8616 6.32867 13.9734C6.24569 14.061 6.05837 14.175 5.95412 14.2649C5.87221 14.1754 5.79762 14.2858 5.81808 14.3825C5.75166 14.4421 5.68606 14.5127 5.6165 14.5649C5.59258 14.5829 5.58186 14.5442 5.57653 14.5441C5.49381 14.542 5.52332 14.6272 5.5119 14.643C5.38551 14.8118 5.22179 14.889 5.1254 15.0735C5.122 15.0801 5.17423 15.1471 5.09311 15.1421C5.08767 15.1416 5.10615 15.0678 5.03864 15.1328C4.97119 15.1977 4.81571 15.2937 4.75436 15.4149C4.73943 15.4442 4.73438 15.5489 4.65174 15.5587C4.64062 15.5599 4.62943 15.5365 4.61121 15.5363C4.55273 15.5359 4.59997 15.61 4.51521 15.5947C4.43045 15.5794 4.32407 15.6139 4.27153 15.7446C4.26975 15.7487 4.29832 15.8173 4.26962 15.847C4.22373 15.8945 4.15021 15.9543 4.10439 16.0057C4.08245 16.0304 4.12771 16.0428 4.12444 16.0475C3.9936 16.2277 3.86108 16.3207 3.6929 16.4894C3.66197 16.5203 3.62336 16.6524 3.53446 16.6869C3.43683 16.7253 3.34178 16.5189 3.24085 16.7142C3.1999 16.7932 3.3306 17.0435 3.12835 17.0763C2.96394 17.3286 2.73621 17.5025 2.58993 17.7689C2.58332 17.7809 2.61503 17.8589 2.59492 17.8834C2.56493 17.9196 2.52208 17.9196 2.49982 17.9449C2.40573 18.051 2.35183 18.1709 2.26704 18.2772C2.23494 18.3177 2.21736 18.2823 2.17913 18.3307C2.14126 18.3794 2.15231 18.4383 2.09205 18.4965C2.04756 18.5392 1.93122 18.5583 1.89078 18.6441C1.97893 18.677 1.95498 18.7319 1.96521 18.8346C1.96748 18.8539 2.00234 18.8383 2.00513 18.8474C2.01742 18.8835 1.98862 18.9136 2.00686 18.9472C2.01127 18.9551 2.04321 18.9551 2.04871 18.9611C2.09538 19.0095 2.03926 19.1007 2.03197 19.1209C2.00077 19.1917 2.05102 19.2076 2.05208 19.2574C2.05507 19.3091 2.00276 19.2518 2.01759 19.3099C2.04923 19.4324 2.16138 19.5616 2.26681 19.64C2.30905 19.6714 2.30478 19.6154 2.31137 19.6191C2.39935 19.6698 2.48564 19.7548 2.56597 19.6909C2.57279 19.9206 2.62977 19.6949 2.76275 19.7518C2.77307 19.7559 2.78556 19.8613 2.7334 19.8723C2.68061 19.883 2.61165 19.8388 2.53832 19.8412C2.52239 19.8434 2.394 19.8993 2.37695 19.897C2.25196 19.8899 2.31798 19.7429 2.3183 19.7341C2.31617 19.6274 2.17172 19.6449 2.14252 19.6262C2.0171 19.5532 1.96563 19.4384 1.89558 19.3426C1.85083 19.279 1.75259 19.3039 1.73578 19.2373C1.69075 19.0072 1.83408 18.9488 1.74582 18.7341C1.7304 18.6877 1.60648 18.6973 1.74056 18.5673C1.74875 18.5581 1.86582 18.4796 1.85498 18.3976C1.85356 18.387 1.8255 18.3708 1.82887 18.3594C1.85225 18.2833 1.90338 18.2557 1.93244 18.1958C1.96167 18.1353 1.99421 18.0606 2.04821 18.0067C2.08071 17.9742 2.16407 17.9637 2.18896 17.9553C2.25985 17.9319 2.24403 17.8376 2.30829 17.8383C2.37286 17.839 2.39009 17.9458 2.47767 17.8864C2.41296 17.8327 2.34945 17.7737 2.2858 17.7178C2.42296 17.5441 2.57934 17.3891 2.71542 17.2139C2.73223 17.1921 2.67936 17.1858 2.69651 17.1617C2.769 17.0602 2.86291 16.996 2.93499 16.8884C2.99068 16.8051 3.02407 16.6902 3.08237 16.6023C3.1971 16.6153 3.27217 16.4763 3.35232 16.3968C3.38037 16.3688 3.39811 16.3876 3.42277 16.3719C3.51535 16.3122 3.41873 16.294 3.42764 16.2633C3.46639 16.1318 3.61822 16.2504 3.71117 16.1378C3.71611 16.1319 3.70234 15.9929 3.70634 15.9788C3.73059 15.889 3.74214 15.9923 3.7824 15.9586C3.85599 15.8971 3.91813 15.8646 3.9706 15.7622C3.9858 15.7322 3.99117 15.6314 4.07028 15.6184C4.08066 15.6167 4.10252 15.643 4.10849 15.6394C4.2145 15.573 4.13847 15.4986 4.15908 15.4233C4.17972 15.3481 4.30658 15.3202 4.33686 15.319C4.41568 15.3152 4.32414 15.3667 4.32598 15.3727C4.34802 15.4428 4.39306 15.3786 4.43768 15.3392C4.51955 15.4045 4.57177 15.3402 4.48365 15.2981C4.47392 15.2936 4.44931 15.3338 4.43768 15.3392C4.3988 15.231 4.45239 15.1553 4.59116 15.1487C4.65617 15.1458 4.66303 15.214 4.74831 15.0978C4.78711 15.0451 4.71798 15.0132 4.74381 14.9584C4.80295 14.833 4.97018 14.7583 5.05778 14.6552C5.0896 14.6177 5.02801 14.6238 5.04883 14.5972C5.10405 14.5266 5.18041 14.4921 5.23318 14.4184C5.23793 14.4117 5.19486 14.3964 5.21425 14.3764C5.36076 14.2246 5.51056 14.1153 5.66964 13.9635C5.74644 13.89 5.86848 13.7426 5.95185 13.6705C6.09607 13.5451 6.30869 13.4297 6.41885 13.3091C6.49087 13.2305 6.44593 13.2158 6.46067 13.1644C6.48898 13.0649 6.66993 13.0328 6.69555 13.0301C6.69634 13.03 6.63504 13.0984 6.68539 13.0815C6.73594 13.0952 6.6949 13.0309 6.69555 13.0301C6.71223 13.0281 6.85437 12.9131 6.87615 12.8833C6.88797 12.867 6.85377 12.8451 6.86043 12.8372C7.01939 12.6487 7.19694 12.4796 7.39615 12.3313C7.39997 12.3291 7.42359 12.3664 7.43219 12.3607C7.55332 12.2816 7.58782 12.1816 7.65717 12.0806C7.72648 11.9797 7.80509 11.927 7.9068 11.9392C7.96868 11.8744 8.08787 11.8175 8.15717 11.7858C8.22646 11.754 8.17984 11.6822 8.18373 11.6768C8.30411 11.5063 8.42552 11.469 8.59183 11.3421C8.67097 11.2819 8.81627 11.1474 8.89404 11.0724C8.95538 11.013 9.00777 10.9962 9.06082 10.9371C9.06801 10.9291 9.0359 10.9064 9.0375 10.9032C9.0773 10.8129 9.10258 10.9114 9.12703 10.913C9.21577 10.9187 9.2674 10.9182 9.33696 10.8263C9.35302 10.8051 9.32858 10.654 9.36062 10.6185C9.40239 10.5726 9.41406 10.6243 9.45708 10.5753C9.46079 10.5711 9.44154 10.5488 9.47339 10.5251C9.62096 10.415 9.78866 10.3045 9.93715 10.1842C9.95746 10.1679 9.90233 10.1518 9.93122 10.1276C10.0668 10.0142 10.2212 9.89607 10.3704 9.808C10.4073 9.78641 10.4063 9.82855 10.4195 9.83059C10.5001 9.84247 10.5112 9.72592 10.5207 9.71653C10.7451 9.49109 10.9834 9.40567 11.216 9.18174C11.2286 9.16945 11.2803 9.01483 11.3755 9.04106C11.382 9.04273 11.4778 9.0708 11.4863 8.99532C11.4868 8.99061 11.4323 8.98005 11.4862 8.94436C11.5401 8.90867 11.6063 8.8238 11.7045 8.80635C11.7357 8.80072 11.8367 8.82471 11.8649 8.72326C11.8666 8.71642 11.8826 8.52316 11.9795 8.57489C11.9954 8.58347 12.0526 8.67241 12.0999 8.56896C12.1089 8.54907 12.067 8.55119 12.0984 8.50911C12.1461 8.44469 12.2445 8.40593 12.2919 8.31142C12.3001 8.29484 12.3132 8.19533 12.391 8.20481C12.4031 8.2063 12.4109 8.24454 12.4371 8.22976C12.5507 8.15098 12.8462 7.98923 13.0524 8.00431C13.1284 8.00691 13.0939 8.0657 13.1668 8.07944C13.2413 8.09291 13.3733 8.12207 13.4464 8.11149C13.5208 8.10093 13.4651 7.99425 13.5733 8.01373C14.0488 8.1132 14.3709 8.4088 14.6651 8.69585C14.7086 8.73944 14.6949 8.68002 14.76 8.74437C15.0034 8.97256 15.3705 9.46487 15.3924 9.81269C15.4088 10.0784 15.2845 9.7756 15.3104 9.96872C15.3206 10.0576 15.4359 10.1522 15.4405 10.1784C15.4884 10.4256 15.4046 10.6223 15.297 10.8418C15.2735 10.8877 15.3365 10.8658 15.3144 10.9056C15.2389 11.0322 15.1823 11.0744 15.1264 11.1581C15.1029 11.1931 15.1338 11.2062 15.1088 11.236C15.0488 11.3079 14.9892 11.3644 14.9102 11.4174C14.9031 11.4221 14.9043 11.3537 14.8617 11.4068C14.7928 11.493 14.6848 11.5818 14.6301 11.6994C14.6138 11.7344 14.6709 11.7827 14.5798 11.8129C14.5607 11.8192 14.5053 11.7456 14.5052 11.8675C14.5051 11.8881 14.4841 12.0764 14.3822 12.0919C14.3554 12.096 14.2659 12.0879 14.2452 12.1295C14.2426 12.1353 14.289 12.143 14.2675 12.1739C14.1907 12.2827 14.097 12.3821 14.0154 12.4912C13.9937 12.5203 14.0606 12.5082 14.0272 12.5508C13.9351 12.6681 13.8018 12.7959 13.6923 12.8921C13.6519 12.9274 13.6525 12.877 13.6471 12.8772C13.5603 12.8802 13.5941 12.9634 13.5832 12.9816C13.5146 13.0941 13.4182 13.1374 13.342 13.2285C13.3209 13.2536 13.365 13.2648 13.3629 13.2719C13.3394 13.3438 13.3251 13.2585 13.2895 13.2832C13.1894 13.3522 13.0965 13.448 13.0133 13.5356C12.9827 13.5678 13.0501 13.5657 13.0223 13.5943C12.8579 13.7639 12.6756 13.9288 12.489 14.0653C12.4538 14.091 12.4503 14.0468 12.4383 14.047C12.3549 14.0474 12.3386 14.1648 12.3278 14.1843C12.2791 14.2726 12.2308 14.2742 12.1718 14.3343C11.8834 14.6288 11.4822 14.9407 11.174 15.174C10.7715 15.4792 10.4425 15.6922 10.0643 15.9861C10.04 16.0048 10.0926 16.0236 10.072 16.0402C9.80637 16.2524 9.52464 16.4341 9.25448 16.6407C9.23238 16.6575 9.29046 16.6705 9.25582 16.6987C9.18542 16.7564 9.0862 16.8226 9.00227 16.8634C8.96125 16.8835 8.98958 16.818 8.94878 16.8388C8.85457 16.8866 8.75688 16.9495 8.67099 17.0161C8.63443 17.0446 8.71748 17.0429 8.66797 17.077C8.32915 17.3111 7.99356 17.5392 7.61097 17.7102C7.58443 17.7221 7.51445 17.6578 7.47259 17.7046C7.48217 17.7286 7.49818 17.7538 7.51085 17.778C7.01223 18.1053 6.47247 18.3854 5.94971 18.659C5.92807 18.6707 5.98849 18.6927 5.94679 18.7157C5.70694 18.8478 5.47167 18.9935 5.1983 19.0898C5.17114 19.0995 5.14251 19.0177 5.07547 19.0696C5.06368 19.0789 4.9588 19.15 4.93924 19.182C4.93672 19.1866 4.97618 19.2103 4.94117 19.2311C4.73737 19.3509 4.51631 19.463 4.29812 19.5561C4.26287 19.571 4.27777 19.5143 4.25248 19.5246C4.07327 19.5981 3.90587 19.7278 3.72639 19.7832C3.60617 19.8201 3.61045 19.7339 3.51824 19.7024C3.50521 19.6979 3.43778 19.7335 3.41396 19.6986C3.35389 19.6111 3.33009 19.492 3.26224 19.4008C3.24768 19.3811 3.17108 19.4534 3.19552 19.3729C3.19731 19.3674 3.25259 19.3145 3.25889 19.2883C3.26332 19.2701 3.22261 19.2438 3.23672 19.2158C3.25083 19.1879 3.29308 19.2055 3.32059 19.1666C3.34796 19.1275 3.3079 19.0941 3.38004 19.0475ZM8.46868 11.6434C8.54703 11.6315 8.45949 11.5098 8.42561 11.5843C8.42408 11.5881 8.4647 11.6441 8.46868 11.6434ZM2.66764 17.4606C2.77474 17.4316 2.73691 17.3237 2.65772 17.3413C2.57847 17.3591 2.63503 17.4696 2.66764 17.4606ZM2.14472 18.2217C2.24842 18.1694 2.08795 18.0299 2.05584 18.1449C2.05391 18.1515 2.13868 18.2248 2.14472 18.2217ZM3.77352 19.5374C3.77174 19.5361 3.72289 19.561 3.7227 19.5633C3.72021 19.619 3.81787 19.5693 3.77352 19.5374ZM1.92046 19.1225C1.94048 19.0849 1.89814 18.9941 1.86687 19.0394C1.84074 19.0784 1.89463 19.1726 1.92046 19.1225ZM11.3413 9.57268C11.3435 9.5738 11.3759 9.55156 11.3676 9.54203C11.3409 9.51141 11.3044 9.55369 11.3413 9.57268ZM3.23087 19.7495C2.99162 19.833 2.84357 19.6624 3.06639 19.6349C3.10814 19.627 2.99189 19.7122 3.0489 19.7139C3.15954 19.7144 3.17794 19.5882 3.29332 19.5927C3.31691 19.5931 3.24751 19.7452 3.23057 19.7499C3.23067 19.7498 3.23077 19.7496 3.23087 19.7495ZM8.61332 11.7568C8.61562 11.7575 8.65874 11.7243 8.6585 11.7219C8.65099 11.6665 8.56405 11.7335 8.61332 11.7568ZM13.2594 8.48429C13.2621 8.48744 13.3773 8.5094 13.382 8.50772C13.4628 8.44279 13.2121 8.3945 13.2594 8.48429ZM5.95032 14.2641C5.94074 14.3395 5.89392 14.3925 5.81831 14.3823C5.86275 14.3437 5.90566 14.3029 5.95032 14.2641Z" fill="#008080"/>
</svg>
