<svg width="19" height="12" viewBox="0 0 19 12" fill="none" xmlns="http://www.w3.org/2000/svg">
<path d="M10.9163 3.69279C10.6518 3.71067 10.4519 3.93957 10.4698 4.20405C10.4877 4.46859 10.7166 4.66845 10.9811 4.65057L10.9163 3.69279ZM17.4496 5.78703L17.1102 6.12645L17.1102 6.12651L17.4496 5.78703ZM10.8699 6.65385L11.0623 6.21411H11.0623L10.8699 6.65385ZM4.80242 11.3029L5.23178 11.0883H5.23172L4.80242 11.3029ZM7.20578 7.00845L6.74426 7.14027V7.14033L7.20578 7.00845ZM6.85118 6.73263L7.04612 7.17129H7.04618L6.85118 6.73263ZM1.57166 8.93901L1.43972 9.40053L1.43978 9.40059L1.57166 8.93901ZM0.744273 8.30859L1.20736 8.18235L1.20735 8.18229L0.744273 8.30859ZM10.4365 2.98971L10.0072 3.20439V3.20445L10.4365 2.98971ZM11.7706 3.49233C11.9177 3.71295 12.2157 3.77259 12.4363 3.62553C12.6569 3.47853 12.7165 3.18051 12.5695 2.95989L11.7706 3.49233ZM10.9811 4.65057C11.9739 4.58343 13.1655 4.59843 14.2881 4.81443C15.4168 5.03163 16.4262 5.44245 17.1102 6.12645L17.789 5.44767C16.9141 4.57275 15.6919 4.10697 14.4694 3.87171C13.2408 3.63531 11.9614 3.62205 10.9163 3.69279L10.9811 4.65057ZM17.1102 6.12651C17.2192 6.23553 17.2428 6.36789 17.1946 6.51387C17.1415 6.67455 17.0086 6.81567 16.8522 6.87255L17.1802 7.77477C17.6272 7.61223 17.9659 7.23999 18.1062 6.81471C18.2514 6.37479 18.1899 5.84859 17.789 5.44767L17.1102 6.12651ZM16.8522 6.87255C16.6234 6.95577 16.2836 6.97407 15.8354 6.91431C15.3961 6.85569 14.9 6.72903 14.3865 6.56805C13.8746 6.40761 13.3593 6.21753 12.8813 6.03687C12.4104 5.85879 11.9633 5.68497 11.6127 5.56809L11.3091 6.47883C11.6359 6.58779 12.054 6.75039 12.5418 6.93483C13.0226 7.11657 13.5595 7.31493 14.0993 7.48413C14.6373 7.65279 15.1921 7.79703 15.7086 7.86585C16.2162 7.93353 16.7374 7.93581 17.1802 7.77477L16.8522 6.87255ZM11.6127 5.56809C11.5725 5.55471 11.2689 5.43717 11.0113 5.36685C10.8775 5.33031 10.7158 5.29413 10.5622 5.28681C10.4854 5.28315 10.3884 5.28543 10.2883 5.31069C10.1879 5.33601 10.0499 5.39361 9.94346 5.52663L10.6931 6.12633C10.6261 6.21015 10.548 6.23523 10.523 6.24153C10.4983 6.24777 10.4922 6.24453 10.5166 6.24573C10.5655 6.24801 10.6477 6.26277 10.7586 6.29301C10.9905 6.35625 11.1795 6.43563 11.3091 6.47883L11.6127 5.56809ZM9.94346 5.52663C9.78284 5.72745 9.73076 5.96703 9.785 6.19917C9.83276 6.40359 9.95276 6.56073 10.0536 6.66585C10.2555 6.87657 10.5247 7.02675 10.6776 7.09365L11.0623 6.21411C11.0284 6.19929 10.9696 6.16923 10.9055 6.12771C10.8406 6.08571 10.7848 6.04137 10.7466 6.00153C10.7037 5.95677 10.7123 5.94843 10.7199 5.98077C10.7248 6.00183 10.727 6.03261 10.7191 6.06687C10.7113 6.10083 10.6975 6.12087 10.6931 6.12633L9.94346 5.52663ZM10.6776 7.09365C10.8784 7.18155 11.1128 7.26477 11.2731 7.32873C11.4515 7.39995 11.6044 7.47087 11.7463 7.56543L12.2788 6.76665C12.0562 6.61827 11.8329 6.51849 11.6288 6.43707C11.4064 6.34833 11.2517 6.29697 11.0623 6.21411L10.6776 7.09365ZM11.7462 7.56543C12.0642 7.77741 12.891 8.52165 13.336 9.19041C13.4443 9.35331 13.5183 9.49467 13.5585 9.60867C13.5782 9.66459 13.5873 9.70683 13.5904 9.73653C13.5936 9.76581 13.5904 9.77679 13.5909 9.77505C13.5972 9.75057 13.617 9.75075 13.5759 9.77079C13.516 9.79983 13.3795 9.83799 13.1157 9.83799V10.798C13.4503 10.798 13.7511 10.7529 13.9953 10.6343C14.2581 10.5066 14.4489 10.2948 14.521 10.0129C14.5868 9.75543 14.538 9.49971 14.4639 9.28947C14.3879 9.07401 14.2687 8.85933 14.1352 8.65869C13.6126 7.87311 12.6909 7.04139 12.2788 6.76665L11.7462 7.56543ZM13.1157 9.83799C12.5564 9.83799 12.179 9.68967 11.8947 9.48129C11.5998 9.26511 11.3736 8.96145 11.1562 8.59737C11.047 8.41431 10.9479 8.23005 10.8393 8.03409C10.7338 7.84365 10.6207 7.64469 10.4953 7.45929C10.2457 7.09017 9.91286 6.72195 9.40634 6.55311L9.10274 7.46385C9.3167 7.53519 9.49964 7.70067 9.70016 7.99713C9.79982 8.14455 9.89546 8.31129 9.99956 8.49933C10.1007 8.68185 10.2122 8.88873 10.332 9.08937C10.5727 9.49263 10.878 9.92631 11.3272 10.2556C11.7871 10.5927 12.3664 10.798 13.1157 10.798V9.83799ZM9.40634 6.55311C9.22682 6.49329 9.0206 6.50421 8.84066 6.62607C8.69096 6.72747 8.61092 6.87243 8.56682 6.97077C8.47886 7.16697 8.4269 7.43271 8.38334 7.66695C8.2868 8.18547 8.19218 8.78793 7.94906 9.33513L8.82638 9.72495C9.12596 9.05073 9.23882 8.31711 9.32714 7.84257C9.37592 7.58025 9.41066 7.43523 9.44282 7.36359C9.45872 7.32801 9.44708 7.37481 9.37904 7.42089C9.28076 7.48749 9.16928 7.48605 9.10274 7.46385L9.40634 6.55311ZM7.94906 9.33513C7.85648 9.54357 7.64912 9.79239 7.34078 10.0461C7.03922 10.2942 6.67346 10.5203 6.31106 10.6928C5.94416 10.8675 5.6084 10.974 5.36732 11.0047C5.2451 11.0202 5.17808 11.0121 5.15354 11.0056C5.13644 11.0011 5.19464 11.014 5.23178 11.0883L4.37306 11.5176C4.49408 11.7597 4.71032 11.8813 4.90754 11.9335C5.09744 11.9839 5.30114 11.9808 5.4884 11.957C5.86622 11.909 6.30404 11.7594 6.72374 11.5596C7.14788 11.3577 7.58162 11.0911 7.95074 10.7874C8.31308 10.4892 8.64764 10.1272 8.82638 9.72495L7.94906 9.33513ZM5.23172 11.0883C5.16728 10.9594 5.16518 10.7694 5.35106 10.4382C5.53586 10.109 5.8475 9.74955 6.21062 9.36051C6.55526 8.99121 6.9566 8.58537 7.23992 8.21631C7.38362 8.02905 7.5176 7.82589 7.60364 7.61559C7.6898 7.40493 7.74434 7.14615 7.6673 6.87663L6.74426 7.14033C6.74102 7.12911 6.75452 7.15575 6.7151 7.25211C6.67556 7.34883 6.59924 7.47429 6.4784 7.63179C6.2324 7.95225 5.88692 8.30037 5.5088 8.70549C5.14916 9.09081 4.76204 9.52629 4.51388 9.96831C4.2668 10.4086 4.09736 10.9663 4.37306 11.5176L5.23172 11.0883ZM7.66736 6.87669C7.62848 6.74049 7.54094 6.58017 7.41692 6.45669C7.29806 6.33843 7.0103 6.13665 6.65624 6.29403L7.04618 7.17129C6.96872 7.20567 6.88496 7.20411 6.8201 7.18239C6.76646 7.16445 6.74114 7.13859 6.7397 7.13715C6.73628 7.13373 6.7394 7.13631 6.7445 7.14507C6.7502 7.15485 6.74852 7.15521 6.74426 7.14027L7.66736 6.87669ZM6.65624 6.29403C6.18884 6.50175 5.7521 6.79677 5.34488 7.09035C4.92434 7.39347 4.5461 7.68645 4.14218 7.94523C3.35186 8.45157 2.60036 8.73375 1.70354 8.47749L1.43978 9.40059C2.72648 9.76821 3.77594 9.32001 4.66004 8.75361C5.09336 8.47599 5.52074 8.14701 5.90624 7.86909C6.30506 7.58157 6.67472 7.33635 7.04612 7.17129L6.65624 6.29403ZM1.7036 8.47755C1.54838 8.43315 1.42214 8.38479 1.33112 8.32557C1.24725 8.27103 1.21895 8.22483 1.20736 8.18235L0.281175 8.43489C0.371649 8.76675 0.587967 8.98743 0.807753 9.13035C1.02035 9.26859 1.25684 9.34827 1.43972 9.40053L1.7036 8.47755ZM1.20735 8.18229C1.10409 7.80369 1.116 7.53315 1.17725 7.33617C1.23754 7.14231 1.35866 6.97737 1.54994 6.82995C1.9571 6.51615 2.62382 6.32403 3.43448 6.18423C3.82982 6.11601 4.23626 6.06351 4.6382 6.01047C5.03474 5.95821 5.43056 5.90499 5.78276 5.83629C6.12956 5.76867 6.47132 5.67945 6.7472 5.54079C7.0214 5.40297 7.313 5.17287 7.39856 4.78803L6.46142 4.57977C6.46604 4.55877 6.47348 4.60395 6.31604 4.68309C6.16028 4.76139 5.92292 4.83087 5.59904 4.89405C5.28056 4.95615 4.91408 5.00577 4.51268 5.05875C4.11668 5.11095 3.68942 5.16603 3.27128 5.23815C2.45492 5.37897 1.57538 5.59833 0.963969 6.06951C0.645987 6.31461 0.389787 6.63549 0.260547 7.05111C0.132267 7.46367 0.142461 7.92633 0.281175 8.43489L1.20735 8.18229ZM7.39856 4.78803C7.47572 4.44063 7.4069 4.11675 7.1981 3.85503C7.00856 3.61737 6.73622 3.47205 6.4787 3.37539C5.96714 3.18339 5.28524 3.104 4.70618 3.03938C4.07696 2.96912 3.58202 2.91609 3.29714 2.81001C3.14444 2.75319 3.1964 2.73146 3.23114 2.8202C3.27872 2.94188 3.19136 2.98203 3.2945 2.84529L2.528 2.26731C2.35628 2.49501 2.20046 2.82075 2.33714 3.17007C2.46092 3.48633 2.75948 3.63423 2.96216 3.70965C3.38792 3.86817 4.03862 3.93081 4.59968 3.99345C5.21084 4.06167 5.76386 4.13247 6.14138 4.27419C6.32846 4.34439 6.41426 4.41183 6.44762 4.45365C6.46172 4.47135 6.48056 4.49361 6.46142 4.57977L7.39856 4.78803ZM3.2945 2.84529C3.4925 2.58267 3.71552 2.46788 3.96542 2.42684C4.23536 2.3825 4.55984 2.42139 4.94288 2.52195C5.3276 2.62299 5.71514 2.76957 6.13028 2.91411C6.5255 3.05175 6.95522 3.19095 7.355 3.23097L7.45052 2.27571C7.17782 2.24847 6.84722 2.14719 6.44594 2.00751C6.06452 1.87467 5.61938 1.70709 5.18672 1.59345C4.75244 1.47939 4.2749 1.40313 3.80978 1.47951C3.32468 1.55919 2.87954 1.80105 2.528 2.26731L3.2945 2.84529ZM7.355 3.23097C7.50044 3.24549 7.6334 3.20445 7.70828 3.17817C7.79798 3.14667 7.89266 3.10311 7.98518 3.05625C8.17088 2.96229 8.3942 2.83113 8.63174 2.68773C9.11774 2.39433 9.68762 2.03517 10.2649 1.72467C10.8505 1.40967 11.3849 1.17819 11.7899 1.11297C11.9895 1.08087 12.1117 1.09719 12.1798 1.12413C12.2286 1.14345 12.2752 1.17627 12.3154 1.27683L13.2067 0.920245C13.0749 0.590545 12.8428 0.354205 12.5334 0.231625C12.2432 0.116665 11.9277 0.118405 11.6373 0.165205C11.062 0.257845 10.4067 0.558325 9.81014 0.879265C9.2051 1.20471 8.60012 1.58547 8.1356 1.86591C7.89782 2.00943 7.70192 2.12367 7.55162 2.19975C7.4762 2.23797 7.42364 2.26065 7.39034 2.27235C7.34222 2.28921 7.3763 2.26827 7.45052 2.27571L7.355 3.23097ZM12.3154 1.27683C12.2928 1.22031 12.3089 1.16217 12.3184 1.14501C12.3192 1.14363 12.3135 1.15395 12.2929 1.17501C12.2727 1.19577 12.243 1.22181 12.2013 1.25271C12.0218 1.38591 11.7408 1.52367 11.404 1.67907C11.0946 1.82187 10.726 1.98447 10.4635 2.15037C10.335 2.23149 10.1812 2.34363 10.0743 2.49339C9.9503 2.66727 9.87002 2.93012 10.0072 3.20439L10.8658 2.77509C10.9298 2.90301 10.877 3.02127 10.8558 3.05097C10.8517 3.05667 10.8762 3.02511 10.9761 2.96199C11.1703 2.83929 11.4593 2.71083 11.8063 2.55075C12.1259 2.40327 12.5003 2.22627 12.7733 2.02377C12.9096 1.92261 13.0598 1.78743 13.1577 1.61097C13.2669 1.41435 13.3068 1.17027 13.2067 0.920245L12.3154 1.27683ZM10.0072 3.20445C10.1004 3.39069 10.2586 3.48561 10.3873 3.53103C10.5088 3.57399 10.6321 3.58401 10.7272 3.58587C10.9128 3.58947 11.1388 3.56067 11.3044 3.54327C11.4955 3.52317 11.6401 3.51333 11.7472 3.52437C11.8629 3.53631 11.8159 3.56031 11.7706 3.49233L12.5695 2.95989C12.3742 2.66697 12.0567 2.59119 11.8457 2.56941C11.626 2.54673 11.3876 2.56923 11.204 2.58855C10.9947 2.61051 10.8541 2.62815 10.7458 2.62605C10.6939 2.62503 10.6882 2.61921 10.7071 2.62587C10.7331 2.63505 10.8149 2.67327 10.8658 2.77503L10.0072 3.20445Z" fill="#008080" fill-opacity="0.9"/>
</svg>
