<svg width="20" height="21" viewBox="0 0 20 21" fill="none" xmlns="http://www.w3.org/2000/svg">
<path d="M13 6.73193H13.01M1 4.73193C1 3.93628 1.31607 3.17322 1.87868 2.61061C2.44129 2.048 3.20435 1.73193 4 1.73193H16C16.7956 1.73193 17.5587 2.048 18.1213 2.61061C18.6839 3.17322 19 3.93628 19 4.73193V16.7319C19 17.5276 18.6839 18.2906 18.1213 18.8533C17.5587 19.4159 16.7956 19.7319 16 19.7319H4C3.20435 19.7319 2.44129 19.4159 1.87868 18.8533C1.31607 18.2906 1 17.5276 1 16.7319V4.73193Z" stroke="#777777" stroke-width="2" stroke-linecap="round" stroke-linejoin="round"/>
<path d="M1 14.732L6 9.73201C6.928 8.83901 8.072 8.83901 9 9.73201L14 14.732" stroke="#777777" stroke-width="2" stroke-linecap="round" stroke-linejoin="round"/>
<path d="M12 12.732L13 11.732C13.928 10.839 15.072 10.839 16 11.732L19 14.732" stroke="#777777" stroke-width="2" stroke-linecap="round" stroke-linejoin="round"/>
</svg>
