<svg width="34" height="34" viewBox="0 0 34 34" fill="none" xmlns="http://www.w3.org/2000/svg">
<path d="M33.3028 14.234H31.9743V14.1656H17.1309V20.7626H26.4517C25.0919 24.603 21.4379 27.3597 17.1309 27.3597C11.666 27.3597 7.23525 22.929 7.23525 17.4641C7.23525 11.9993 11.666 7.56851 17.1309 7.56851C19.6534 7.56851 21.9484 8.52013 23.6958 10.0746L28.3607 5.40961C25.4151 2.66441 21.475 0.971436 17.1309 0.971436C8.02278 0.971436 0.638184 8.35603 0.638184 17.4641C0.638184 26.5722 8.02278 33.9568 17.1309 33.9568C26.2389 33.9568 33.6235 26.5722 33.6235 17.4641C33.6235 16.3583 33.5097 15.2788 33.3028 14.234Z" fill="#FFC107"/>
<path d="M2.53955 9.78759L7.95822 13.7615C9.42442 10.1315 12.9753 7.56851 17.1306 7.56851C19.6532 7.56851 21.9481 8.52013 23.6955 10.0746L28.3605 5.40961C25.4149 2.66441 21.4748 0.971436 17.1306 0.971436C10.7958 0.971436 5.30207 4.54787 2.53955 9.78759Z" fill="#FF3D00"/>
<path d="M17.1311 33.9567C21.3911 33.9567 25.262 32.3264 28.1886 29.6752L23.0841 25.3558C21.3729 26.6579 19.2814 27.362 17.1311 27.3597C12.8413 27.3597 9.19894 24.6244 7.82675 20.8071L2.44849 24.9509C5.17802 30.2921 10.7212 33.9567 17.1311 33.9567Z" fill="#4CAF50"/>
<path d="M33.3028 14.234H31.9743V14.1655H17.1309V20.7626H26.4517C25.8012 22.5903 24.6295 24.1874 23.0814 25.3566L23.0839 25.355L28.1884 29.6744C27.8272 30.0026 33.6235 25.7104 33.6235 17.4641C33.6235 16.3582 33.5097 15.2788 33.3028 14.234Z" fill="#1976D2"/>
</svg>
