<svg width="25" height="25" viewBox="0 0 25 25" fill="none" xmlns="http://www.w3.org/2000/svg">
<path d="M8.25 2.62598C6.46403 2.62598 5 4.09001 5 5.87598V17.126H3.25C2.5682 17.126 2 17.6942 2 18.376V19.376C2 20.6097 3.01625 21.626 4.25 21.626H17.75C18.9838 21.626 20 20.6097 20 19.376V7.12598H21.75C22.4318 7.12598 23 6.55777 23 5.87598V4.87598C23 3.68261 22.0469 2.70121 20.8682 2.6377C20.8291 2.63067 20.7896 2.62675 20.75 2.62598H8.25ZM8.25 4.12598H18.6533C18.5673 4.36322 18.5 4.61068 18.5 4.87598V6.25293C18.4868 6.33344 18.4868 6.41558 18.5 6.49609V19.376C18.5 19.7992 18.1733 20.126 17.75 20.126C17.3268 20.126 17 19.7992 17 19.376V18.376C17 17.6942 16.4318 17.126 15.75 17.126H6.5V5.87598C6.5 4.90095 7.27497 4.12598 8.25 4.12598ZM20.75 4.12598C21.1733 4.12598 21.5 4.45273 21.5 4.87598V5.62598H20V4.87598C20 4.45273 20.3267 4.12598 20.75 4.12598ZM9.25 6.62598C9.15062 6.62457 9.05194 6.64293 8.95972 6.67999C8.86749 6.71705 8.78355 6.77207 8.71277 6.84186C8.642 6.91164 8.58579 6.99479 8.54743 7.08649C8.50907 7.17818 8.48932 7.27658 8.48932 7.37598C8.48932 7.47537 8.50907 7.57377 8.54743 7.66547C8.58579 7.75716 8.642 7.84031 8.71277 7.9101C8.78355 7.97988 8.86749 8.0349 8.95972 8.07196C9.05194 8.10902 9.15062 8.12738 9.25 8.12598H15.75C15.8494 8.12738 15.9481 8.10902 16.0403 8.07196C16.1325 8.0349 16.2164 7.97988 16.2872 7.9101C16.358 7.84031 16.4142 7.75716 16.4526 7.66547C16.4909 7.57377 16.5107 7.47537 16.5107 7.37598C16.5107 7.27658 16.4909 7.17818 16.4526 7.08649C16.4142 6.99479 16.358 6.91164 16.2872 6.84186C16.2164 6.77207 16.1325 6.71705 16.0403 6.67999C15.9481 6.64293 15.8494 6.62457 15.75 6.62598H9.25ZM9.25 10.126C9.15062 10.1246 9.05194 10.1429 8.95972 10.18C8.86749 10.2171 8.78355 10.2721 8.71277 10.3419C8.642 10.4116 8.58579 10.4948 8.54743 10.5865C8.50907 10.6782 8.48932 10.7766 8.48932 10.876C8.48932 10.9754 8.50907 11.0738 8.54743 11.1655C8.58579 11.2572 8.642 11.3403 8.71277 11.4101C8.78355 11.4799 8.86749 11.5349 8.95972 11.572C9.05194 11.609 9.15062 11.6274 9.25 11.626H15.75C15.8494 11.6274 15.9481 11.609 16.0403 11.572C16.1325 11.5349 16.2164 11.4799 16.2872 11.4101C16.358 11.3403 16.4142 11.2572 16.4526 11.1655C16.4909 11.0738 16.5107 10.9754 16.5107 10.876C16.5107 10.7766 16.4909 10.6782 16.4526 10.5865C16.4142 10.4948 16.358 10.4116 16.2872 10.3419C16.2164 10.2721 16.1325 10.2171 16.0403 10.18C15.9481 10.1429 15.8494 10.1246 15.75 10.126H9.25ZM9.25 13.626C9.15062 13.6246 9.05194 13.6429 8.95972 13.68C8.86749 13.7171 8.78355 13.7721 8.71277 13.8419C8.642 13.9116 8.58579 13.9948 8.54743 14.0865C8.50907 14.1782 8.48932 14.2766 8.48932 14.376C8.48932 14.4754 8.50907 14.5738 8.54743 14.6655C8.58579 14.7572 8.642 14.8403 8.71277 14.9101C8.78355 14.9799 8.86749 15.0349 8.95972 15.072C9.05194 15.109 9.15062 15.1274 9.25 15.126H14.75C14.8494 15.1274 14.9481 15.109 15.0403 15.072C15.1325 15.0349 15.2164 14.9799 15.2872 14.9101C15.358 14.8403 15.4142 14.7572 15.4526 14.6655C15.4909 14.5738 15.5107 14.4754 15.5107 14.376C15.5107 14.2766 15.4909 14.1782 15.4526 14.0865C15.4142 13.9948 15.358 13.9116 15.2872 13.8419C15.2164 13.7721 15.1325 13.7171 15.0403 13.68C14.9481 13.6429 14.8494 13.6246 14.75 13.626H9.25ZM3.5 18.626H5.62695C5.70747 18.6392 5.7896 18.6392 5.87012 18.626H15.5V19.376C15.5 19.6413 15.5673 19.8887 15.6533 20.126H4.25C3.82675 20.126 3.5 19.7992 3.5 19.376V18.626Z" fill="#777777"/>
</svg>
