<svg width="21" height="20" viewBox="0 0 21 20" fill="none" xmlns="http://www.w3.org/2000/svg">
<path d="M6.25024 0.304199C4.45824 0.304199 3.00024 1.7622 3.00024 3.5542V14.3042H11.7502C12.9907 14.3042 14.0002 15.3137 14.0002 16.5542V17.8042C14.0002 18.6292 14.6694 19.2992 15.4934 19.3032H15.5071C16.3276 19.2992 16.9938 18.634 16.9993 17.814C16.9998 17.549 17.0002 1.8042 17.0002 1.8042C17.0002 1.2392 17.1954 0.723199 17.5129 0.304199H6.25024ZM19.5002 0.304199C18.6732 0.304199 18.0002 0.977199 18.0002 1.8042V4.8042H19.7502C20.4397 4.8042 21.0002 4.2437 21.0002 3.5542V1.8042C21.0002 0.977199 20.3272 0.304199 19.5002 0.304199ZM6.75024 3.8042H13.2502C13.6642 3.8042 14.0002 4.1402 14.0002 4.5542C14.0002 4.9682 13.6642 5.3042 13.2502 5.3042H6.75024C6.33624 5.3042 6.00024 4.9682 6.00024 4.5542C6.00024 4.1402 6.33624 3.8042 6.75024 3.8042ZM6.75024 7.3042H13.2502C13.6642 7.3042 14.0002 7.6402 14.0002 8.0542C14.0002 8.4682 13.6642 8.8042 13.2502 8.8042H6.75024C6.33624 8.8042 6.00024 8.4682 6.00024 8.0542C6.00024 7.6402 6.33624 7.3042 6.75024 7.3042ZM6.75024 10.8042H12.2502C12.6642 10.8042 13.0002 11.1402 13.0002 11.5542C13.0002 11.9682 12.6642 12.3042 12.2502 12.3042H6.75024C6.33624 12.3042 6.00024 11.9682 6.00024 11.5542C6.00024 11.1402 6.33624 10.8042 6.75024 10.8042ZM1.25024 15.3042C0.560744 15.3042 0.000244141 15.8647 0.000244141 16.5542V17.0542C0.000244141 18.2947 1.00974 19.3042 2.25024 19.3042H13.5129C13.1954 18.8852 13.0002 18.3692 13.0002 17.8042V16.5542C13.0002 15.8647 12.4397 15.3042 11.7502 15.3042H1.25024Z" fill="#008080"/>
</svg>
