<svg width="23" height="21" viewBox="0 0 23 21" fill="none" xmlns="http://www.w3.org/2000/svg">
<path d="M21.6839 10.6402L12.6276 1.58863L12.0206 0.981602C11.8823 0.844203 11.6952 0.76709 11.5003 0.76709C11.3053 0.76709 11.1183 0.844203 10.98 0.981602L1.3167 10.6402C1.17497 10.7814 1.06297 10.9495 0.98729 11.1347C0.911611 11.3198 0.873795 11.5183 0.876074 11.7183C0.885449 12.5433 1.57217 13.2019 2.39717 13.2019H3.39326V20.8355H19.6073V13.2019H20.6245C21.0253 13.2019 21.4026 13.0449 21.6862 12.7613C21.8259 12.6221 21.9365 12.4566 22.0117 12.2743C22.087 12.0921 22.1253 11.8967 22.1245 11.6996C22.1245 11.3011 21.9675 10.9238 21.6839 10.6402ZM12.8128 19.148H10.1878V14.3668H12.8128V19.148ZM17.9198 11.5144V19.148H14.3128V13.8043C14.3128 13.2863 13.8933 12.8668 13.3753 12.8668H9.62529C9.10732 12.8668 8.68779 13.2863 8.68779 13.8043V19.148H5.08076V11.5144H2.83076L11.5026 2.84957L12.044 3.39098L20.1722 11.5144H17.9198Z" fill="#777777"/>
</svg>
