<svg width="25" height="25" viewBox="0 0 25 25" fill="none" xmlns="http://www.w3.org/2000/svg">
<path d="M22.6835 11.9618L13.0296 2.31492C12.9601 2.24528 12.8776 2.19002 12.7867 2.15232C12.6958 2.11462 12.5984 2.09521 12.5 2.09521C12.4016 2.09521 12.3041 2.11462 12.2132 2.15232C12.1223 2.19002 12.0398 2.24528 11.9703 2.31492L2.31636 11.9618C2.03511 12.243 1.87573 12.6251 1.87573 13.0235C1.87573 13.8509 2.54839 14.5235 3.37573 14.5235H4.39292V21.4071C4.39292 21.822 4.72808 22.1571 5.14292 22.1571H11V16.9071H13.625V22.1571H19.857C20.2718 22.1571 20.607 21.822 20.607 21.4071V14.5235H21.6242C22.0226 14.5235 22.4046 14.3665 22.6859 14.0829C23.2695 13.497 23.2695 12.5477 22.6835 11.9618Z" fill="#008080"/>
</svg>
