<svg width="25" height="25" viewBox="0 0 25 25" fill="none" xmlns="http://www.w3.org/2000/svg">
<g clip-path="url(#clip0_495_1149)">
<path d="M12.2499 6.62325L3.14451 14.6545C3.07701 14.7153 2.99076 14.7437 2.91659 14.7941V22.4999C2.91659 22.8683 3.21493 23.1666 3.58326 23.1666H9.80118L8.24993 20.1328L12.5878 17.4662L10.0812 12.4987L16.2499 18.1978L11.912 20.8645L13.5753 23.1666H20.9166C21.2849 23.1666 21.5833 22.8683 21.5833 22.4999V14.7958C21.5124 14.7474 21.4283 14.7199 21.3641 14.6624L12.2499 6.62325ZM24.0287 11.6783L21.5833 9.51867V3.83325C21.5833 3.46492 21.2849 3.16659 20.9166 3.16659H18.2499C17.8816 3.16659 17.5833 3.46492 17.5833 3.83325V5.987L13.3645 2.26284C13.0466 1.977 12.6483 1.83367 12.2499 1.83325C11.8516 1.83284 11.4541 1.97534 11.1374 2.26117L0.471177 11.6783C0.197427 11.9245 0.17451 12.3458 0.42076 12.6199L1.31243 13.6124C1.55826 13.8862 1.97993 13.9091 2.25409 13.6628L11.8091 5.2345C12.0612 5.01242 12.4391 5.01242 12.6912 5.2345L22.2462 13.6624C22.5199 13.9083 22.9416 13.8858 23.1878 13.612L24.0795 12.6195C24.3253 12.3458 24.3028 11.9241 24.0287 11.6783Z" fill="#DDDDDD"/>
</g>
<defs>
<clipPath id="clip0_495_1149">
<rect width="24" height="24" fill="white" transform="translate(0.25 0.5)"/>
</clipPath>
</defs>
</svg>
