<svg width="81" height="80" viewBox="0 0 81 80" fill="none" xmlns="http://www.w3.org/2000/svg">
<path d="M80.3961 53.1667C80.4238 53.2222 80.4377 53.625 80.4377 54.375C80.4377 55.125 80.4515 56.0833 80.4792 57.25C80.5069 58.4167 80.5069 59.7639 80.4792 61.2917C80.4515 62.8194 80.4515 64.3611 80.4792 65.9167C80.5069 67.4722 80.4931 69.0556 80.4377 70.6667C80.3823 72.2778 80.3823 73.6945 80.4377 74.9167C80.4931 76.1389 80.4792 77.2361 80.3961 78.2083C80.313 79.1806 80.313 79.7778 80.3961 80H0.624643V74.9583C0.624643 73.6528 0.610794 72.2222 0.583095 70.6667C0.555397 69.1111 0.555397 67.5417 0.583095 65.9583C0.610794 64.375 0.596945 62.8194 0.541548 61.2917C0.486151 59.7639 0.486151 58.4306 0.541548 57.2917C0.596945 56.1528 0.596945 55.1806 0.541548 54.375C0.486151 53.5694 0.513849 53.1667 0.624643 53.1667L16.5374 5.33333H32.5332V10.6667H20.3598L6.19203 53.3333H23.5589L28.877 64H52.1437L57.4618 53.3333H74.8287L60.661 10.6667H48.4875V5.33333H64.4834L80.3961 53.1667ZM75.078 58.6667H60.7856L55.4675 69.3333H25.5532L20.2351 58.6667H5.94274V74.6667H75.078V58.6667ZM37.8513 38.875V0H43.1694V38.875L55.3844 26.6667L59.1237 30.4167L40.5104 49.0833L21.897 30.4167L25.6363 26.6667L37.8513 38.875Z" fill="#008080"/>
</svg>
