<svg width="309" height="309" viewBox="0 0 309 309" fill="none" xmlns="http://www.w3.org/2000/svg">
<g clip-path="url(#clip0_122_1144)">
<path d="M308.5 236.022H0.5V236.176H308.5V236.022Z" fill="#E6E6E6"/>
<path d="M48.6835 242.897H32.3164V243.051H48.6835V242.897Z" fill="#E6E6E6"/>
<path d="M54.6032 239.817H40.4968V239.971H54.6032V239.817Z" fill="#E6E6E6"/>
<path d="M200.953 240.273H163.099V240.427H200.953V240.273Z" fill="#E6E6E6"/>
<path d="M213.581 240.273H204.501V240.427H213.581V240.273Z" fill="#E6E6E6"/>
<path d="M265.207 241.326H235.233V241.48H265.207V241.326Z" fill="#E6E6E6"/>
<path d="M119.493 243.784H66.1287V243.938H119.493V243.784Z" fill="#E6E6E6"/>
<path d="M274.983 241.326H270.616V241.48H274.983V241.326Z" fill="#E6E6E6"/>
<path d="M146.492 208.549H27.5486C26.6168 208.547 25.7237 208.176 25.0654 207.517C24.4071 206.857 24.0374 205.963 24.0374 205.032V37.8307C24.0455 36.9042 24.4188 36.0184 25.0762 35.3656C25.7336 34.7128 26.6221 34.3457 27.5486 34.3441H146.492C147.425 34.3441 148.32 34.7147 148.979 35.3743C149.639 36.034 150.009 36.9286 150.009 37.8615V205.032C150.009 205.964 149.639 206.859 148.979 207.519C148.32 208.178 147.425 208.549 146.492 208.549ZM27.5486 34.4673C26.6576 34.4689 25.8037 34.824 25.1743 35.4546C24.5449 36.0852 24.1914 36.9397 24.1914 37.8307V205.032C24.1914 205.923 24.5449 206.777 25.1743 207.408C25.8037 208.038 26.6576 208.393 27.5486 208.395H146.492C147.384 208.393 148.238 208.038 148.868 207.408C149.499 206.778 149.854 205.923 149.855 205.032V37.8307C149.854 36.9392 149.499 36.0846 148.868 35.4542C148.238 34.8238 147.384 34.4689 146.492 34.4673H27.5486Z" fill="#E6E6E6"/>
<path d="M279.739 208.549H160.789C159.857 208.547 158.963 208.176 158.304 207.517C157.645 206.858 157.274 205.964 157.272 205.032V37.8307C157.282 36.9037 157.656 36.0178 158.315 35.3652C158.973 34.7126 159.862 34.3457 160.789 34.3441H279.739C280.664 34.3473 281.551 34.7151 282.207 35.3677C282.863 36.0204 283.236 36.9053 283.244 37.8307V205.032C283.244 205.962 282.875 206.855 282.218 207.514C281.561 208.174 280.67 208.546 279.739 208.549ZM160.789 34.4673C159.898 34.4689 159.043 34.8238 158.413 35.4542C157.782 36.0846 157.428 36.9392 157.426 37.8307V205.032C157.428 205.923 157.782 206.778 158.413 207.408C159.043 208.038 159.898 208.393 160.789 208.395H279.739C280.63 208.393 281.485 208.038 282.115 207.408C282.746 206.778 283.101 205.923 283.102 205.032V37.8307C283.101 36.9392 282.746 36.0846 282.115 35.4542C281.485 34.8238 280.63 34.4689 279.739 34.4673H160.789Z" fill="#E6E6E6"/>
<path d="M95.012 130.084C96.7268 122.645 92.0862 115.224 84.647 113.51C77.2078 111.795 69.7871 116.435 68.0723 123.875C66.3576 131.314 70.9982 138.735 78.4374 140.449C85.8766 142.164 93.2973 137.523 95.012 130.084Z" fill="#F0F0F0"/>
<path d="M175.801 124.12C174.083 120.424 175.45 117.744 179.664 117.744C182.3 117.744 185.577 118.792 188.768 120.486C189.132 119.518 190.142 118.939 191.774 118.939C194.651 118.939 198.612 120.732 201.716 123.251C202.675 122.61 203.804 122.273 204.957 122.284C207.71 122.173 211.037 123.202 213.932 124.878C214.102 124.717 214.302 124.591 214.521 124.509C214.74 124.426 214.973 124.388 215.207 124.397C216.124 124.428 217.025 124.651 217.852 125.051C218.678 125.45 219.412 126.019 220.005 126.72C220.073 126.8 220.129 126.886 220.19 126.966H173.664C172.192 125.654 173.818 124.188 175.801 124.12Z" fill="#F5F5F5"/>
<path d="M85.1631 152.721L123.281 143.992V236.022H85.1631V152.721Z" fill="#FAFAFA"/>
<path d="M143.061 143.992H123.281V236.022H143.061V143.992Z" fill="#EBEBEB"/>
<path d="M136.599 236.022H169.044V121.982H136.599V236.022Z" fill="#FAFAFA"/>
<path d="M185.879 121.982H169.044V236.022H185.879V121.982Z" fill="#EBEBEB"/>
<path d="M140.966 121.982H169.044V113.506H140.966V121.982Z" fill="#FAFAFA"/>
<path d="M140.966 121.982H169.044V120.079H140.966V121.982Z" fill="#EBEBEB"/>
<path d="M181.518 113.506H169.044V121.982H181.518V113.506Z" fill="#EBEBEB"/>
<path d="M145.328 113.506H169.038V105.03H145.328V113.506Z" fill="#FAFAFA"/>
<path d="M145.328 113.506H169.038V111.603H145.328V113.506Z" fill="#EBEBEB"/>
<path d="M177.15 105.036H169.044V113.512H177.15V105.036Z" fill="#EBEBEB"/>
<path d="M162.028 93.1968H160.451V105.036H162.028V93.1968Z" fill="#EBEBEB"/>
<path d="M180.501 236.022H204.193V136.803H180.501V236.022Z" fill="#FAFAFA"/>
<path d="M216.494 136.803H204.199V236.022H216.494V136.803Z" fill="#EBEBEB"/>
<path d="M210.347 156.928L228.309 172.328V236.022H210.347V156.928Z" fill="#FAFAFA"/>
<path d="M237.635 172.328H228.309V236.023H237.635V172.328Z" fill="#EBEBEB"/>
<path d="M237.635 172.328H228.309L210.347 156.928H219.667L237.635 172.328Z" fill="#EBEBEB"/>
<path d="M271.479 236.023C271.743 234.543 272.372 233.152 273.309 231.977C274.245 230.801 275.46 229.878 276.844 229.29C275.629 231.315 275.078 233.669 275.267 236.023H271.479Z" fill="#EBEBEB"/>
<path d="M115.261 236.023C114.997 234.543 114.368 233.152 113.431 231.977C112.494 230.801 111.279 229.878 109.896 229.29C111.11 231.315 111.661 233.669 111.472 236.023H115.261Z" fill="#EBEBEB"/>
<path d="M36.7639 236.023C36.7639 236.023 36.4621 228.138 33.1665 225.846C34.5155 229.068 34.226 236.023 34.226 236.023H36.7639Z" fill="#EBEBEB"/>
<path d="M35.5259 236.023C35.5259 236.023 35.8339 231.495 39.1295 230.183C37.7743 232.031 38.07 236.023 38.07 236.023H35.5259Z" fill="#EBEBEB"/>
<path d="M118.082 236.023C118.082 236.023 117.749 228.557 111.774 225.846C114.448 229.678 114.294 236.023 114.294 236.023H118.082Z" fill="#EBEBEB"/>
<path d="M58.2068 185.763L62.5557 216.44L62.9869 219.508H65.7774L65.3401 216.44L60.9911 185.763H58.2068Z" fill="#E0E0E0"/>
<path d="M177.705 185.763L182.054 216.44L182.485 219.508H185.275L184.838 216.44L180.489 185.763H177.705Z" fill="#E0E0E0"/>
<path d="M76.0647 216.44L76.5021 219.508L78.849 236.047H81.6395L79.2925 219.508L78.8613 216.44H76.0647Z" fill="#E6E6E6"/>
<path d="M195.569 216.44L196.006 219.508L198.347 236.047H201.131L198.791 219.508L198.359 216.44H195.569Z" fill="#E6E6E6"/>
<path d="M181.487 216.44L181.05 219.508L178.703 236.047H175.912L178.259 219.508L178.69 216.44H181.487Z" fill="#E6E6E6"/>
<path d="M61.9829 216.44L61.5455 219.508L59.2047 236.047H56.4204L58.7612 219.508L59.1986 216.44H61.9829Z" fill="#E6E6E6"/>
<path d="M54.1968 190.032H181.912L179.54 181.488H51.8252L54.1968 190.032Z" fill="#F5F5F5"/>
<path d="M57.1104 190.032H184.832L182.46 181.488H54.7388L57.1104 190.032Z" fill="#E6E6E6"/>
<path d="M55.9769 200.683H183.692L181.321 192.145H53.5991L55.9769 200.683Z" fill="#F5F5F5"/>
<path d="M58.8906 200.683H186.606L184.234 192.145H56.519L58.8906 200.683Z" fill="#E6E6E6"/>
<path d="M57.751 211.352H185.472L183.101 202.814H55.3794L57.751 211.352Z" fill="#F5F5F5"/>
<path d="M60.6709 211.352H188.386L186.015 202.814H58.2993L60.6709 211.352Z" fill="#E6E6E6"/>
<path d="M200.01 216.44H72.8555V219.508H200.01V216.44Z" fill="#E6E6E6"/>
<path d="M72.8553 216.44H55.3794V219.508H72.8553V216.44Z" fill="#F5F5F5"/>
<path d="M45.7761 91.3057C43.3921 86.1559 45.2894 82.4907 51.1168 82.4907C54.7697 82.4907 59.2973 83.9322 63.714 86.2791C64.2129 84.9424 65.6174 84.1416 67.872 84.1416C71.8513 84.1416 77.3276 86.6056 81.6273 90.123C82.9506 89.2351 84.512 88.769 86.1056 88.7862C89.9125 88.6261 94.5201 90.0552 98.5241 92.3714C99.0001 91.9251 99.6337 91.6858 100.286 91.7061C102.479 91.6137 105.448 93.0551 106.92 94.9154C107.013 95.0325 107.093 95.1434 107.173 95.2604H42.8193C40.7865 93.4309 43.0349 91.3981 45.7761 91.3057Z" fill="#F5F5F5"/>
<path d="M214.812 101.926C214.975 101.916 215.137 101.916 215.299 101.926C215.151 100.244 216.02 99.1658 217.886 99.1658C219.545 99.278 221.151 99.7963 222.562 100.675C222.081 97.4102 223.627 95.285 227.114 95.285C229.929 95.285 233.496 96.6649 237.019 98.9194C237.327 97.6382 238.362 96.8682 240.099 96.8682C243.179 96.8682 247.491 99.2459 251.002 102.597C251.925 101.758 253.131 101.3 254.378 101.316C257.292 101.162 260.914 102.548 264.123 104.753C264.278 104.551 264.479 104.389 264.709 104.282C264.94 104.174 265.194 104.125 265.448 104.137C267.043 104.057 269.236 105.283 270.517 106.921H212.25C210.876 104.383 211.967 102.209 214.812 101.926Z" fill="#F5F5F5"/>
<path d="M116.789 64.6698C116.949 64.6605 117.109 64.6605 117.269 64.6698C117.121 62.982 117.996 61.9102 119.856 61.9102C121.517 62.0213 123.125 62.5396 124.538 63.4194C124.057 60.1484 125.597 58.0232 129.084 58.0232C131.905 58.0232 135.466 59.4092 138.989 61.6638C139.297 60.3825 140.332 59.6125 142.069 59.6125C145.149 59.6125 149.461 61.9841 152.972 65.3413C153.897 64.505 155.101 64.0456 156.348 64.0538C159.262 63.906 162.884 65.2858 166.093 67.4911C166.248 67.2892 166.449 67.1278 166.68 67.0205C166.91 66.9133 167.164 66.8634 167.418 66.8751C169.013 66.7889 171.212 68.0147 172.487 69.6594H114.22C112.852 67.1277 113.943 64.9532 116.789 64.6698Z" fill="#F5F5F5"/>
<path d="M262.158 225.366L251.212 214.419H242.687L252.148 223.881H249.549V236.023H259.559V225.366H262.158Z" fill="#EBEBEB"/>
<path d="M253.633 225.366L242.687 214.419L231.74 225.366H235.824V236.023H249.549V225.366H253.633Z" fill="#FAFAFA"/>
<path d="M154.5 263.841C220.463 263.841 273.936 260.719 273.936 256.868C273.936 253.017 220.463 249.895 154.5 249.895C88.5371 249.895 35.0637 253.017 35.0637 256.868C35.0637 260.719 88.5371 263.841 154.5 263.841Z" fill="#F5F5F5"/>
<path d="M247.615 66.8196L231.198 50.4032H218.41L232.603 64.5958H228.697V82.7986H243.709V66.8196H247.615Z" fill="#008080"/>
<path opacity="0.4" d="M247.615 66.8196L231.198 50.4032H218.41L232.603 64.5958H228.697V82.7986H243.709V66.8196H247.615Z" fill="white"/>
<path d="M234.826 66.8196L218.41 50.4032L201.994 66.8196H208.123V82.7986H228.697V66.8196H234.826Z" fill="#008080"/>
<path opacity="0.7" d="M234.826 66.8196L218.41 50.4032L201.994 66.8196H208.123V82.7986H228.697V66.8196H234.826Z" fill="white"/>
<path d="M258.185 132.35L241.769 115.927H228.98L243.173 130.12H239.268V148.323H254.28V132.35H258.185Z" fill="#008080"/>
<path opacity="0.4" d="M258.185 132.35L241.769 115.927H228.98L243.173 130.12H239.268V148.323H254.28V132.35H258.185Z" fill="white"/>
<path d="M245.397 132.35L228.981 115.927L212.564 132.35H218.687V148.323H239.268V132.35H245.397Z" fill="#008080"/>
<path opacity="0.7" d="M245.397 132.35L228.981 115.927L212.564 132.35H218.687V148.323H239.268V132.35H245.397Z" fill="white"/>
<path d="M184.302 149.419L167.88 133.003H155.098L169.29 147.189H165.385V165.398H180.397V149.419H184.302Z" fill="#008080"/>
<path opacity="0.4" d="M184.302 149.419L167.88 133.003H155.098L169.29 147.189H165.385V165.398H180.397V149.419H184.302Z" fill="white"/>
<path d="M171.514 149.419L155.098 133.003L138.681 149.419H144.804V165.392H165.385V149.419H171.514Z" fill="#008080"/>
<path opacity="0.7" d="M171.514 149.419L155.098 133.003L138.681 149.419H144.804V165.392H165.385V149.419H171.514Z" fill="white"/>
<path d="M183.323 94.2562H174.489L173.226 92.9996L162.97 73.9036L183.323 94.2562Z" fill="#2F54C6"/>
<path d="M174.459 112.804H193.068V90.2337H174.459V112.804Z" fill="#008080"/>
<path opacity="0.3" d="M174.459 112.804H193.068V90.2337H174.459V112.804Z" fill="black"/>
<path d="M182.06 92.9995H197.916L177.557 72.6407H161.707L182.06 92.9995Z" fill="#008080"/>
<path opacity="0.3" d="M182.06 92.9995H197.916L177.557 72.6407H161.707L182.06 92.9995Z" fill="black"/>
<path d="M174.459 87.2893V112.804H148.95V87.2893L161.707 74.9015L161.837 75.0309L162.97 76.1273L174.459 87.2893Z" fill="#008080"/>
<path opacity="0.3" d="M162.97 73.9036V82.737L151.445 94.2562H148.95V87.9237L161.837 75.0308L162.97 73.9036Z" fill="black"/>
<path d="M182.06 92.9995H173.226L161.707 81.4742V72.6407L182.06 92.9995Z" fill="#008080"/>
<path d="M141.348 92.9995H150.182L161.707 81.4742V72.6407L141.348 92.9995Z" fill="#008080"/>
<path d="M138.484 118.97C133.229 123.233 127.809 127.243 122.357 131.185C116.905 135.128 111.38 138.959 105.836 142.76C100.292 146.561 94.6555 150.22 88.9945 153.848C86.1793 155.696 83.3211 157.446 80.4813 159.244C79.0807 160.21 77.533 160.942 75.8983 161.413C75.0121 161.652 74.104 161.8 73.1879 161.856C72.1585 161.941 71.1222 161.885 70.1079 161.69C69.3138 161.528 68.5594 161.212 67.8879 160.758C67.2163 160.304 66.6409 159.723 66.1946 159.046C65.7483 158.37 65.4398 157.612 65.2868 156.816C65.1338 156.02 65.1393 155.202 65.3031 154.409C65.3031 154.316 65.3462 154.199 65.3709 154.101C65.6473 153.103 66.062 152.149 66.6029 151.267C67.058 150.481 67.5926 149.744 68.1983 149.068C69.3394 147.806 70.6769 146.737 72.1592 145.902C75.0236 144.14 77.8633 142.347 80.7401 140.623C86.475 137.118 92.2654 133.711 98.0866 130.348C103.908 126.984 109.791 123.726 115.723 120.547C121.655 117.369 127.636 114.27 133.772 111.412C134.761 110.983 135.872 110.923 136.903 111.244C137.933 111.565 138.813 112.245 139.384 113.161C139.955 114.076 140.178 115.166 140.013 116.233C139.848 117.299 139.305 118.27 138.484 118.97Z" fill="#008080"/>
<path d="M138.484 118.97C133.229 123.233 127.809 127.243 122.357 131.185C116.905 135.128 111.38 138.959 105.836 142.76C100.292 146.561 94.6555 150.22 88.9945 153.848C86.1793 155.696 83.3211 157.446 80.4813 159.244C79.0807 160.21 77.533 160.942 75.8983 161.413C75.0121 161.652 74.104 161.8 73.1879 161.856C72.1585 161.941 71.1222 161.885 70.1079 161.69C69.3138 161.528 68.5594 161.212 67.8879 160.758C67.2163 160.304 66.6409 159.723 66.1946 159.046C65.7483 158.37 65.4398 157.612 65.2868 156.816C65.1338 156.02 65.1393 155.202 65.3031 154.409C65.3031 154.316 65.3462 154.199 65.3709 154.101C65.6473 153.103 66.062 152.149 66.6029 151.267C67.058 150.481 67.5926 149.744 68.1983 149.068C69.3394 147.806 70.6769 146.737 72.1592 145.902C75.0236 144.14 77.8633 142.347 80.7401 140.623C86.475 137.118 92.2654 133.711 98.0866 130.348C103.908 126.984 109.791 123.726 115.723 120.547C121.655 117.369 127.636 114.27 133.772 111.412C134.761 110.983 135.872 110.923 136.903 111.244C137.933 111.565 138.813 112.245 139.384 113.161C139.955 114.076 140.178 115.166 140.013 116.233C139.848 117.299 139.305 118.27 138.484 118.97Z" fill="#008080"/>
<path opacity="0.5" d="M138.484 118.97C133.229 123.233 127.809 127.243 122.357 131.185C116.905 135.128 111.38 138.959 105.836 142.76C100.292 146.561 94.6555 150.22 88.9945 153.848C86.1793 155.696 83.3211 157.446 80.4813 159.244C79.0807 160.21 77.533 160.942 75.8983 161.413C75.0121 161.652 74.104 161.8 73.1879 161.856C72.1585 161.941 71.1222 161.885 70.1079 161.69C69.3138 161.528 68.5594 161.212 67.8879 160.758C67.2163 160.304 66.6409 159.723 66.1946 159.046C65.7483 158.37 65.4398 157.612 65.2868 156.816C65.1338 156.02 65.1393 155.202 65.3031 154.409C65.3031 154.316 65.3462 154.199 65.3709 154.101C65.6473 153.103 66.062 152.149 66.6029 151.267C67.058 150.481 67.5926 149.744 68.1983 149.068C69.3394 147.806 70.6769 146.737 72.1592 145.902C75.0236 144.14 77.8633 142.347 80.7401 140.623C86.475 137.118 92.2654 133.711 98.0866 130.348C103.908 126.984 109.791 123.726 115.723 120.547C121.655 117.369 127.636 114.27 133.772 111.412C134.761 110.983 135.872 110.923 136.903 111.244C137.933 111.565 138.813 112.245 139.384 113.161C139.955 114.076 140.178 115.166 140.013 116.233C139.848 117.299 139.305 118.27 138.484 118.97Z" fill="white"/>
<path d="M115.754 251.564L120.78 250.4L118.427 238.677L113.4 239.842L115.754 251.564Z" fill="#EBB376"/>
<path d="M81.8613 111.486C81.1652 113.95 80.4938 116.543 79.8531 119.081C79.2125 121.619 78.6211 124.194 78.1283 126.756C77.8573 128.032 77.6232 129.337 77.4199 130.539C77.2166 131.74 77.0996 133.003 77.0257 134.265C76.961 135.521 76.961 136.78 77.0257 138.035C77.0257 138.651 77.1057 139.267 77.1673 139.92C77.2289 140.573 77.3398 141.195 77.4261 141.731L74.9621 142.662C74.6387 141.999 74.3609 141.316 74.1305 140.616C73.8895 139.944 73.6839 139.259 73.5145 138.565C73.1774 137.18 72.9467 135.772 72.8245 134.352C72.7105 132.917 72.6899 131.477 72.7629 130.04C72.8615 128.586 73.034 127.249 73.2249 125.894C73.613 123.19 74.112 120.51 74.7033 117.886C75.2947 115.262 75.9353 112.619 76.7669 109.964L81.8613 111.486Z" fill="#EBB376"/>
<path d="M74.6108 112.336L79.7914 116.463L82.9022 118.927C82.9022 118.927 83.2287 118.058 83.6229 116.814C84.3744 114.412 85.3539 110.605 84.6763 108.855C83.6106 106.083 81.5963 103.582 79.046 104.137C76.8839 104.624 74.6108 112.336 74.6108 112.336Z" fill="#263238"/>
<path d="M81.7689 251.601H86.9248L86.5244 239.651H81.3623L81.7689 251.601Z" fill="#EBB376"/>
<path d="M118.427 238.684L119.69 244.961L114.614 245.885L113.394 239.848L118.427 238.684Z" fill="#DA9D62"/>
<path d="M81.3623 239.651H86.5244L86.7277 245.811H81.5656L81.3623 239.651Z" fill="#DA9D62"/>
<path d="M98.1791 135.442C98.1791 135.442 95.1853 170.856 92.0807 190.814C89.5736 206.935 87.59 244.622 87.59 244.622H80.58C80.58 244.622 77.2289 208.229 78.504 192.262C81.7257 151.92 76.04 144.774 82.7852 135.424L98.1791 135.442Z" fill="#008080"/>
<path opacity="0.6" d="M98.1791 135.442C98.1791 135.442 95.1853 170.856 92.0807 190.814C89.5736 206.935 87.59 244.622 87.59 244.622H80.58C80.58 244.622 77.2289 208.229 78.504 192.262C81.7257 151.92 76.04 144.774 82.7852 135.424L98.1791 135.442Z" fill="black"/>
<path d="M75.3009 142.261L72.2578 144.331L72.689 146.099C72.689 146.099 79.0277 142.809 77.3337 141.491L75.3009 142.261Z" fill="#EBB376"/>
<path d="M89.0991 251.903C88.6399 251.891 88.1834 251.829 87.7377 251.718C87.715 251.711 87.6946 251.698 87.6784 251.681C87.6621 251.664 87.6508 251.643 87.6453 251.62C87.6416 251.596 87.6448 251.572 87.6546 251.55C87.6645 251.528 87.6805 251.509 87.7008 251.496C87.8794 251.379 89.4379 250.369 90.0416 250.64C90.11 250.67 90.169 250.718 90.2124 250.779C90.2558 250.839 90.2819 250.911 90.288 250.985C90.312 251.101 90.306 251.222 90.2704 251.335C90.2348 251.448 90.1709 251.55 90.0847 251.632C89.7993 251.838 89.4495 251.934 89.0991 251.903ZM88.0827 251.539C88.982 251.724 89.6596 251.687 89.9307 251.453C89.9873 251.397 90.0288 251.328 90.0514 251.251C90.074 251.175 90.077 251.094 90.06 251.016C90.0578 250.983 90.0469 250.952 90.0285 250.925C90.0101 250.898 89.9848 250.876 89.9553 250.862C89.6288 250.72 88.7233 251.176 88.0827 251.539Z" fill="#008080"/>
<path d="M87.7687 251.718C87.7487 251.725 87.7271 251.725 87.7071 251.718C87.6891 251.707 87.674 251.692 87.6632 251.674C87.6525 251.655 87.6464 251.635 87.6455 251.613C87.6455 251.546 87.6455 250.061 88.2122 249.562C88.2806 249.498 88.3627 249.45 88.4524 249.422C88.5421 249.394 88.6369 249.388 88.7297 249.402C88.8268 249.403 88.9208 249.437 88.9959 249.499C89.071 249.56 89.1227 249.646 89.1424 249.741C89.2594 250.357 88.3169 251.441 87.8303 251.718C87.8102 251.724 87.7888 251.724 87.7687 251.718ZM88.6434 249.63C88.5437 249.632 88.4479 249.669 88.3724 249.735C88.0492 250.214 87.8834 250.783 87.8981 251.361C88.3847 250.967 88.9761 250.129 88.9021 249.778C88.9021 249.722 88.859 249.648 88.6989 249.63H88.6434Z" fill="#008080"/>
<path d="M121.236 249.624C121.213 249.622 121.191 249.615 121.172 249.602C121.152 249.589 121.137 249.572 121.127 249.551C121.117 249.53 121.113 249.507 121.114 249.484C121.116 249.461 121.124 249.439 121.137 249.42C121.304 249.223 122.739 247.536 123.472 247.536H123.521C123.588 247.54 123.652 247.563 123.708 247.601C123.763 247.638 123.807 247.69 123.835 247.751C123.885 247.846 123.911 247.952 123.911 248.059C123.911 248.166 123.885 248.272 123.835 248.367C123.515 249.045 122.068 249.427 121.23 249.599L121.236 249.624ZM123.466 247.776C123.065 247.776 122.178 248.614 121.569 249.297C122.696 249.032 123.46 248.681 123.638 248.281C123.675 248.218 123.694 248.147 123.694 248.075C123.694 248.002 123.675 247.931 123.638 247.868C123.628 247.843 123.611 247.822 123.589 247.805C123.567 247.789 123.542 247.779 123.515 247.776H123.466Z" fill="#008080"/>
<path d="M121.236 249.624C121.215 249.621 121.196 249.611 121.18 249.597C121.165 249.583 121.154 249.564 121.15 249.544C121.15 249.488 120.706 248.158 121.1 247.412C121.155 247.303 121.231 247.206 121.324 247.128C121.417 247.049 121.526 246.991 121.642 246.956C121.969 246.858 122.129 246.956 122.197 247.098C122.511 247.603 121.815 249.094 121.353 249.562C121.341 249.582 121.323 249.598 121.303 249.609C121.282 249.62 121.259 249.625 121.236 249.624ZM121.852 247.16C121.805 247.152 121.757 247.152 121.71 247.16C121.624 247.184 121.544 247.227 121.475 247.284C121.406 247.341 121.35 247.412 121.31 247.492C121.131 248.053 121.131 248.656 121.31 249.217C121.747 248.601 122.172 247.499 121.987 247.197C121.967 247.172 121.939 247.155 121.908 247.148C121.876 247.141 121.844 247.145 121.815 247.16H121.852Z" fill="#008080"/>
<path d="M88.2184 91.6752C88.8344 94.7552 90.0664 100.915 87.9412 102.979C87.9412 102.979 88.7789 106.059 94.4708 106.059C100.723 106.059 97.4584 102.979 97.4584 102.979C94.0457 102.166 94.132 99.6339 94.7295 97.25L88.2184 91.6752Z" fill="#EBB376"/>
<path d="M100.649 85.1086C100.599 85.1095 100.549 85.0944 100.508 85.0655C100.481 85.0465 100.459 85.0226 100.442 84.9949C100.425 84.9673 100.413 84.9366 100.408 84.9045C100.403 84.8725 100.404 84.8397 100.412 84.8081C100.419 84.7766 100.433 84.7468 100.452 84.7205C100.674 84.404 100.968 84.1442 101.31 83.9623C101.651 83.7804 102.03 83.6814 102.417 83.6733C102.475 83.6826 102.528 83.7122 102.566 83.7568C102.604 83.8013 102.625 83.858 102.625 83.9167C102.625 83.9753 102.604 84.032 102.566 84.0766C102.528 84.1212 102.475 84.1507 102.417 84.16C102.11 84.1684 101.808 84.2499 101.538 84.3977C101.269 84.5455 101.038 84.7554 100.865 85.0101C100.841 85.0437 100.808 85.0705 100.77 85.0878C100.732 85.1051 100.691 85.1122 100.649 85.1086Z" fill="#263238"/>
<path d="M102.017 88.047C102.349 89.012 102.813 89.9262 103.397 90.7636C103.177 90.9056 102.93 90.9985 102.672 91.0357C102.413 91.0729 102.15 91.0536 101.9 90.9792L102.017 88.047Z" fill="#DE5753"/>
<path d="M101.672 87.32C101.672 87.7389 101.863 88.0839 102.134 88.09C102.405 88.0962 102.639 87.7759 102.657 87.357C102.676 86.9381 102.466 86.5993 102.195 86.587C101.924 86.5747 101.69 86.9073 101.672 87.32Z" fill="#263238"/>
<path d="M102.072 86.6055L103.083 86.3591C103.083 86.3591 102.54 87.1168 102.072 86.6055Z" fill="#263238"/>
<path d="M87.3558 251.004H81.5592C81.459 251 81.3609 251.034 81.2845 251.099C81.208 251.164 81.1588 251.255 81.1465 251.355L80.4874 255.938C80.4733 256.054 80.4843 256.172 80.5195 256.283C80.5547 256.395 80.6134 256.497 80.6916 256.584C80.7697 256.671 80.8656 256.74 80.9728 256.787C81.08 256.834 81.1959 256.857 81.3128 256.856C83.3333 256.825 84.3066 256.702 86.8568 256.702C88.4276 256.702 90.713 256.868 92.8813 256.868C95.0496 256.868 95.1605 254.724 94.2612 254.533C90.2202 253.659 89.5796 252.464 88.2182 251.318C87.9758 251.116 87.671 251.005 87.3558 251.004Z" fill="#263238"/>
<path d="M120.681 249.076L115.328 251.299C115.236 251.335 115.159 251.404 115.114 251.493C115.068 251.581 115.057 251.683 115.082 251.78L116.228 256.27C116.26 256.382 116.316 256.486 116.392 256.575C116.467 256.664 116.561 256.736 116.666 256.786C116.772 256.836 116.886 256.863 117.003 256.866C117.12 256.868 117.235 256.846 117.343 256.8C119.191 255.993 120.053 255.513 122.406 254.533C123.854 253.917 126.915 252.839 128.917 252.008C130.919 251.176 130.199 249.156 129.293 249.322C125.227 250.074 123.293 249.575 121.599 249.039C121.298 248.943 120.974 248.956 120.681 249.076Z" fill="#263238"/>
<path d="M109.027 109.367C110.031 111.732 111.115 114.153 112.212 116.506C112.766 117.689 113.343 118.851 113.943 119.993C114.559 121.138 115.175 122.26 115.791 123.331C116.117 123.861 116.443 124.391 116.782 124.878L117.287 125.58C117.391 125.726 117.509 125.863 117.639 125.986C118.31 126.57 119.149 126.928 120.035 127.009C122.135 127.311 124.772 126.886 127.131 126.251L128.228 128.623C127.604 128.997 126.958 129.333 126.293 129.627C125.639 129.932 124.966 130.195 124.279 130.415C122.83 130.909 121.312 131.168 119.782 131.185C118.929 131.193 118.079 131.081 117.257 130.853C116.344 130.602 115.486 130.184 114.725 129.621C114.335 129.325 113.974 128.993 113.647 128.629C113.37 128.315 113.166 128.05 112.92 127.754C112.458 127.175 112.045 126.59 111.633 126.005C110.098 123.695 108.715 121.287 107.493 118.798C106.261 116.334 105.152 113.87 104.13 111.319L109.027 109.367Z" fill="#EBB376"/>
<path d="M126.601 128.912L132.232 128.025L130.735 124.834C130.735 124.834 126.373 125.592 125.536 127.563L126.601 128.912Z" fill="#EBB376"/>
<path d="M132.225 125.537L131.609 124.175L130.735 124.835L132.225 128.025V125.537Z" fill="#EBB376"/>
<path d="M87.7501 85.3428C87.8609 90.4617 87.7993 92.6301 90.2757 95.3528C93.9717 99.4492 100.267 98.1925 101.684 93.1413C102.959 88.5953 102.559 80.9877 97.643 78.7577C96.5607 78.2615 95.3695 78.0501 94.1825 78.1437C92.9955 78.2373 91.8521 78.6327 90.8609 79.2925C89.8697 79.9523 89.0636 80.8544 88.5192 81.9133C87.9747 82.9723 87.71 84.1528 87.7501 85.3428Z" fill="#EBB376"/>
<path d="M83.623 76.0965C88.8837 72.2835 94.7603 74.4456 97.9758 77.0821C101.339 79.8418 100.803 85.1455 98.7458 87.3385C98.9592 87.6628 99.1005 88.0292 99.16 88.4129C99.2195 88.7966 99.1959 89.1885 99.0908 89.5623C99.3504 91.2034 98.9895 92.8823 98.0784 94.2718C97.1673 95.6612 95.7714 96.6614 94.1628 97.0775L93.8733 97.1514C87.3005 98.716 79.7053 94.2685 78.5595 87.6157C77.8634 83.5563 78.9722 79.4599 83.623 76.0965Z" fill="#263238"/>
<path d="M97.5692 87.7143C97.6534 88.6794 98.0666 89.5862 98.7396 90.283C99.6513 91.2255 100.588 90.6834 100.754 89.5685C100.896 88.5644 100.594 86.8642 99.485 86.3283C98.3762 85.7924 97.4892 86.5747 97.5692 87.7143Z" fill="#EBB376"/>
<path opacity="0.3" d="M91.0518 152C90.4666 162.583 93.0169 170.573 94.1811 175.248C95.0066 168.336 95.7642 161.123 96.3987 154.76C94.2242 147.553 91.4769 144.035 91.0518 152Z" fill="black"/>
<path d="M88.557 244.757H79.5942L79.1199 241.616L88.6063 241.295L88.557 244.757Z" fill="#008080"/>
<path opacity="0.3" d="M79.7915 116.463L82.9023 118.927C82.9023 118.927 83.2288 118.058 83.623 116.814L81.775 107.667L79.7915 116.463Z" fill="black"/>
<path d="M86.5552 76.9528C88.1629 75.1726 93.6269 72.456 98.3146 74.5874C99.6518 75.1964 100.785 76.1782 101.578 77.415C102.371 78.6518 102.791 80.0912 102.787 81.5605L98.561 84.3941L86.5552 76.9528Z" fill="#263238"/>
<path d="M82.2432 81.6282C84.5655 79.7248 87.1712 72.8256 82.2432 75.228C77.3152 77.6304 75.8183 86.895 82.2432 81.6282Z" fill="#008080"/>
<path d="M82.7668 77.2054C83.7709 74.2733 77.1489 68.4397 72.6829 73.9837C68.2169 79.5277 79.8777 85.6446 82.7668 77.2054Z" fill="#263238"/>
<path d="M93.1278 81.2957C89.2778 79.6571 87.362 73.4478 93.9717 73.6265C100.581 73.8051 100.39 84.3941 93.1278 81.2957Z" fill="#008080"/>
<path d="M91.8834 78.0801C89.5488 75.1664 92.1298 67.6758 98.8257 70.0721C105.522 72.4683 97.2426 84.739 91.8834 78.0801Z" fill="#263238"/>
<path d="M103.717 135.442C103.717 135.442 109.532 175.174 111.577 190.808C113.702 207.04 119.912 243.433 119.912 243.433L113.012 244.486C113.012 244.486 102.109 209.775 99.0723 193.974C95.7582 176.757 89.2163 135.454 89.2163 135.454L103.717 135.442Z" fill="#008080"/>
<path opacity="0.6" d="M103.717 135.442C103.717 135.442 109.532 175.174 111.577 190.808C113.702 207.04 119.912 243.433 119.912 243.433L113.012 244.486C113.012 244.486 102.109 209.775 99.0723 193.974C95.7582 176.757 89.2163 135.454 89.2163 135.454L103.717 135.442Z" fill="black"/>
<path d="M106.181 104.303C108.743 104.919 111.904 111.966 111.904 111.966L105.799 119.789C105.799 119.789 99.4911 110.864 100.335 108.141C101.21 105.301 103.07 103.546 106.181 104.303Z" fill="#263238"/>
<path d="M97.8279 103.983C98.6718 104.106 97.8895 102.178 97.5384 101.975C96.7314 101.494 86.4504 100.527 86.5674 101.611C86.6296 102.258 86.9073 102.866 87.3559 103.336C87.8179 103.644 90.4359 102.794 97.8279 103.983Z" fill="#008080"/>
<path opacity="0.6" d="M97.8279 103.983C98.6718 104.106 97.8895 102.178 97.5384 101.975C96.7314 101.494 86.4504 100.527 86.5674 101.611C86.6296 102.258 86.9073 102.866 87.3559 103.336C87.8179 103.644 90.4359 102.794 97.8279 103.983Z" fill="white"/>
<path d="M106.181 104.303C106.181 104.303 108.645 105.166 103.717 135.442H82.7729C83.124 126.917 83.1363 121.656 79.0769 104.149C82.0096 103.544 84.9825 103.153 87.9719 102.979C91.1402 102.751 94.3208 102.751 97.4891 102.979C101.524 103.336 106.181 104.303 106.181 104.303Z" fill="#263238"/>
<path d="M82.428 134.216L81.4856 136.064C81.4116 136.212 81.5841 136.36 81.8244 136.36H103.803C103.988 136.36 104.148 136.267 104.161 136.144L104.345 134.296C104.345 134.167 104.197 134.056 103.988 134.056H82.7853C82.7167 134.047 82.6469 134.057 82.5837 134.085C82.5206 134.113 82.4666 134.159 82.428 134.216Z" fill="#008080"/>
<path opacity="0.6" d="M82.428 134.216L81.4856 136.064C81.4116 136.212 81.5841 136.36 81.8244 136.36H103.803C103.988 136.36 104.148 136.267 104.161 136.144L104.345 134.296C104.345 134.167 104.197 134.056 103.988 134.056H82.7853C82.7167 134.047 82.6469 134.057 82.5837 134.085C82.5206 134.113 82.4666 134.159 82.428 134.216Z" fill="white"/>
<path d="M85.2986 136.6H84.7257C84.6148 136.6 84.5286 136.538 84.5347 136.471L84.8058 134.007C84.8058 133.933 84.9105 133.877 85.0214 133.877H85.5943C85.7051 133.877 85.7914 133.933 85.7852 134.007L85.5142 136.471C85.508 136.526 85.4095 136.6 85.2986 136.6Z" fill="#008080"/>
<path d="M99.0599 136.6H98.4932C98.3761 136.6 98.2899 136.538 98.3022 136.471L98.5671 134.007C98.5671 133.933 98.6718 133.877 98.7888 133.877H99.3556C99.4664 133.877 99.5527 133.933 99.5465 134.007L99.2816 136.471C99.2816 136.526 99.1831 136.6 99.0599 136.6Z" fill="#008080"/>
<path opacity="0.6" d="M85.2986 136.6H84.7257C84.6148 136.6 84.5286 136.538 84.5347 136.471L84.8058 134.007C84.8058 133.933 84.9105 133.877 85.0214 133.877H85.5943C85.7051 133.877 85.7914 133.933 85.7852 134.007L85.5142 136.471C85.508 136.526 85.4095 136.6 85.2986 136.6Z" fill="black"/>
<path opacity="0.6" d="M99.0599 136.6H98.4932C98.3761 136.6 98.2899 136.538 98.3022 136.471L98.5671 134.007C98.5671 133.933 98.6718 133.877 98.7888 133.877H99.3556C99.4664 133.877 99.5527 133.933 99.5465 134.007L99.2816 136.471C99.2816 136.526 99.1831 136.6 99.0599 136.6Z" fill="black"/>
<path d="M120.928 243.433L112.094 244.936L111.09 241.603L120.546 239.983L120.928 243.433Z" fill="#008080"/>
<path d="M208.96 71.4642C204.262 63.9405 197.438 57.9789 189.351 54.3334C181.265 50.6878 172.279 49.522 163.529 50.9833C154.78 52.4447 146.661 56.4675 140.198 62.5432C133.735 68.6189 129.219 76.4746 127.22 85.1169C125.222 93.7592 125.831 102.8 128.971 111.096C132.11 119.392 137.639 126.571 144.859 131.725C152.078 136.879 160.664 139.776 169.53 140.051C178.396 140.325 187.145 137.965 194.669 133.268C199.666 130.148 203.999 126.075 207.422 121.281C210.845 116.487 213.289 111.065 214.616 105.326C215.943 99.5869 216.127 93.6426 215.157 87.8326C214.186 82.0225 212.081 76.4605 208.96 71.4642ZM140.899 113.968C137.192 108.031 135.33 101.128 135.547 94.132C135.764 87.1362 138.05 80.3618 142.117 74.6654C146.184 68.969 151.849 64.6065 158.395 62.1295C164.941 59.6525 172.075 59.1723 178.894 60.7496C185.713 62.3269 191.911 65.8909 196.705 70.9908C201.499 76.0908 204.673 82.4976 205.825 89.4013C206.978 96.305 206.057 103.395 203.18 109.776C200.303 116.156 195.598 121.54 189.661 125.247C185.718 127.708 181.33 129.369 176.745 130.134C172.161 130.898 167.471 130.753 162.942 129.705C158.414 128.657 154.137 126.727 150.355 124.026C146.572 121.325 143.359 117.905 140.899 113.962V113.968Z" fill="#008080"/>
<path d="M208.96 71.4642C204.262 63.9405 197.438 57.9789 189.351 54.3334C181.265 50.6878 172.279 49.522 163.529 50.9833C154.78 52.4447 146.661 56.4675 140.198 62.5432C133.735 68.6189 129.219 76.4746 127.22 85.1169C125.222 93.7592 125.831 102.8 128.971 111.096C132.11 119.392 137.639 126.571 144.859 131.725C152.078 136.879 160.664 139.776 169.53 140.051C178.396 140.325 187.145 137.965 194.669 133.268C199.666 130.148 203.999 126.075 207.422 121.281C210.845 116.487 213.289 111.065 214.616 105.326C215.943 99.5869 216.127 93.6426 215.157 87.8326C214.186 82.0225 212.081 76.4605 208.96 71.4642ZM140.899 113.968C137.192 108.031 135.33 101.128 135.547 94.132C135.764 87.1362 138.05 80.3618 142.117 74.6654C146.184 68.969 151.849 64.6065 158.395 62.1295C164.941 59.6525 172.075 59.1723 178.894 60.7496C185.713 62.3269 191.911 65.8909 196.705 70.9908C201.499 76.0908 204.673 82.4976 205.825 89.4013C206.978 96.305 206.057 103.395 203.18 109.776C200.303 116.156 195.598 121.54 189.661 125.247C185.718 127.708 181.33 129.369 176.745 130.134C172.161 130.898 167.471 130.753 162.942 129.705C158.414 128.657 154.137 126.727 150.355 124.026C146.572 121.325 143.359 117.905 140.899 113.962V113.968Z" fill="#008080"/>
<path opacity="0.5" d="M208.96 71.4642C204.262 63.9405 197.438 57.9789 189.351 54.3334C181.265 50.6878 172.279 49.522 163.529 50.9833C154.78 52.4447 146.661 56.4675 140.198 62.5432C133.735 68.6189 129.219 76.4746 127.22 85.1169C125.222 93.7592 125.831 102.8 128.971 111.096C132.11 119.392 137.639 126.571 144.859 131.725C152.078 136.879 160.664 139.776 169.53 140.051C178.396 140.325 187.145 137.965 194.669 133.268C199.666 130.148 203.999 126.075 207.422 121.281C210.845 116.487 213.289 111.065 214.616 105.326C215.943 99.5869 216.127 93.6426 215.157 87.8326C214.186 82.0225 212.081 76.4605 208.96 71.4642ZM140.899 113.968C137.192 108.031 135.33 101.128 135.547 94.132C135.764 87.1362 138.05 80.3618 142.117 74.6654C146.184 68.969 151.849 64.6065 158.395 62.1295C164.941 59.6525 172.075 59.1723 178.894 60.7496C185.713 62.3269 191.911 65.8909 196.705 70.9908C201.499 76.0908 204.673 82.4976 205.825 89.4013C206.978 96.305 206.057 103.395 203.18 109.776C200.303 116.156 195.598 121.54 189.661 125.247C185.718 127.708 181.33 129.369 176.745 130.134C172.161 130.898 167.471 130.753 162.942 129.705C158.414 128.657 154.137 126.727 150.355 124.026C146.572 121.325 143.359 117.905 140.899 113.962V113.968Z" fill="white"/>
<path opacity="0.2" d="M203.903 74.6243C207.975 81.1487 210.021 88.7339 209.782 96.4209C209.543 104.108 207.03 111.551 202.561 117.81C198.092 124.07 191.868 128.863 184.675 131.585C177.482 134.306 169.643 134.834 162.15 133.101C154.657 131.368 147.847 127.453 142.579 121.849C137.311 116.246 133.823 109.206 132.556 101.621C131.289 94.0352 132.299 86.2441 135.46 79.2328C138.62 72.2214 143.788 66.3046 150.311 62.2303C154.644 59.5243 159.467 57.6983 164.505 56.8566C169.543 56.0149 174.698 56.1741 179.675 57.3251C184.651 58.476 189.353 60.5962 193.51 63.5644C197.667 66.5326 201.199 70.2908 203.903 74.6243Z" fill="#FAFAFA"/>
<path opacity="0.1" d="M209.429 89.7163L149.061 127.403C144.138 124.063 140.047 119.637 137.104 114.467L203.016 73.3123C206.379 78.2182 208.573 83.83 209.429 89.7163Z" fill="#E6E6E6"/>
</g>
<defs>
<clipPath id="clip0_122_1144">
<rect width="308" height="308" fill="white" transform="translate(0.5 0.464111)"/>
</clipPath>
</defs>
</svg>
