<svg width="10" height="12" viewBox="0 0 10 12" fill="none" xmlns="http://www.w3.org/2000/svg">
<path d="M5.0709 0.241466C6.29993 0.246915 7.47458 0.736352 8.33381 1.59558C9.19848 2.46026 9.68248 3.62947 9.67709 4.84218V4.86937C9.64441 6.51714 8.71992 8.0344 7.56703 9.21992C6.91445 9.88882 6.19117 10.4816 5.40263 10.9819C5.19054 11.1614 4.88056 11.1614 4.66848 10.9819C3.49927 10.2205 2.46601 9.26343 1.62853 8.1486C0.894375 7.1806 0.475634 6.01683 0.432129 4.80411C0.443005 2.27536 2.52039 0.236039 5.0709 0.241466ZM5.0709 3.46632C4.26061 3.46632 3.60803 4.11347 3.60803 4.91832C3.60803 5.71284 4.24974 6.354 5.05459 6.36487H5.0709C5.45701 6.36487 5.82681 6.21804 6.09872 5.95157C6.3815 5.67422 6.53975 5.30497 6.53975 4.91832C6.53975 4.11347 5.88119 3.46632 5.0709 3.46632Z" fill="#008080"/>
</svg>
