<svg width="167" height="119" viewBox="0 0 167 119" fill="none" xmlns="http://www.w3.org/2000/svg">
<path d="M19.5127 85.7189H12.168V81.4883H19.5127C20.714 81.4883 21.6868 81.2925 22.4311 80.9007C23.1884 80.496 23.7433 79.9476 24.0959 79.2555C24.4484 78.5504 24.6247 77.7474 24.6247 76.8465C24.6247 75.9716 24.4484 75.1555 24.0959 74.3982C23.7433 73.6409 23.1884 73.0272 22.4311 72.5571C21.6868 72.0871 20.714 71.852 19.5127 71.852H13.9308V96.119H8.54462V67.6019H19.5127C21.7325 67.6019 23.6258 68.0001 25.1927 68.7966C26.7726 69.5801 27.9739 70.6704 28.7965 72.0675C29.6321 73.4516 30.05 75.0315 30.05 76.8073C30.05 78.6484 29.6321 80.2348 28.7965 81.5667C27.9739 82.8985 26.7726 83.9235 25.1927 84.6417C23.6258 85.3598 21.7325 85.7189 19.5127 85.7189ZM39.0595 79.2555V96.119H33.8888V74.927H38.7853L39.0595 79.2555ZM45.5033 74.7899L45.4249 79.6081C45.1377 79.5558 44.8112 79.5167 44.4456 79.4906C44.0931 79.4644 43.7601 79.4514 43.4468 79.4514C42.6503 79.4514 41.9517 79.5624 41.3511 79.7843C40.7504 79.9933 40.2477 80.3001 39.843 80.7049C39.4512 81.1097 39.1509 81.6058 38.942 82.1934C38.7331 82.7679 38.6156 83.4208 38.5894 84.152L37.4731 84.0149C37.4731 82.67 37.6102 81.423 37.8844 80.274C38.1586 79.125 38.5568 78.1195 39.0791 77.2578C39.6014 76.396 40.2543 75.7301 41.0377 75.26C41.8342 74.7769 42.7482 74.5353 43.7797 74.5353C44.067 74.5353 44.3738 74.5614 44.7003 74.6137C45.0398 74.6528 45.3074 74.7116 45.5033 74.7899ZM46.8743 85.7385V85.3272C46.8743 83.7733 47.0963 82.3436 47.5402 81.0378C47.9842 79.7191 48.6305 78.5765 49.4792 77.6103C50.328 76.6441 51.366 75.8933 52.5934 75.3579C53.8208 74.8095 55.2179 74.5353 56.7848 74.5353C58.3778 74.5353 59.788 74.8095 61.0154 75.3579C62.2558 75.8933 63.3004 76.6441 64.1491 77.6103C64.9978 78.5765 65.6442 79.7191 66.0881 81.0378C66.5321 82.3436 66.754 83.7733 66.754 85.3272V85.7385C66.754 87.2792 66.5321 88.709 66.0881 90.0278C65.6442 91.3335 64.9978 92.476 64.1491 93.4553C63.3004 94.4216 62.2623 95.1724 61.0349 95.7077C59.8076 96.2431 58.4039 96.5107 56.824 96.5107C55.2571 96.5107 53.8534 96.2431 52.613 95.7077C51.3725 95.1724 50.328 94.4216 49.4792 93.4553C48.6305 92.476 47.9842 91.3335 47.5402 90.0278C47.0963 88.709 46.8743 87.2792 46.8743 85.7385ZM52.045 85.3272V85.7385C52.045 86.6655 52.1364 87.5338 52.3192 88.3434C52.502 89.153 52.7827 89.8646 53.1614 90.4783C53.5401 91.092 54.0297 91.5751 54.6303 91.9276C55.244 92.2671 55.9752 92.4369 56.824 92.4369C57.6596 92.4369 58.3778 92.2671 58.9784 91.9276C59.579 91.5751 60.0687 91.092 60.4474 90.4783C60.8391 89.8646 61.1263 89.153 61.3091 88.3434C61.4919 87.5338 61.5833 86.6655 61.5833 85.7385V85.3272C61.5833 84.4132 61.4919 83.5579 61.3091 82.7614C61.1263 81.9519 60.8391 81.2402 60.4474 80.6265C60.0687 79.9998 59.5725 79.5101 58.9588 79.1576C58.3582 78.792 57.6335 78.6092 56.7848 78.6092C55.9491 78.6092 55.231 78.792 54.6303 79.1576C54.0297 79.5101 53.5401 79.9998 53.1614 80.6265C52.7827 81.2402 52.502 81.9519 52.3192 82.7614C52.1364 83.5579 52.045 84.4132 52.045 85.3272ZM75.6852 79.0009V104.267H70.4949V74.927H75.2935L75.6852 79.0009ZM89.2974 85.3076V85.7189C89.2974 87.2596 89.1146 88.6894 88.749 90.0082C88.3965 91.3139 87.8742 92.4564 87.1822 93.4357C86.4901 94.402 85.6284 95.1593 84.5968 95.7077C83.5784 96.2431 82.4032 96.5107 81.0714 96.5107C79.7656 96.5107 78.6296 96.2626 77.6634 95.7665C76.6972 95.2572 75.8811 94.5391 75.2152 93.612C74.5492 92.685 74.0139 91.6077 73.6091 90.3803C73.2174 89.1399 72.9236 87.7885 72.7277 86.326V85.0138C72.9236 83.46 73.2174 82.0498 73.6091 80.7832C74.0139 79.5036 74.5492 78.4003 75.2152 77.4732C75.8811 76.5331 76.6906 75.8084 77.6438 75.2992C78.6101 74.7899 79.7395 74.5353 81.0322 74.5353C82.3771 74.5353 83.5588 74.7899 84.5772 75.2992C85.6088 75.8084 86.4771 76.5396 87.1822 77.4928C87.8873 78.446 88.4161 79.582 88.7686 80.9007C89.1212 82.2195 89.2974 83.6885 89.2974 85.3076ZM84.1072 85.7189V85.3076C84.1072 84.3675 84.0223 83.4991 83.8526 82.7027C83.6828 81.8931 83.4217 81.188 83.0691 80.5874C82.7166 79.9737 82.2596 79.4971 81.6981 79.1576C81.1366 78.8181 80.4577 78.6484 79.6612 78.6484C78.8647 78.6484 78.1792 78.7789 77.6046 79.0401C77.0301 79.3012 76.5601 79.6734 76.1945 80.1565C75.8289 80.6396 75.5416 81.2141 75.3327 81.88C75.1368 82.5329 75.0062 83.2576 74.941 84.0541V87.3053C75.0585 88.2716 75.287 89.1399 75.6265 89.9103C75.966 90.6807 76.4621 91.2943 77.115 91.7514C77.7809 92.2084 78.6427 92.4369 79.7003 92.4369C80.4968 92.4369 81.1758 92.2606 81.7373 91.908C82.2987 91.5555 82.7557 91.0724 83.1083 90.4587C83.4608 89.8319 83.7155 89.1138 83.8721 88.3042C84.0288 87.4947 84.1072 86.6329 84.1072 85.7189ZM102.596 96.5107C100.99 96.5107 99.5474 96.2496 98.2678 95.7273C96.9882 95.205 95.8979 94.4803 94.997 93.5533C94.1091 92.6131 93.4235 91.5229 92.9404 90.2824C92.4704 89.0289 92.2353 87.684 92.2353 86.2477V85.4643C92.2353 83.8321 92.4704 82.3501 92.9404 81.0183C93.4105 79.6734 94.0764 78.5178 94.9382 77.5515C95.8 76.5853 96.8315 75.841 98.0328 75.3188C99.234 74.7965 100.559 74.5353 102.009 74.5353C103.51 74.5353 104.836 74.7899 105.985 75.2992C107.134 75.7953 108.093 76.5004 108.864 77.4144C109.634 78.3285 110.215 79.4253 110.607 80.7049C110.999 81.9714 111.195 83.3751 111.195 84.9159V87.0899H94.5856V83.5253H106.102V83.1335C106.076 82.3109 105.919 81.5601 105.632 80.8812C105.345 80.1891 104.901 79.6407 104.3 79.2359C103.7 78.8181 102.923 78.6092 101.97 78.6092C101.199 78.6092 100.527 78.7789 99.9522 79.1184C99.3907 79.4449 98.9207 79.9149 98.542 80.5286C98.1764 81.1292 97.9022 81.8474 97.7194 82.6831C97.5366 83.5187 97.4452 84.4458 97.4452 85.4643V86.2477C97.4452 87.1356 97.5627 87.9582 97.7977 88.7155C98.0458 89.4729 98.4049 90.1322 98.875 90.6937C99.3581 91.2421 99.9326 91.673 100.599 91.9864C101.278 92.2867 102.048 92.4369 102.91 92.4369C103.993 92.4369 104.973 92.2279 105.848 91.8101C106.735 91.3792 107.506 90.7459 108.159 89.9103L110.764 92.6131C110.32 93.266 109.719 93.8928 108.962 94.4934C108.217 95.094 107.317 95.5837 106.259 95.9623C105.201 96.3279 103.98 96.5107 102.596 96.5107ZM119.832 79.2555V96.119H114.661V74.927H119.558L119.832 79.2555ZM126.276 74.7899L126.197 79.6081C125.91 79.5558 125.584 79.5167 125.218 79.4906C124.866 79.4644 124.533 79.4514 124.219 79.4514C123.423 79.4514 122.724 79.5624 122.123 79.7843C121.523 79.9933 121.02 80.3001 120.615 80.7049C120.224 81.1097 119.923 81.6058 119.714 82.1934C119.505 82.7679 119.388 83.4208 119.362 84.152L118.245 84.0149C118.245 82.67 118.383 81.423 118.657 80.274C118.931 79.125 119.329 78.1195 119.852 77.2578C120.374 76.396 121.027 75.7301 121.81 75.26C122.607 74.7769 123.521 74.5353 124.552 74.5353C124.839 74.5353 125.146 74.5614 125.473 74.6137C125.812 74.6528 126.08 74.7116 126.276 74.7899ZM140.123 74.927V78.6484H127.98V74.927H140.123ZM131.231 69.7172H136.421V90.0082C136.421 90.635 136.506 91.1181 136.676 91.4576C136.846 91.7971 137.1 92.0256 137.44 92.1431C137.779 92.2606 138.184 92.3193 138.654 92.3193C138.994 92.3193 139.307 92.2998 139.594 92.2606C139.881 92.2214 140.123 92.1822 140.319 92.1431L140.338 96.0211C139.908 96.1647 139.418 96.2822 138.869 96.3736C138.334 96.465 137.727 96.5107 137.048 96.5107C135.886 96.5107 134.867 96.3149 133.993 95.9232C133.118 95.5184 132.439 94.872 131.956 93.9842C131.472 93.0832 131.231 91.895 131.231 90.4195V69.7172ZM149.779 93.7687L155.459 74.927H161.002L152.501 99.3311C152.305 99.8534 152.051 100.421 151.737 101.035C151.437 101.649 151.032 102.23 150.523 102.778C150.014 103.34 149.374 103.797 148.604 104.149C147.846 104.502 146.926 104.678 145.842 104.678C145.372 104.678 144.954 104.645 144.589 104.58C144.223 104.515 143.838 104.43 143.433 104.326V100.448C143.564 100.461 143.714 100.467 143.883 100.467C144.066 100.48 144.223 100.487 144.354 100.487C145.111 100.487 145.738 100.395 146.234 100.212C146.73 100.043 147.128 99.762 147.429 99.3703C147.742 98.9916 148.003 98.4954 148.212 97.8818L149.779 93.7687ZM146.978 74.927L151.777 90.537L152.619 96.0015L149.054 96.6478L141.396 74.927H146.978Z" fill="white"/>
<path d="M12.2106 107.067V115.215H10.6717V107.067H12.2106ZM25.0661 110.453V115.215H23.5888V109.16H24.9766L25.0661 110.453ZM24.8311 111.969H24.3946C24.3983 111.529 24.458 111.13 24.5737 110.772C24.6893 110.414 24.8516 110.106 25.0605 109.849C25.2732 109.591 25.525 109.393 25.816 109.255C26.107 109.117 26.4315 109.048 26.7897 109.048C27.0807 109.048 27.3437 109.089 27.5787 109.171C27.8137 109.254 28.0152 109.384 28.1831 109.563C28.3547 109.742 28.4852 109.977 28.5748 110.268C28.668 110.555 28.7147 110.91 28.7147 111.331V115.215H27.2262V111.32C27.2262 111.044 27.1851 110.826 27.103 110.666C27.0247 110.505 26.909 110.391 26.7561 110.324C26.6069 110.257 26.4222 110.223 26.2021 110.223C25.9745 110.223 25.7749 110.27 25.6033 110.363C25.4354 110.453 25.2937 110.578 25.178 110.738C25.0661 110.899 24.9803 111.083 24.9206 111.292C24.8609 111.501 24.8311 111.727 24.8311 111.969ZM43.2042 113.559C43.2042 113.432 43.1707 113.318 43.1035 113.217C43.0364 113.117 42.9095 113.025 42.723 112.943C42.5402 112.857 42.2716 112.777 41.9172 112.702C41.6038 112.635 41.3147 112.551 41.0498 112.451C40.7849 112.35 40.5573 112.229 40.3671 112.087C40.1768 111.941 40.0276 111.772 39.9194 111.578C39.8149 111.38 39.7627 111.152 39.7627 110.895C39.7627 110.645 39.8168 110.41 39.925 110.19C40.0332 109.966 40.1899 109.77 40.3951 109.602C40.6003 109.431 40.8502 109.296 41.1449 109.199C41.4396 109.099 41.7717 109.048 42.141 109.048C42.6558 109.048 43.0979 109.132 43.4673 109.3C43.8403 109.468 44.1257 109.699 44.3234 109.994C44.5212 110.285 44.62 110.613 44.62 110.979H43.1427C43.1427 110.819 43.1054 110.673 43.0308 110.542C42.9599 110.412 42.8498 110.307 42.7006 110.229C42.5514 110.147 42.363 110.106 42.1354 110.106C41.9302 110.106 41.7568 110.14 41.615 110.207C41.477 110.274 41.3725 110.362 41.3016 110.47C41.2307 110.578 41.1953 110.697 41.1953 110.828C41.1953 110.925 41.2139 111.013 41.2513 111.091C41.2923 111.165 41.3576 111.234 41.4471 111.298C41.5366 111.361 41.6579 111.419 41.8108 111.471C41.9675 111.524 42.1597 111.574 42.3872 111.622C42.8386 111.712 43.2322 111.831 43.568 111.981C43.9075 112.126 44.1724 112.32 44.3626 112.563C44.5529 112.805 44.648 113.115 44.648 113.492C44.648 113.76 44.5902 114.006 44.4745 114.23C44.3589 114.45 44.191 114.642 43.9709 114.807C43.7508 114.971 43.4878 115.099 43.1819 115.193C42.876 115.282 42.5309 115.327 42.1466 115.327C41.5907 115.327 41.1207 115.228 40.7364 115.03C40.3522 114.829 40.0612 114.575 39.8634 114.269C39.6657 113.96 39.5669 113.639 39.5669 113.307H40.9826C40.9938 113.542 41.0573 113.73 41.1729 113.872C41.2886 114.014 41.4341 114.116 41.6094 114.18C41.7885 114.24 41.9769 114.269 42.1746 114.269C42.3984 114.269 42.5868 114.24 42.7398 114.18C42.8927 114.116 43.0084 114.032 43.0867 113.928C43.1651 113.82 43.2042 113.697 43.2042 113.559ZM57.1062 110.324V117.543H55.6233V109.16H56.9943L57.1062 110.324ZM60.9954 112.126V112.244C60.9954 112.684 60.9432 113.092 60.8388 113.469C60.738 113.842 60.5888 114.169 60.3911 114.448C60.1934 114.725 59.9471 114.941 59.6524 115.098C59.3614 115.251 59.0257 115.327 58.6451 115.327C58.2721 115.327 57.9475 115.256 57.6714 115.114C57.3954 114.969 57.1622 114.764 56.9719 114.499C56.7817 114.234 56.6287 113.926 56.5131 113.575C56.4011 113.221 56.3172 112.835 56.2612 112.417V112.042C56.3172 111.598 56.4011 111.195 56.5131 110.833C56.6287 110.468 56.7817 110.153 56.9719 109.888C57.1622 109.619 57.3935 109.412 57.6658 109.267C57.9419 109.121 58.2646 109.048 58.6339 109.048C59.0182 109.048 59.3558 109.121 59.6468 109.267C59.9415 109.412 60.1896 109.621 60.3911 109.893C60.5925 110.166 60.7436 110.49 60.8444 110.867C60.9451 111.244 60.9954 111.664 60.9954 112.126ZM59.5125 112.244V112.126C59.5125 111.857 59.4883 111.609 59.4398 111.382C59.3913 111.151 59.3166 110.949 59.2159 110.777C59.1152 110.602 58.9846 110.466 58.8242 110.369C58.6638 110.272 58.4698 110.223 58.2422 110.223C58.0147 110.223 57.8188 110.261 57.6546 110.335C57.4905 110.41 57.3562 110.516 57.2517 110.654C57.1473 110.792 57.0652 110.957 57.0055 111.147C56.9495 111.333 56.9122 111.54 56.8936 111.768V112.697C56.9272 112.973 56.9925 113.221 57.0894 113.441C57.1864 113.661 57.3282 113.837 57.5147 113.967C57.705 114.098 57.9512 114.163 58.2534 114.163C58.481 114.163 58.675 114.113 58.8354 114.012C58.9958 113.911 59.1264 113.773 59.2271 113.598C59.3278 113.419 59.4006 113.214 59.4454 112.982C59.4901 112.751 59.5125 112.505 59.5125 112.244ZM74.6512 115.327C74.1923 115.327 73.7801 115.252 73.4145 115.103C73.0489 114.954 72.7374 114.747 72.48 114.482C72.2263 114.213 72.0304 113.902 71.8924 113.547C71.7581 113.189 71.6909 112.805 71.6909 112.395V112.171C71.6909 111.705 71.7581 111.281 71.8924 110.901C72.0267 110.516 72.217 110.186 72.4632 109.91C72.7094 109.634 73.0041 109.421 73.3473 109.272C73.6906 109.123 74.0692 109.048 74.4833 109.048C74.9124 109.048 75.291 109.121 75.6193 109.267C75.9476 109.408 76.2218 109.61 76.4419 109.871C76.662 110.132 76.828 110.445 76.94 110.811C77.0519 111.173 77.1078 111.574 77.1078 112.014V112.635H72.3625V111.617H75.6529V111.505C75.6454 111.27 75.6007 111.055 75.5186 110.861C75.4365 110.664 75.3097 110.507 75.1381 110.391C74.9665 110.272 74.7445 110.212 74.4721 110.212C74.252 110.212 74.0599 110.261 73.8958 110.358C73.7353 110.451 73.601 110.585 73.4928 110.761C73.3884 110.932 73.31 111.137 73.2578 111.376C73.2056 111.615 73.1795 111.88 73.1795 112.171V112.395C73.1795 112.648 73.213 112.883 73.2802 113.1C73.3511 113.316 73.4537 113.505 73.588 113.665C73.726 113.822 73.8902 113.945 74.0804 114.034C74.2744 114.12 74.4945 114.163 74.7407 114.163C75.0504 114.163 75.3302 114.103 75.5801 113.984C75.8338 113.861 76.0539 113.68 76.2405 113.441L76.9847 114.213C76.8579 114.4 76.6863 114.579 76.4699 114.751C76.2573 114.922 75.9998 115.062 75.6977 115.17C75.3955 115.275 75.0467 115.327 74.6512 115.327ZM90.439 114.163C90.648 114.163 90.8345 114.122 90.9986 114.04C91.1628 113.958 91.2934 113.842 91.3904 113.693C91.4911 113.544 91.5452 113.37 91.5526 113.173H92.946C92.9386 113.583 92.8229 113.95 92.5991 114.275C92.3753 114.6 92.0768 114.857 91.7037 115.047C91.3344 115.234 90.9203 115.327 90.4614 115.327C89.9951 115.327 89.5885 115.249 89.2415 115.092C88.8946 114.935 88.6054 114.717 88.3741 114.437C88.1466 114.157 87.9749 113.833 87.8593 113.464C87.7474 113.094 87.6914 112.699 87.6914 112.277V112.098C87.6914 111.677 87.7474 111.281 87.8593 110.912C87.9749 110.542 88.1466 110.218 88.3741 109.938C88.6054 109.658 88.8946 109.44 89.2415 109.283C89.5885 109.127 89.9932 109.048 90.4558 109.048C90.9445 109.048 91.3736 109.143 91.7429 109.334C92.116 109.524 92.407 109.793 92.6159 110.14C92.8285 110.486 92.9386 110.895 92.946 111.365H91.5526C91.5452 111.149 91.4967 110.955 91.4071 110.783C91.3176 110.611 91.1908 110.473 91.0266 110.369C90.8625 110.265 90.6629 110.212 90.4279 110.212C90.1779 110.212 89.969 110.265 89.8011 110.369C89.637 110.473 89.5082 110.617 89.415 110.8C89.3254 110.979 89.262 111.18 89.2247 111.404C89.1911 111.624 89.1744 111.856 89.1744 112.098V112.277C89.1744 112.523 89.1911 112.758 89.2247 112.982C89.262 113.206 89.3254 113.408 89.415 113.587C89.5082 113.762 89.637 113.902 89.8011 114.006C89.969 114.111 90.1816 114.163 90.439 114.163ZM106.652 109.16V110.223H103.183V109.16H106.652ZM104.112 107.672H105.595V113.469C105.595 113.648 105.619 113.786 105.667 113.883C105.716 113.98 105.789 114.046 105.886 114.079C105.983 114.113 106.098 114.129 106.232 114.129C106.329 114.129 106.419 114.124 106.501 114.113C106.583 114.101 106.652 114.09 106.708 114.079L106.714 115.187C106.591 115.228 106.451 115.262 106.294 115.288C106.141 115.314 105.968 115.327 105.774 115.327C105.442 115.327 105.151 115.271 104.901 115.159C104.651 115.043 104.457 114.859 104.319 114.605C104.181 114.348 104.112 114.008 104.112 113.587V107.672ZM119.06 109.16V115.215H117.577V109.16H119.06ZM117.476 107.577C117.476 107.356 117.551 107.174 117.7 107.028C117.853 106.883 118.058 106.81 118.316 106.81C118.573 106.81 118.776 106.883 118.926 107.028C119.079 107.174 119.155 107.356 119.155 107.577C119.155 107.793 119.079 107.974 118.926 108.119C118.776 108.265 118.573 108.338 118.316 108.338C118.058 108.338 117.853 108.265 117.7 108.119C117.551 107.974 117.476 107.793 117.476 107.577ZM130.063 112.249V112.132C130.063 111.688 130.127 111.279 130.254 110.906C130.38 110.529 130.565 110.203 130.808 109.927C131.05 109.651 131.347 109.436 131.697 109.283C132.048 109.127 132.447 109.048 132.895 109.048C133.35 109.048 133.753 109.127 134.104 109.283C134.458 109.436 134.756 109.651 134.999 109.927C135.241 110.203 135.426 110.529 135.553 110.906C135.68 111.279 135.743 111.688 135.743 112.132V112.249C135.743 112.689 135.68 113.098 135.553 113.475C135.426 113.848 135.241 114.174 134.999 114.454C134.756 114.73 134.46 114.945 134.109 115.098C133.759 115.251 133.357 115.327 132.906 115.327C132.458 115.327 132.057 115.251 131.703 115.098C131.349 114.945 131.05 114.73 130.808 114.454C130.565 114.174 130.38 113.848 130.254 113.475C130.127 113.098 130.063 112.689 130.063 112.249ZM131.541 112.132V112.249C131.541 112.514 131.567 112.762 131.619 112.993C131.671 113.225 131.751 113.428 131.86 113.603C131.968 113.779 132.108 113.917 132.279 114.018C132.455 114.115 132.664 114.163 132.906 114.163C133.145 114.163 133.35 114.115 133.522 114.018C133.693 113.917 133.833 113.779 133.941 113.603C134.053 113.428 134.135 113.225 134.188 112.993C134.24 112.762 134.266 112.514 134.266 112.249V112.132C134.266 111.871 134.24 111.626 134.188 111.399C134.135 111.167 134.053 110.964 133.941 110.789C133.833 110.61 133.691 110.47 133.516 110.369C133.344 110.265 133.137 110.212 132.895 110.212C132.656 110.212 132.451 110.265 132.279 110.369C132.108 110.47 131.968 110.61 131.86 110.789C131.751 110.964 131.671 111.167 131.619 111.399C131.567 111.626 131.541 111.871 131.541 112.132ZM148.123 110.453V115.215H146.646V109.16H148.034L148.123 110.453ZM147.888 111.969H147.452C147.455 111.529 147.515 111.13 147.631 110.772C147.746 110.414 147.909 110.106 148.117 109.849C148.33 109.591 148.582 109.393 148.873 109.255C149.164 109.117 149.489 109.048 149.847 109.048C150.138 109.048 150.401 109.089 150.636 109.171C150.871 109.254 151.072 109.384 151.24 109.563C151.412 109.742 151.542 109.977 151.632 110.268C151.725 110.555 151.772 110.91 151.772 111.331V115.215H150.283V111.32C150.283 111.044 150.242 110.826 150.16 110.666C150.082 110.505 149.966 110.391 149.813 110.324C149.664 110.257 149.479 110.223 149.259 110.223C149.032 110.223 148.832 110.27 148.66 110.363C148.492 110.453 148.351 110.578 148.235 110.738C148.123 110.899 148.037 111.083 147.978 111.292C147.918 111.501 147.888 111.727 147.888 111.969Z" fill="white"/>
<path d="M74.2365 51.6357L71.1096 47.9281L80.2223 40.3342L96.7502 52.0378V49.3576H104.389V58.2022L116.494 67.1362H107.248L80.2223 47.0347L74.2365 51.6357Z" fill="#4B4B4B"/>
<path d="M62.7562 52.7973L66.9999 51.9486L68.9207 54.5395L66.9999 57.6664L52.7055 68.1191L49.4446 63.7415L62.7562 52.7973Z" fill="white" stroke="white" stroke-width="0.829087" stroke-linecap="round" stroke-linejoin="round"/>
<mask id="path-5-inside-1_122_1067" fill="white">
<path d="M96.4056 49.0815C97.6429 45.4137 97.5389 41.4259 96.1121 37.8276C94.6853 34.2293 92.0282 31.2539 88.6136 29.4308C85.199 27.6076 81.2483 27.055 77.4645 27.8712C73.6806 28.6874 70.3091 30.8195 67.9497 33.8881C65.5902 36.9568 64.396 40.763 64.5794 44.6295C64.7628 48.496 66.312 52.172 68.9513 55.0036C71.5905 57.8351 75.1488 59.6385 78.9929 60.0929C82.837 60.5473 86.7176 59.6232 89.9443 57.485L88.1574 54.7884C85.5691 56.5036 82.4562 57.2449 79.3726 56.8804C76.289 56.5159 73.4347 55.0693 71.3176 52.7979C69.2005 50.5266 67.9578 47.5778 67.8107 44.4762C67.6635 41.3746 68.6215 38.3215 70.5142 35.8599C72.4068 33.3984 75.1113 31.6881 78.1466 31.0333C81.1818 30.3786 84.3509 30.8219 87.09 32.2844C89.829 33.7468 91.9605 36.1336 93.105 39.02C94.2495 41.9064 94.3329 45.1053 93.3404 48.0474L96.4056 49.0815Z"/>
</mask>
<path d="M96.4056 49.0815C97.6429 45.4137 97.5389 41.4259 96.1121 37.8276C94.6853 34.2293 92.0282 31.2539 88.6136 29.4308C85.199 27.6076 81.2483 27.055 77.4645 27.8712C73.6806 28.6874 70.3091 30.8195 67.9497 33.8881C65.5902 36.9568 64.396 40.763 64.5794 44.6295C64.7628 48.496 66.312 52.172 68.9513 55.0036C71.5905 57.8351 75.1488 59.6385 78.9929 60.0929C82.837 60.5473 86.7176 59.6232 89.9443 57.485L88.1574 54.7884C85.5691 56.5036 82.4562 57.2449 79.3726 56.8804C76.289 56.5159 73.4347 55.0693 71.3176 52.7979C69.2005 50.5266 67.9578 47.5778 67.8107 44.4762C67.6635 41.3746 68.6215 38.3215 70.5142 35.8599C72.4068 33.3984 75.1113 31.6881 78.1466 31.0333C81.1818 30.3786 84.3509 30.8219 87.09 32.2844C89.829 33.7468 91.9605 36.1336 93.105 39.02C94.2495 41.9064 94.3329 45.1053 93.3404 48.0474L96.4056 49.0815Z" stroke="white" stroke-width="6.6327" mask="url(#path-5-inside-1_122_1067)"/>
</svg>
