<svg width="24" height="22" viewBox="0 0 24 22" fill="none" xmlns="http://www.w3.org/2000/svg">
<path d="M4.51729 9.66333L11.8884 1.19922C7.7737 4.23221 -0.194703 10.3617 0.849218 10.6156C1.89314 10.8695 3.72957 10.0866 4.51729 9.66333Z" fill="#DDDDDD"/>
<path d="M6.20091 8.48365C6.1577 8.55311 6.07767 8.6238 6.01041 8.67192C5.98938 8.68705 5.97778 8.66001 5.96236 8.66967C5.93223 8.68857 5.9212 8.72102 5.88985 8.73833C5.87936 8.74398 5.85682 8.70595 5.84654 8.7125C5.79048 8.74863 5.75874 8.80136 5.70939 8.84444C5.46625 9.05659 5.248 9.2832 5.02107 9.51465C4.94208 9.59366 4.85061 9.65199 4.75483 9.77117C4.74454 9.78382 4.77692 9.80379 4.77676 9.80816C4.77169 9.87658 4.7333 9.81056 4.70305 9.82385C4.58445 9.87703 4.45397 9.94172 4.37847 9.99395C4.3443 10.0177 4.41406 10.0649 4.35831 10.0465C4.35446 10.0453 4.3466 10.0056 4.33452 10.0069C4.30715 10.0099 4.26536 10.0378 4.24612 10.0435C4.20868 10.0546 4.20192 10.0582 4.1693 10.073C4.12419 10.0931 4.06185 10.1004 4.01689 10.1304C4.00725 10.1369 4.03764 10.1673 4.02366 10.181C4.00938 10.195 3.96438 10.2113 3.94556 10.2092C3.92681 10.2071 3.92047 10.1755 3.91492 10.17C3.86863 10.1238 3.85158 10.2233 3.84575 10.228C3.73875 10.3128 3.61671 10.311 3.50274 10.356C3.41587 10.3905 3.32829 10.4406 3.24392 10.469C3.14312 10.5027 3.05148 10.5115 2.95477 10.5474C2.94455 10.5511 2.97144 10.5919 2.95894 10.5966C2.82607 10.646 2.68875 10.6823 2.5438 10.689C2.52927 10.6896 2.53596 10.6449 2.52085 10.6431C2.42825 10.6333 2.27934 10.5858 2.26918 10.7729C2.21015 10.7793 2.13748 10.7873 2.079 10.7618C2.04096 10.7454 2.06486 10.6948 2.02762 10.7215C2.01919 10.7275 2.03856 10.7641 2.02527 10.7701C1.9694 10.7953 1.90248 10.7936 1.8471 10.8225C1.83583 10.8284 1.84423 10.863 1.84176 10.8698C1.81988 10.9252 1.75981 10.8471 1.74891 10.8422C1.66413 10.8062 1.6088 10.83 1.53345 10.8343C1.51609 10.8353 1.53998 10.8813 1.52321 10.8839C1.43686 10.8966 1.34249 10.8952 1.25621 10.8724C1.23712 10.8672 1.25559 10.8271 1.24664 10.8225C1.207 10.8027 1.19465 10.8788 1.15616 10.8601C1.14811 10.8562 1.15485 10.8219 1.15359 10.818C1.13463 10.757 1.1079 10.8398 1.10121 10.8411C1.01886 10.8596 0.979962 10.7653 0.907042 10.7648C0.897957 10.7647 0.909047 10.8115 0.883775 10.8084C0.689796 10.9057 0.541311 10.2495 0.714246 10.2124C0.732486 10.1929 0.750798 10.2262 0.755141 10.2268C0.82253 10.2384 0.760783 10.1777 0.762781 10.1689C0.778364 10.1036 0.872707 10.0964 0.818235 10.0012C1.01301 9.80809 1.15207 9.58121 1.39768 9.46192C1.40078 9.46029 1.42628 9.49406 1.43233 9.49069C1.50488 9.45123 1.44694 9.4172 1.42817 9.32368C1.42347 9.30019 1.51975 9.34034 1.52724 9.34287C1.55475 9.35226 1.58872 9.40625 1.59535 9.40678C1.64882 9.4097 1.50033 9.26659 1.53436 9.23341C1.53567 9.23262 1.55763 9.26418 1.56311 9.26411C1.58022 9.26401 1.57857 9.24461 1.59643 9.24551C1.63759 9.24776 1.71405 9.31314 1.70496 9.24111C1.70358 9.23196 1.6172 9.15275 1.65189 9.12728C1.66547 9.11747 1.71854 9.06435 1.73938 9.05515C1.76008 9.04604 1.77527 9.0835 1.7775 9.08364C1.8535 9.08051 1.85181 9.11048 1.92334 9.14451C1.99421 9.17881 1.86857 9.05637 1.86361 9.03423C1.85862 9.01218 1.91685 9.01411 1.93407 9.01764C1.95126 9.02118 1.95825 9.04736 1.97038 9.04713C2.05043 9.04497 1.93064 8.96535 1.92641 8.93135C1.91657 8.85073 2.03185 8.92128 2.07144 8.90227C2.08223 8.89705 2.05532 8.88156 2.06101 8.8726C2.08387 8.83735 2.12934 8.85075 2.13917 8.79157C2.14076 8.78194 2.11678 8.69819 2.17285 8.72481C2.18092 8.72866 2.19547 8.75917 2.2131 8.75302C2.23944 8.74388 2.27884 8.71791 2.29253 8.69107C2.30263 8.67125 2.24925 8.64744 2.27983 8.64228C2.29345 8.64001 2.2982 8.67768 2.32205 8.67148C2.34591 8.66527 2.38631 8.62733 2.40093 8.61287C2.41567 8.59825 2.38028 8.57557 2.37972 8.57242C2.37689 8.55401 2.39389 8.51278 2.3966 8.51044C2.52885 8.38642 2.69768 8.32932 2.81418 8.19843C2.82343 8.18815 2.78857 8.16187 2.78969 8.15997C2.81361 8.1156 2.85981 8.22573 2.90956 8.23291C2.84929 8.17051 2.87424 8.16966 2.89335 8.1406C2.90252 8.12654 2.87396 8.10689 2.87283 8.10333C2.85738 8.04937 2.91257 8.08868 2.92456 8.09612C2.9686 8.12353 2.94323 8.06817 2.97285 8.08635C3.00229 8.10437 3.0156 8.15716 3.03908 8.13615C3.02558 8.10686 2.95496 8.06069 2.9646 8.03509C3.00128 7.938 3.17123 7.87653 3.23134 7.83421C3.29146 7.79181 3.30586 7.77215 3.34515 7.75359C3.41641 7.71988 3.35629 7.69198 3.37492 7.64025C3.39378 7.58836 3.47133 7.71648 3.49707 7.73637C3.52271 7.75634 3.50727 7.72656 3.52496 7.73451C3.54262 7.74248 3.54267 7.7707 3.56197 7.76303C3.58126 7.75535 3.5863 7.67725 3.57003 7.64749C3.53591 7.58416 3.46994 7.54299 3.52622 7.52968C3.52949 7.52895 3.54709 7.56496 3.55834 7.56065C3.64661 7.5257 3.72188 7.46524 3.80759 7.42835C3.8195 7.42325 3.83866 7.46361 3.8459 7.46102C3.92148 7.43415 3.85414 7.39526 3.83425 7.3064C3.89602 7.39533 3.95574 7.43149 4.00052 7.39519C4.02748 7.37338 3.99283 7.34092 3.98899 7.30099C3.98779 7.28898 4.02701 7.29851 4.01629 7.27863C3.9813 7.21358 3.91196 7.16571 3.978 7.153C3.98097 7.15254 3.99986 7.18835 4.00829 7.1845C4.06291 7.15977 4.02005 7.09691 4.06285 7.04975C4.0966 7.0126 4.19321 6.99297 4.24115 6.96336C4.31708 7.05793 4.34028 7.00298 4.304 6.92462C4.33431 6.90421 4.36193 6.87549 4.39652 6.86215C4.4083 6.85761 4.42439 6.88981 4.42796 6.89179C4.48354 6.92323 4.44429 6.85025 4.44832 6.84284C4.49426 6.7653 4.58691 6.76935 4.6122 6.67114C4.61306 6.66768 4.56358 6.59913 4.62049 6.63252C4.62424 6.63499 4.62608 6.6822 4.65947 6.65986C4.69315 6.63723 4.77944 6.63204 4.80711 6.57152C4.81277 6.5573 4.81349 6.47872 4.86413 6.51348C4.8708 6.51829 4.87795 6.54169 4.88867 6.55141C4.92233 6.58273 4.89495 6.50155 4.94235 6.55977C4.99036 6.61789 5.03902 6.65576 5.07142 6.59364C5.07236 6.59185 5.06495 6.5235 5.08182 6.52007C5.10819 6.51469 5.14839 6.52034 5.1754 6.51564C5.18837 6.51334 5.17364 6.47326 5.17582 6.47214C5.26566 6.43541 5.3376 6.47123 5.43046 6.49973C5.44642 6.50471 5.51066 6.45822 5.53355 6.51133C5.55635 6.56929 5.46607 6.7554 5.54382 6.73068C5.57121 6.71978 5.72526 6.5013 5.71579 6.65134C5.8359 6.68247 5.8717 6.80465 5.97899 6.86563C5.98374 6.86829 6.0527 6.83875 6.05996 6.85077C6.07037 6.86831 6.04801 6.89632 6.05353 6.90906C6.07568 6.96288 6.12596 6.99703 6.1435 7.05224C6.14996 7.07301 6.1145 7.07863 6.12105 7.10254C6.12725 7.12616 6.17699 7.12899 6.16427 7.16853C6.15442 7.19878 6.06689 7.24202 6.06049 7.2723C6.15286 7.25877 6.15514 7.28115 6.18311 7.3205C6.18851 7.32819 6.22027 7.31698 6.2245 7.3206C6.24246 7.33574 6.21628 7.35231 6.2349 7.36714C6.23937 7.37077 6.27128 7.3703 6.27672 7.37343C6.32445 7.40088 6.25064 7.44576 6.23753 7.4515C6.18824 7.47599 6.2281 7.49228 6.20674 7.51159C6.1853 7.53 6.16653 7.49597 6.15189 7.51796C6.12175 7.56227 6.11248 7.62161 6.09525 7.66723C6.08856 7.6855 6.13309 7.68701 6.13307 7.68996C6.12896 7.7345 6.07158 7.75226 6.13774 7.81064C5.92734 7.74124 6.14681 7.84302 6.07703 7.87754C6.07138 7.88018 5.97925 7.83233 5.97422 7.81043C5.96905 7.78879 6.00954 7.78187 5.99791 7.75131C5.9957 7.74332 5.91928 7.67653 5.91492 7.67148C5.8833 7.62822 6.02874 7.68078 6.03753 7.68186C6.13105 7.69508 6.04463 7.62224 6.03975 7.61245C6.01999 7.562 6.04839 7.53138 6.03004 7.49237C6.018 7.4671 5.917 7.45478 5.9214 7.44031C5.93517 7.39421 6.0762 7.36288 5.94901 7.32223C5.92161 7.31413 5.81354 7.33947 5.89462 7.29266C5.89994 7.29047 5.97307 7.2467 5.91981 7.24203C5.91314 7.24158 5.88174 7.24938 5.87851 7.24765C5.85746 7.23618 5.87924 7.21866 5.86178 7.20518C5.84431 7.19184 5.81997 7.17986 5.82186 7.15739C5.82314 7.14414 5.86989 7.10283 5.87977 7.08991C5.9085 7.05301 5.83792 7.07042 5.8758 7.03391C5.91281 6.99562 5.99445 6.97721 6.00172 6.9269C5.93076 6.97197 5.85732 7.01736 5.78627 7.0632C5.75594 7.01264 5.73469 6.94862 5.68388 6.91177C5.67762 6.90738 5.65507 6.94726 5.64803 6.94385C5.61906 6.93 5.61335 6.88725 5.57743 6.88175C5.54945 6.87768 5.50509 6.90984 5.47961 6.91305C5.50041 6.81777 5.44973 6.83551 5.4249 6.82165C5.41578 6.81664 5.42137 6.79159 5.41539 6.78195C5.39212 6.74653 5.39225 6.83288 5.38342 6.84505C5.34868 6.89825 5.36391 6.70586 5.31733 6.70963C5.31405 6.70968 5.28963 6.81273 5.28769 6.81935C5.26949 6.86209 5.2824 6.78382 5.26787 6.77725C5.24121 6.76555 5.21767 6.74386 5.19225 6.77956C5.18412 6.79028 5.18061 6.85661 5.15107 6.81367C5.14709 6.80808 5.13898 6.77514 5.13655 6.77377C5.09178 6.75262 5.12448 6.85463 5.1211 6.89428C5.11807 6.93384 5.06514 6.87701 5.05039 6.86059C5.01283 6.81769 5.05104 6.83442 5.04959 6.82926C5.03282 6.76665 5.01648 6.78585 4.99803 6.78901C4.94851 6.69687 4.925 6.71614 4.97884 6.79293C4.98465 6.80133 4.99259 6.78634 4.99803 6.78901C5.02984 6.88767 5.02182 6.90611 4.94269 6.84196C4.9051 6.81252 4.88861 6.76017 4.85641 6.80459C4.84255 6.82459 4.89269 6.87731 4.88863 6.90431C4.88087 6.96461 4.78445 6.95837 4.74891 7.00063C4.736 7.01609 4.77578 7.03446 4.76782 7.04608C4.74679 7.07699 4.70371 7.07401 4.68553 7.10838C4.68391 7.11154 4.71608 7.13847 4.7078 7.14591C4.64586 7.20266 4.57115 7.22969 4.50263 7.28496C4.46942 7.31178 4.42554 7.37726 4.38811 7.40217C4.32379 7.44519 4.21315 7.45885 4.17247 7.51144C4.14539 7.54596 4.17886 7.57176 4.18263 7.6051C4.19003 7.66967 4.07968 7.63457 4.06357 7.62833C4.06304 7.62812 4.08511 7.59716 4.0565 7.59342C4.01956 7.5668 4.06376 7.62792 4.06357 7.62833C4.05306 7.62438 3.99085 7.66396 3.98481 7.67925C3.98153 7.68759 4.0099 7.71478 4.00772 7.71856C3.95495 7.80801 3.88509 7.87938 3.79814 7.92857C3.7963 7.92908 3.77021 7.89395 3.76625 7.89557C3.70957 7.91782 3.71533 7.98283 3.69956 8.03762C3.68375 8.09244 3.64843 8.1084 3.57875 8.06914C3.55809 8.09899 3.49657 8.1077 3.46103 8.1115C3.42539 8.1154 3.47735 8.18282 3.47646 8.18579C3.44949 8.27937 3.3834 8.27179 3.31378 8.32145C3.28075 8.3448 3.22879 8.40571 3.20254 8.44063C3.18205 8.46818 3.1528 8.46712 3.13721 8.49744C3.13508 8.50153 3.16313 8.52733 3.16309 8.52929C3.16602 8.58665 3.1183 8.50556 3.10196 8.49784C3.04266 8.46969 3.00929 8.45624 2.994 8.50699C2.99042 8.51867 3.05527 8.63887 3.04637 8.65697C3.03463 8.68032 3.01011 8.63832 2.99812 8.66414C2.99707 8.66632 3.01678 8.68822 3.00386 8.69778C2.94391 8.74267 2.87374 8.78146 2.81789 8.83474C2.81016 8.84195 2.85125 8.86802 2.84062 8.879C2.7905 8.93069 2.73285 8.97963 2.66666 9.00949C2.65017 9.01682 2.63637 8.98525 2.62711 8.9805C2.5708 8.95199 2.60384 9.03713 2.60101 9.04186C2.53546 9.15596 2.41053 9.16495 2.34293 9.2771C2.33921 9.28345 2.36126 9.38767 2.29042 9.34626C2.28568 9.34352 2.21358 9.30078 2.23575 9.35519C2.23715 9.35858 2.27601 9.37893 2.25448 9.39321C2.23286 9.40758 2.22259 9.45497 2.16501 9.4467C2.14698 9.444 2.07242 9.40408 2.09214 9.47338C2.09351 9.4782 2.15614 9.61792 2.07453 9.55801C2.06092 9.54833 1.99135 9.46887 1.99911 9.53627C2.00078 9.54919 2.02715 9.55651 2.02267 9.58115C2.01594 9.61897 1.96706 9.62683 1.97336 9.68622C1.97436 9.69683 2.0056 9.76632 1.95129 9.74343C1.94279 9.73984 1.923 9.70993 1.91166 9.71551C1.85743 9.74216 1.83381 9.79872 1.77677 9.82147C1.75627 9.82994 1.72324 9.7824 1.69742 9.78678C1.67158 9.79117 1.63149 9.81103 1.63518 9.84452C1.63891 9.87799 1.72003 9.92472 1.70332 9.95235C1.6267 10.0767 1.49551 10.1396 1.40266 10.2359C1.38932 10.2497 1.42461 10.2583 1.40583 10.2814C1.33709 10.365 1.26058 10.5194 1.17862 10.5313C1.11011 10.5438 1.09719 10.4759 1.06148 10.4974C1.04373 10.51 1.14003 10.5554 1.14425 10.5532C1.18898 10.5948 1.13184 10.2893 0.968587 10.2365C0.952787 10.2285 0.985247 10.1934 0.971738 10.1877C0.921865 10.1716 0.998605 10.2073 1.01894 10.2071C1.03207 10.2078 1.03595 10.1753 1.04643 10.1795C1.07142 10.1893 1.09145 10.2057 1.11257 10.2387C1.11466 10.2417 1.09364 10.2804 1.11337 10.284C1.14471 10.2896 1.18775 10.3231 1.23185 10.2934C1.24493 10.2845 1.24741 10.21 1.27269 10.262C1.27803 10.2728 1.26983 10.3625 1.30235 10.2853C1.30834 10.2725 1.35896 10.1677 1.38667 10.234C1.39401 10.2515 1.41504 10.3241 1.43065 10.3118C1.4327 10.3099 1.42221 10.2703 1.43506 10.2657C1.4795 10.2504 1.52859 10.2509 1.57434 10.2338C1.58659 10.2291 1.56383 10.1897 1.58204 10.1841C1.63231 10.1685 1.69749 10.1708 1.75075 10.1759C1.7702 10.1779 1.76241 10.2138 1.76432 10.2173C1.79575 10.2741 1.79646 10.1908 1.80295 10.1849C1.84423 10.1491 1.88539 10.181 1.92624 10.1628C1.9375 10.1579 1.92179 10.1211 1.92347 10.1172C1.94108 10.0791 1.93646 10.1516 1.95335 10.1562C2.00032 10.1693 2.04839 10.156 2.09081 10.1414C2.10639 10.1359 2.0785 10.0957 2.09251 10.0913C2.17531 10.0646 2.26419 10.0467 2.35367 10.0484C2.37057 10.0487 2.36992 10.0851 2.37529 10.0919C2.41276 10.1396 2.42573 10.0569 2.43122 10.0478C2.45663 10.0061 2.4785 10.0319 2.50741 10.0174C2.6479 9.94632 2.8367 9.90532 2.98049 9.86691C3.16765 9.81677 3.32108 9.79239 3.48949 9.71292C3.50018 9.7079 3.47128 9.66959 3.48022 9.66473C3.59647 9.60388 3.72218 9.56845 3.8353 9.50144C3.84469 9.49597 3.8121 9.46248 3.82646 9.4524C3.85567 9.43149 3.89668 9.41487 3.93447 9.41243C3.9528 9.4112 3.94847 9.45518 3.96663 9.45321C4.0083 9.44901 4.0502 9.43214 4.08375 9.40766C4.09876 9.39676 4.05395 9.36866 4.07492 9.35768C4.23466 9.27182 4.19378 9.29033 4.35094 9.20219C4.36146 9.19621 4.43714 9.24882 4.43985 9.21896C4.42187 9.20088 4.39925 9.18131 4.37928 9.16286C4.52591 8.9722 4.70592 8.81385 4.86774 8.63552C4.87455 8.62799 4.82642 8.60934 4.83943 8.59461C4.91467 8.5093 4.97707 8.41718 5.08986 8.36113C5.101 8.35552 5.16152 8.41608 5.17412 8.38194C5.17629 8.37587 5.20134 8.32975 5.19606 8.30758C5.19514 8.30439 5.15893 8.28526 5.1689 8.27204C5.22735 8.19571 5.30024 8.12587 5.38151 8.06963C5.39469 8.06061 5.41589 8.1009 5.42555 8.09472C5.49383 8.05062 5.52529 7.96536 5.60337 7.9344C5.65574 7.91377 5.69894 7.97591 5.77084 8.00333C5.78099 8.0072 5.80253 7.98493 5.83527 8.01132C5.91766 8.07763 5.99509 8.16493 6.08407 8.23427C6.10322 8.24922 6.11072 8.20082 6.13883 8.25782C6.14067 8.26169 6.13561 8.29712 6.14576 8.31576C6.15274 8.32868 6.19107 8.34975 6.19745 8.36923C6.20381 8.38871 6.16921 8.37389 6.17336 8.40061C6.17772 8.42749 6.21941 8.45365 6.20091 8.48365ZM3.30153 8.12923C3.25434 8.11582 3.34843 8.23213 3.34751 8.18588C3.34735 8.18351 3.30389 8.12985 3.30153 8.12923ZM5.81246 6.87116C5.83667 6.80224 5.75577 6.86055 5.73587 6.91123C5.71408 6.96034 5.80423 6.89129 5.81246 6.87116ZM6.02548 7.11078C6.05923 7.05526 5.86324 7.13672 5.91527 7.15072C5.9182 7.15154 6.02344 7.11386 6.02548 7.11078ZM5.70551 8.10967C5.70726 8.11069 5.72332 8.09519 5.72218 8.0935C5.69414 8.05338 5.66205 8.08439 5.70551 8.10967ZM6.1292 7.43511C6.15873 7.42373 6.12614 7.38678 6.09025 7.40163C6.06157 7.41258 6.09273 7.44802 6.1292 7.43511ZM2.1216 8.95532C2.11977 8.95397 2.10681 8.96313 2.11556 8.9722C2.14376 9.00138 2.15217 8.97814 2.1216 8.95532ZM5.90913 7.98153C5.9677 7.92062 6.14954 7.96226 6.06816 8.04295C6.05379 8.05643 6.04791 7.97588 6.02048 7.98679C5.97231 8.0041 6.03973 8.09608 5.96373 8.09392C5.95074 8.09264 5.90614 7.98431 5.90904 7.98126C5.90907 7.98135 5.9091 7.98144 5.90913 7.98153ZM3.17299 8.00278C3.17129 8.00163 3.15348 8.01438 3.15436 8.01621C3.17622 8.05998 3.2121 8.03434 3.17299 8.00278ZM1.38446 9.53345C1.38052 9.53142 1.34196 9.56516 1.34368 9.569C1.38083 9.64206 1.45835 9.57456 1.38446 9.53345ZM4.24388 6.9653C4.23222 6.91309 4.25101 6.89041 4.30387 6.92464C4.28329 6.93739 4.26433 6.95232 4.24388 6.9653Z" fill="#DDDDDD"/>
<path d="M11.2178 21.0196C11.6173 19.3973 13.1711 15.9057 16.1904 14.9183C18.9684 14.0097 20.9819 12.3368 22.0903 11.1795C22.727 10.396 23.0981 9.95097 22.927 10.1924C22.7688 10.4158 22.4877 10.7645 22.0903 11.1795C20.9414 12.5931 18.9277 15.1085 17.6722 16.6817L11.2178 21.0196Z" fill="#DDDDDD"/>
<path d="M11.8882 18.1285C11.9641 17.9706 12.0962 17.7819 12.2075 17.6464C12.2423 17.604 12.2493 17.6416 12.2744 17.6131C12.3234 17.5575 12.3509 17.4935 12.4022 17.4406C12.4193 17.4231 12.4369 17.4716 12.454 17.4529C12.5476 17.3503 12.6148 17.2387 12.7061 17.1324C13.1546 16.6113 13.6285 16.1244 14.1853 15.7027C14.369 15.5632 14.6175 15.4316 14.8095 15.2916C14.832 15.2752 14.7984 15.2528 14.8013 15.2474C14.8476 15.1638 14.8633 15.2417 14.9146 15.2221C15.1184 15.1446 15.3289 15.0371 15.5104 14.9382C15.5878 14.8961 15.4771 14.8658 15.5755 14.8668C15.5823 14.8669 15.5776 14.9117 15.6014 14.9058C15.655 14.8922 15.7493 14.8453 15.7898 14.8327C15.8681 14.8083 15.8807 14.8032 15.9529 14.7772C16.0513 14.7419 16.1743 14.7237 16.273 14.6806C16.2941 14.6713 16.2526 14.643 16.285 14.6247C16.3175 14.6065 16.4093 14.578 16.4428 14.576C16.4763 14.5741 16.4737 14.6085 16.4815 14.6134C16.5468 14.6549 16.6238 14.5365 16.6362 14.5295C16.8669 14.4051 17.0903 14.3662 17.3167 14.2674C17.4867 14.1929 17.6613 14.0946 17.8219 14.0189C18.0132 13.9287 18.1832 13.8657 18.3612 13.7654C18.3801 13.7548 18.3353 13.7254 18.3584 13.7123C18.6038 13.5729 18.8449 13.4386 19.1005 13.3174C19.126 13.3054 19.1172 13.3596 19.144 13.3497C19.3074 13.2887 19.5838 13.2051 19.5675 12.998C19.6674 12.9391 19.7882 12.8639 19.8939 12.8332C19.9619 12.8134 19.9354 12.8879 19.9909 12.8243C20.0037 12.8098 19.9607 12.7921 19.9816 12.7728C20.0699 12.6912 20.1787 12.6264 20.2604 12.5387C20.2767 12.5209 20.2501 12.4967 20.2515 12.4876C20.265 12.4124 20.39 12.4235 20.4101 12.4156C20.5629 12.3548 20.639 12.2701 20.7524 12.178C20.7785 12.1568 20.7176 12.1455 20.7416 12.1238C20.8648 12.0128 21.0004 11.9016 21.1374 11.808C21.1678 11.7874 21.1698 11.8399 21.1857 11.8316C21.2552 11.7947 21.2171 11.726 21.2832 11.6881C21.297 11.6801 21.3139 11.7116 21.3186 11.7125C21.392 11.7264 21.3629 11.6379 21.3699 11.6289C21.4587 11.5117 21.5856 11.5131 21.679 11.4045C21.6899 11.3917 21.6322 11.3867 21.6646 11.3525C21.8802 11.1243 22.1165 10.8937 22.3472 10.683C22.3829 10.6503 22.3852 10.6978 22.3902 10.6982C22.4707 10.7025 22.4262 10.6237 22.4346 10.6089C22.4991 10.498 22.6251 10.4565 22.5994 10.3257C23.0982 9.52337 22.6765 10.9558 22.2835 11.1201C22.2783 11.1248 22.2537 11.0886 22.2435 11.0982C22.1256 11.2058 22.1952 11.2234 22.1885 11.358C22.1857 11.3931 22.0617 11.3933 22.0515 11.3948C22.0149 11.3987 21.9835 11.3384 21.9741 11.342C21.8976 11.3736 22.0655 11.4938 22.0022 11.5721C21.9999 11.5743 21.9788 11.5401 21.9705 11.5443C21.9445 11.5577 21.9409 11.586 21.9152 11.5971C21.856 11.6221 21.7655 11.5747 21.755 11.6804C21.7537 11.6939 21.8555 11.754 21.7949 11.8201C21.7718 11.845 21.6764 11.9663 21.6426 11.9961C21.609 12.0256 21.5987 11.9784 21.5954 11.9799C21.4815 12.0417 21.495 11.9921 21.4008 11.9914C21.3071 11.9905 21.4535 12.088 21.4538 12.1189C21.454 12.1496 21.3678 12.1911 21.3432 12.1988C21.3186 12.2065 21.3168 12.1707 21.2985 12.1804C21.1788 12.2447 21.332 12.2774 21.328 12.3267C21.3193 12.4425 21.1707 12.4197 21.1045 12.4816C21.0867 12.4983 21.122 12.5016 21.1109 12.5198C21.0668 12.5913 21.0036 12.6053 20.972 12.7037C20.967 12.7196 20.9782 12.8303 20.9026 12.8328C20.8918 12.8331 20.8791 12.7972 20.8511 12.8204C20.8092 12.8551 20.743 12.9261 20.715 12.9782C20.6944 13.0166 20.7668 13.0117 20.72 13.0435C20.6992 13.0576 20.7028 13.0033 20.6656 13.0314C20.629 13.059 20.559 13.1482 20.5326 13.1828C20.5063 13.2172 20.5527 13.2241 20.5527 13.2285C20.5516 13.2548 20.5145 13.3321 20.5099 13.3379C20.2823 13.629 20.0146 13.8535 19.8068 14.1488C19.7904 14.1719 19.8355 14.1839 19.8334 14.1877C19.7867 14.2745 19.746 14.1439 19.674 14.173C19.7477 14.2195 19.7104 14.2409 19.6751 14.3001C19.6582 14.3287 19.6956 14.3357 19.6964 14.3402C19.7056 14.4101 19.633 14.3955 19.6171 14.3939C19.5582 14.3881 19.582 14.4521 19.5424 14.4485C19.503 14.4451 19.4966 14.3752 19.4562 14.4266C19.4689 14.4604 19.5626 14.473 19.5417 14.5201C19.463 14.6978 19.1943 14.9316 19.0956 15.0444C18.996 15.1583 18.97 15.1999 18.9067 15.261C18.7928 15.371 18.8751 15.3643 18.8351 15.4584C18.7948 15.5528 18.7093 15.4228 18.6756 15.414C18.6421 15.4051 18.6582 15.4373 18.6338 15.4399C18.6094 15.4424 18.6157 15.3999 18.5854 15.4273C18.5551 15.4547 18.5301 15.5765 18.5468 15.6088C18.5827 15.6767 18.6718 15.6838 18.5842 15.7517C18.5791 15.7556 18.5612 15.7156 18.5434 15.7317C18.4033 15.859 18.2797 16.0106 18.1417 16.1409C18.1225 16.159 18.1033 16.1137 18.0917 16.124C17.9718 16.2297 18.064 16.2312 18.0743 16.3481C18.0017 16.2662 17.9221 16.2602 17.846 16.3545C17.8008 16.4104 17.8454 16.43 17.8427 16.4867C17.8419 16.5037 17.7855 16.5224 17.7972 16.5432C17.8333 16.6128 17.9368 16.6202 17.819 16.7058C17.8138 16.7092 17.7974 16.6685 17.7819 16.6818C17.6817 16.762 17.7104 16.8353 17.6018 16.9196C17.5215 16.9823 17.3457 17.0447 17.2455 17.1031C17.1799 17.001 17.1047 17.085 17.1145 17.1792C17.0503 17.2182 16.9856 17.2674 16.9189 17.2983C16.896 17.3089 16.89 17.2706 16.8853 17.2692C16.812 17.2468 16.8303 17.3325 16.8186 17.3442C16.6901 17.4679 16.537 17.4966 16.4314 17.6401C16.4277 17.6452 16.4667 17.7205 16.3952 17.6945C16.3904 17.6926 16.415 17.6299 16.3479 17.6714C16.2808 17.7129 16.1322 17.7584 16.0631 17.8519C16.0463 17.8745 16.0288 17.9686 15.9544 17.9543C15.9444 17.9522 15.9374 17.9278 15.9213 17.9224C15.8697 17.9055 15.902 17.9864 15.8291 17.9483C15.7561 17.9101 15.658 17.9108 15.5942 18.0138C15.5921 18.017 15.608 18.0876 15.5786 18.1061C15.5316 18.1355 15.4585 18.1678 15.4107 18.2004C15.3878 18.2161 15.4259 18.2409 15.4223 18.2443C15.2808 18.3677 15.1498 18.4107 14.9751 18.5086C14.943 18.5265 14.8876 18.6326 14.8036 18.6346C14.7115 18.6369 14.6631 18.4216 14.542 18.562C14.4931 18.6185 14.5629 18.8861 14.3799 18.8461C14.1899 19.0142 13.9584 19.0864 13.7759 19.2667C13.7677 19.2748 13.7785 19.3552 13.7559 19.3693C13.7221 19.39 13.6851 19.3739 13.6604 19.3878C13.5565 19.4453 13.4828 19.5299 13.3856 19.5898C13.348 19.6128 13.3411 19.5758 13.2965 19.6003C13.2515 19.6241 13.241 19.6827 13.1642 19.6903C13.1054 19.6955 13.0272 19.6215 12.9631 19.6232C12.9791 19.7147 12.9317 19.7257 12.842 19.7541C12.8245 19.7594 12.8446 19.7913 12.8361 19.7955C12.8008 19.8133 12.7684 19.7853 12.7338 19.8007C12.7253 19.8043 12.7218 19.836 12.7142 19.8407C12.6468 19.8822 12.5626 19.7873 12.5534 19.7703C12.51 19.7069 12.4707 19.7346 12.4372 19.6976C12.4062 19.6606 12.4745 19.6699 12.436 19.6367C12.358 19.5687 12.2653 19.4908 12.2144 19.4119C12.1942 19.3807 12.1724 19.4249 12.1687 19.4209C12.1136 19.3555 12.1298 19.2676 12.0364 19.2451C12.2371 19.1385 11.998 19.2012 12.0341 19.0718C12.0375 19.0616 12.1408 19.0515 12.1571 19.0809C12.1734 19.1092 12.1467 19.1595 12.1801 19.1947C12.1878 19.2048 12.2958 19.2233 12.3033 19.2247C12.3625 19.2489 12.2298 19.3248 12.224 19.3328C12.1612 19.4122 12.2949 19.4179 12.3107 19.4233C12.3889 19.4631 12.4332 19.5217 12.5084 19.5345C12.5578 19.542 12.6001 19.4487 12.6271 19.4619C12.7135 19.5015 12.7649 19.6488 12.8704 19.5186C12.8918 19.4894 12.8518 19.3857 12.9427 19.4568C12.9469 19.462 13.0303 19.5231 13.048 19.4619C13.0501 19.4543 13.0385 19.4241 13.0426 19.4196C13.0684 19.3905 13.0974 19.4058 13.1287 19.3752C13.1586 19.3456 13.1984 19.296 13.2579 19.2693C13.293 19.2536 13.367 19.2765 13.3903 19.2787C13.4565 19.2854 13.4632 19.1969 13.5183 19.2219C13.5737 19.247 13.5656 19.3471 13.6539 19.3281C13.6096 19.2566 13.5674 19.181 13.5244 19.108C13.6787 19.0079 13.844 18.9296 13.995 18.8235C14.0137 18.8103 13.9691 18.7859 13.9885 18.7707C14.0703 18.7071 14.1633 18.6834 14.2452 18.6129C14.3085 18.5582 14.3574 18.4677 14.4227 18.4092C14.5204 18.4595 14.6092 18.3605 14.6918 18.3156C14.7207 18.2998 14.7332 18.3224 14.7572 18.3163C14.8475 18.293 14.7659 18.2454 14.7784 18.2209C14.8325 18.1157 14.9472 18.2705 15.0458 18.1985C15.051 18.1947 15.0594 18.0655 15.0649 18.0542C15.099 17.981 15.0943 18.0774 15.1344 18.0596C15.2077 18.027 15.2669 18.0167 15.3271 17.9401C15.3446 17.9176 15.3627 17.8284 15.4339 17.8401C15.4432 17.8416 15.459 17.8719 15.4647 17.8705C15.5666 17.8418 15.5094 17.7519 15.537 17.6899C15.5646 17.6279 15.6793 17.6394 15.7062 17.6469C15.776 17.666 15.6892 17.6866 15.69 17.6925C15.7008 17.7624 15.7484 17.7171 15.7925 17.694C15.8567 17.7767 15.9106 17.7329 15.838 17.6697C15.8299 17.6628 15.8034 17.6924 15.7925 17.694C15.7714 17.5847 15.8272 17.5314 15.9503 17.564C16.008 17.5793 16.0063 17.6435 16.0948 17.561C16.135 17.5235 16.0775 17.4755 16.1062 17.4326C16.172 17.3345 16.3273 17.3109 16.4149 17.2393C16.4467 17.2133 16.3917 17.2029 16.4127 17.184C16.4683 17.1337 16.5391 17.1217 16.5925 17.0676C16.5973 17.0627 16.5606 17.0377 16.5795 17.0243C16.7226 16.9224 16.8643 16.859 17.0169 16.7573C17.0906 16.7082 17.2094 16.601 17.2881 16.5536C17.4482 16.46 17.5251 16.4626 17.6154 16.324C17.663 16.2494 17.6189 16.2386 17.6208 16.1912C17.6249 16.0988 17.7812 16.0593 17.8039 16.0551C17.8046 16.0551 17.765 16.1202 17.8067 16.1019C17.8558 16.1111 17.8035 16.0559 17.8039 16.0551C17.8185 16.0525 17.9214 15.9387 17.9347 15.9094C17.9418 15.8936 17.9054 15.8766 17.9095 15.869C18.0077 15.6902 18.1282 15.5235 18.2722 15.3727C18.2751 15.3704 18.3057 15.402 18.3122 15.396C18.4026 15.314 18.4075 15.2224 18.4449 15.1249C18.4824 15.0273 18.539 14.9735 18.634 14.9748C18.6729 14.911 18.7662 14.8475 18.8202 14.8122C18.8741 14.7771 18.8131 14.7172 18.8152 14.712C18.8783 14.547 18.9778 14.5006 19.0929 14.3691C19.1478 14.3065 19.2416 14.1697 19.2906 14.0937C19.3293 14.0335 19.3717 14.0125 19.4028 13.9533C19.407 13.9453 19.3719 13.9286 19.3724 13.9256C19.383 13.8401 19.4331 13.9254 19.4555 13.924C19.5367 13.9188 19.5828 13.9124 19.6194 13.8216C19.6279 13.8006 19.5634 13.6681 19.5819 13.6325C19.6063 13.5864 19.6314 13.6314 19.656 13.5822C19.6582 13.578 19.6346 13.5603 19.6564 13.5353C19.7572 13.4187 19.8753 13.2989 19.9732 13.1722C19.9867 13.155 19.9327 13.1476 19.9515 13.1222C20.0394 13.004 20.1433 12.8774 20.2501 12.7795C20.2765 12.7554 20.2882 12.7932 20.3006 12.7933C20.3756 12.7939 20.3518 12.6871 20.3574 12.6775C20.4913 12.4455 20.6766 12.3387 20.8183 12.1041C20.8259 12.0913 20.8252 11.9461 20.9174 11.9569C20.9235 11.9577 21.0174 11.9693 21.0027 11.9C21.0017 11.8957 20.9499 11.8941 20.9875 11.8542C21.025 11.8143 21.0582 11.7293 21.1394 11.701C21.1648 11.6924 21.2636 11.6976 21.2581 11.6028C21.2576 11.5963 21.2132 11.4214 21.3144 11.4548C21.3312 11.4601 21.4083 11.5325 21.4202 11.4318C21.4223 11.4126 21.3854 11.4207 21.4009 11.3782C21.4248 11.3127 21.4987 11.2662 21.5129 11.1742C21.5154 11.1579 21.4977 11.0659 21.5697 11.0634C21.581 11.0631 21.5995 11.0961 21.6182 11.0793C21.7058 11.0013 21.7701 10.8848 21.8623 10.8102C21.8958 10.7825 21.9266 10.8349 21.9672 10.8092C22.0081 10.7831 22.0758 10.7233 22.0837 10.6725C22.0941 10.6187 21.9907 10.6018 22.0307 10.5414C22.2143 10.2732 22.362 10.1455 22.6939 9.80774C24.2651 11.0382 23.1248 10.2186 23.3066 10.4381C23.1567 10.6593 22.8922 11.0222 22.6935 11.1393C22.536 11.2321 22.6516 11.0407 22.5455 11.1248C22.4934 11.1664 22.5252 11.2874 22.5167 11.3013C22.4366 11.4371 22.3286 11.482 22.2446 11.5879C22.227 11.61 22.2768 11.6203 22.2614 11.6389C22.2086 11.7029 22.1336 11.7505 22.0801 11.8077C22.056 11.8335 22.0834 11.8524 22.0581 11.8735C21.9966 11.9252 21.9399 11.9602 21.8631 11.9905C21.8561 11.9932 21.8623 11.9316 21.8193 11.9701C21.7485 12.0332 21.6465 12.0861 21.5869 12.1817C21.57 12.2094 21.619 12.2659 21.5341 12.2724C21.5162 12.2738 21.4708 12.1945 21.4624 12.3051C21.4608 12.3238 21.429 12.49 21.3354 12.4813C21.3107 12.4791 21.2297 12.4518 21.2079 12.4853C21.2051 12.49 21.2469 12.5072 21.2251 12.5307C21.1495 12.6115 21.0556 12.6833 20.9753 12.764C20.9538 12.7857 21.015 12.7897 20.9821 12.821C20.8913 12.9074 20.761 12.9957 20.6556 13.0594C20.6165 13.0829 20.6208 13.0366 20.6159 13.0356C20.537 13.0191 20.561 13.1036 20.5501 13.1177C20.4809 13.2053 20.3906 13.2237 20.3146 13.2909C20.2939 13.3091 20.3326 13.3296 20.3302 13.3356C20.3038 13.3965 20.2973 13.3146 20.2635 13.3292C20.169 13.3698 20.0764 13.4382 19.9957 13.4993C19.9658 13.522 20.0262 13.5358 19.999 13.5557C19.8374 13.6751 19.6592 13.7859 19.4804 13.8679C19.4467 13.8832 19.4479 13.8414 19.4372 13.8386C19.3632 13.8189 19.3372 13.9241 19.3255 13.9397C19.2729 14.0104 19.2301 14 19.1718 14.0413C18.8846 14.2454 18.4931 14.4338 18.1922 14.5676C17.7976 14.7437 17.4814 14.8473 17.1006 15.008C17.0762 15.0182 17.1178 15.0518 17.097 15.0611C16.8286 15.1789 16.5493 15.2588 16.2863 15.3587C16.2657 15.3668 16.3096 15.3984 16.2774 15.4127C16.2115 15.4423 16.128 15.4707 16.0591 15.483C16.0255 15.4891 16.0538 15.437 16.02 15.444C15.941 15.4605 15.862 15.4909 15.7883 15.5326C15.7574 15.5503 15.8248 15.5688 15.7834 15.5886C15.5019 15.725 15.2421 15.885 14.9455 16.0208C14.9253 16.0301 14.8563 15.9664 14.8279 16.0085C14.8399 16.0313 14.8575 16.0554 14.8722 16.0783C14.5059 16.361 14.1423 16.6501 13.8193 16.9969C13.8057 17.0115 13.8647 17.0188 13.8388 17.0471C13.6889 17.2116 13.5614 17.3857 13.3833 17.5381C13.3657 17.5533 13.3049 17.492 13.2743 17.5538C13.2689 17.5646 13.2169 17.6535 13.2166 17.6857C13.2167 17.6902 13.2598 17.6988 13.2415 17.7259C13.1346 17.8829 13.0154 18.042 12.8922 18.1896C12.8722 18.2134 12.8541 18.1629 12.8396 18.1798C12.7365 18.2996 12.6765 18.4618 12.5685 18.5728C12.4963 18.6471 12.4509 18.5785 12.3614 18.5905C12.3487 18.5923 12.3166 18.6468 12.2782 18.6294C12.1815 18.5859 12.0952 18.5028 11.9904 18.4597C11.9677 18.4503 11.9488 18.5396 11.9221 18.466C11.9204 18.461 11.934 18.3958 11.9244 18.3723C11.9178 18.356 11.8707 18.3526 11.8663 18.3243C11.862 18.296 11.9055 18.2917 11.9058 18.2492C11.9061 18.2064 11.8555 18.1966 11.8882 18.1285ZM19.0632 14.6525C19.1308 14.6335 19.0194 14.5334 19.0087 14.604C19.0083 14.6075 19.0598 14.6536 19.0632 14.6525ZM13.9061 19.0237C14.0046 19.037 13.9927 18.9281 13.9208 18.9151C13.8488 18.9021 13.8761 19.0198 13.9061 19.0237ZM13.293 19.4937C13.3937 19.4889 13.2865 19.3053 13.234 19.3922C13.2313 19.3969 13.2873 19.4938 13.293 19.4937ZM12.4688 18.3621C12.4667 18.3618 12.442 18.3999 12.4432 18.4018C12.4721 18.4466 12.5211 18.3706 12.4688 18.3621ZM12.604 19.6714C12.6226 19.7073 12.7062 19.6885 12.6798 19.6476C12.6603 19.6159 12.5833 19.6286 12.604 19.6714ZM21.0462 12.4377C21.0485 12.4383 21.071 12.4136 21.0608 12.4062C21.0278 12.3825 21.0075 12.4259 21.0462 12.4377ZM12.1812 18.7396C12.1097 18.8933 11.9196 18.9948 11.9934 18.777C12.0082 18.7399 12.0238 18.8745 12.0524 18.8305C12.103 18.7565 12.0256 18.656 12.1239 18.5967C12.1398 18.5884 12.184 18.7318 12.1813 18.74C12.1812 18.7399 12.1812 18.7397 12.1812 18.7396ZM19.224 14.7391C19.2263 14.7395 19.2564 14.7049 19.2555 14.7029C19.2339 14.6539 19.1733 14.7234 19.224 14.7391ZM22.3302 10.998C22.3355 10.9982 22.4026 10.9222 22.4029 10.9157C22.3777 10.8238 22.2377 10.9824 22.3302 10.998ZM17.2422 17.1014C17.2275 17.1688 17.1812 17.2067 17.1148 17.1791C17.1576 17.1541 17.1992 17.1267 17.2422 17.1014Z" fill="#DDDDDD"/>
<path d="M5.78711 17.7043L0.25 20.7726C5.36376 11.6384 13.9691 8.04106 22.6449 0C21.0814 1.92796 17.3477 6.65145 14.9213 10.1218C12.4949 13.5921 7.82083 16.6228 5.78711 17.7043Z" fill="#DDDDDD"/>
<path d="M3.38004 18.4723C3.54775 18.3645 3.78262 18.2503 3.96526 18.1709C4.02246 18.146 4.0078 18.1844 4.04787 18.1683C4.12622 18.1366 4.18826 18.0874 4.2667 18.058C4.29276 18.0483 4.2832 18.1016 4.31006 18.0907C4.4571 18.0304 4.58251 17.9487 4.72667 17.879C5.43679 17.5318 6.12319 17.1914 6.80867 16.7948C7.03353 16.6661 7.32341 16.5303 7.542 16.3702C7.56775 16.3513 7.53186 16.3305 7.53532 16.3247C7.5905 16.234 7.60289 16.3144 7.65961 16.2896C7.88416 16.1909 8.11549 16.0418 8.29926 15.9002C8.37822 15.8393 8.25441 15.8348 8.36061 15.8123C8.36796 15.8107 8.36897 15.8573 8.39403 15.8453C8.45102 15.8179 8.5443 15.7455 8.58519 15.721C8.66464 15.6736 8.67706 15.6645 8.74967 15.6144C8.8502 15.5455 8.97514 15.4812 9.07588 15.3983C9.09721 15.3806 9.04412 15.3693 9.07602 15.3381C9.10838 15.3066 9.20292 15.2428 9.24025 15.2274C9.2774 15.2122 9.28246 15.2474 9.29229 15.2492C9.37413 15.2653 9.43386 15.1171 9.44608 15.1055C9.67688 14.8919 9.92221 14.7672 10.1555 14.5868C10.3324 14.4498 10.5105 14.289 10.678 14.1566C10.877 13.9996 11.057 13.8791 11.2429 13.7173C11.2626 13.7002 11.2088 13.6839 11.2327 13.663C11.4868 13.4406 11.7411 13.2245 12.0109 13.0219C12.038 13.0016 12.0338 13.0615 12.0626 13.043C12.2379 12.9297 12.5332 12.7637 12.4961 12.5487C12.6014 12.4574 12.7273 12.344 12.8412 12.2816C12.9146 12.2413 12.8914 12.3285 12.9475 12.2448C12.9602 12.2259 12.9117 12.2187 12.9328 12.1925C13.0218 12.0822 13.138 11.9809 13.2189 11.8661C13.2354 11.8426 13.2044 11.8239 13.2052 11.8137C13.2141 11.7294 13.3526 11.7062 13.3738 11.6924C13.5339 11.5878 13.6125 11.4737 13.7276 11.3449C13.7543 11.315 13.6873 11.3191 13.7116 11.2893C13.8389 11.134 13.9751 10.9797 14.1159 10.8404C14.1472 10.8096 14.1532 10.8664 14.1698 10.8529C14.2425 10.7931 14.1956 10.7293 14.263 10.671C14.2772 10.6586 14.2979 10.6883 14.303 10.688C14.3828 10.6835 14.345 10.5942 14.3518 10.5824C14.4377 10.4302 14.5738 10.3965 14.6631 10.2531C14.6736 10.236 14.6116 10.2466 14.6431 10.2002C14.9023 9.8746 14.9142 9.64348 14.8156 9.29109C14.8001 9.23956 14.8451 9.26198 14.8476 9.25741C14.8835 9.17932 14.7898 9.18205 14.7792 9.16798C14.6977 9.05532 14.6814 8.90304 14.5427 8.88604C14.212 8.39763 13.6697 8.02473 13.1276 7.94714C13.1206 7.94652 13.1308 7.90388 13.1162 7.90292C12.9373 7.89971 12.9781 7.96821 12.9305 8.07156C12.9214 8.09569 12.7983 8.05981 12.7856 8.06213C12.7449 8.06028 12.7335 7.99086 12.722 7.99318C12.6287 8.01401 12.7639 8.17019 12.6702 8.24084C12.667 8.24277 12.6565 8.20319 12.6464 8.2061C12.6148 8.21504 12.5997 8.24534 12.5679 8.25291C12.4951 8.26999 12.4154 8.20459 12.367 8.31416C12.3609 8.3282 12.4475 8.40936 12.3605 8.46812C12.3257 8.49148 12.1796 8.60448 12.1338 8.62963C12.0881 8.65476 12.0936 8.60331 12.0897 8.60423C11.9487 8.64854 11.9782 8.60032 11.8779 8.58376C11.7778 8.56747 11.8992 8.6954 11.8883 8.72819C11.8774 8.76098 11.7712 8.79003 11.7426 8.79385C11.714 8.79764 11.7244 8.75965 11.7017 8.76671C11.5521 8.81417 11.7028 8.87521 11.6809 8.92685C11.6292 9.04899 11.4792 8.99996 11.3879 9.05375C11.3632 9.0683 11.3996 9.07771 11.3812 9.0953C11.308 9.16461 11.2353 9.16922 11.1673 9.26835C11.1561 9.28455 11.1305 9.40276 11.0483 9.39374C11.0365 9.39235 11.0358 9.35202 10.9975 9.37237C10.9403 9.40267 10.8447 9.46753 10.7969 9.51819C10.7617 9.5556 10.8403 9.56219 10.7797 9.58818C10.7527 9.59971 10.7752 9.54281 10.7261 9.56653C10.6772 9.59009 10.571 9.67425 10.531 9.7068C10.491 9.73937 10.5381 9.75396 10.5365 9.75867C10.5262 9.78649 10.4602 9.8627 10.4533 9.86804C10.1097 10.1426 9.74823 10.3415 9.42828 10.6277C9.4031 10.6501 9.44735 10.6693 9.44378 10.6731C9.36525 10.7593 9.36483 10.6139 9.27825 10.6349C9.3417 10.695 9.29482 10.7126 9.23774 10.771C9.21029 10.7992 9.24795 10.8119 9.24734 10.8168C9.2344 10.8929 9.16169 10.8671 9.14513 10.8632C9.08408 10.849 9.08852 10.9209 9.04735 10.9117C9.00633 10.9028 9.02223 10.827 8.96219 10.8767C8.96487 10.9146 9.06088 10.9408 9.0234 10.9883C8.88209 11.1675 8.52149 11.3833 8.3799 11.4937C8.23852 11.6036 8.19821 11.6453 8.1115 11.704C7.95481 11.8104 8.04632 11.8116 7.97537 11.9083C7.90431 12.0053 7.85132 11.856 7.81782 11.8428C7.78455 11.8295 7.79213 11.8661 7.76512 11.8662C7.73815 11.8664 7.7578 11.821 7.71687 11.8475C7.6759 11.874 7.61269 12.0034 7.62156 12.0397C7.64034 12.1167 7.73363 12.1335 7.62029 12.1976C7.61374 12.2012 7.60619 12.1563 7.5824 12.1717C7.39431 12.2957 7.21882 12.4479 7.03487 12.5769C7.00951 12.5946 7.00113 12.544 6.98604 12.554C6.82879 12.6578 6.9271 12.6677 6.90579 12.7961C6.85049 12.7007 6.76423 12.6894 6.65913 12.7842C6.59596 12.8412 6.63853 12.8662 6.62041 12.9278C6.61502 12.9463 6.54885 12.9631 6.55583 12.9868C6.57846 13.0644 6.67484 13.0857 6.54625 13.1605C6.54052 13.1637 6.52852 13.1208 6.51071 13.134C6.3955 13.2193 6.43455 13.2864 6.32867 13.3982C6.24569 13.4859 6.05837 13.5998 5.95412 13.6897C5.87221 13.6002 5.79762 13.7106 5.81808 13.8073C5.75166 13.8669 5.68606 13.9375 5.6165 13.9897C5.59258 14.0077 5.58186 13.969 5.57653 13.9689C5.49381 13.9668 5.52332 14.052 5.5119 14.0678C5.38551 14.2366 5.22179 14.3138 5.1254 14.4983C5.122 14.5049 5.17423 14.5719 5.09311 14.5669C5.08767 14.5664 5.10615 14.4926 5.03864 14.5576C4.97119 14.6225 4.81571 14.7185 4.75436 14.8397C4.73943 14.869 4.73438 14.9737 4.65174 14.9835C4.64062 14.9847 4.62943 14.9613 4.61121 14.9611C4.55273 14.9607 4.59997 15.0348 4.51521 15.0195C4.43045 15.0042 4.32407 15.0387 4.27153 15.1694C4.26975 15.1735 4.29832 15.2421 4.26962 15.2718C4.22373 15.3193 4.15021 15.3791 4.10439 15.4305C4.08245 15.4552 4.12771 15.4676 4.12444 15.4723C3.9936 15.6525 3.86108 15.7455 3.6929 15.9142C3.66197 15.9451 3.62336 16.0772 3.53446 16.1117C3.43683 16.1501 3.34178 15.9437 3.24085 16.139C3.1999 16.218 3.3306 16.4683 3.12835 16.5011C2.96394 16.7534 2.73621 16.9273 2.58993 17.1937C2.58332 17.2057 2.61503 17.2837 2.59492 17.3082C2.56493 17.3444 2.52208 17.3444 2.49982 17.3697C2.40573 17.4758 2.35183 17.5957 2.26704 17.702C2.23494 17.7425 2.21736 17.7071 2.17913 17.7555C2.14126 17.8042 2.15231 17.8631 2.09205 17.9213C2.04756 17.964 1.93122 17.9831 1.89078 18.0689C1.97893 18.1018 1.95498 18.1567 1.96521 18.2594C1.96748 18.2787 2.00234 18.2631 2.00513 18.2722C2.01742 18.3084 1.98862 18.3384 2.00686 18.372C2.01127 18.3799 2.04321 18.3799 2.04871 18.3859C2.09538 18.4343 2.03926 18.5255 2.03197 18.5458C2.00077 18.6165 2.05102 18.6324 2.05208 18.6822C2.05507 18.7339 2.00276 18.6766 2.01759 18.7347C2.04923 18.8572 2.16138 18.9865 2.26681 19.0648C2.30905 19.0962 2.30478 19.0402 2.31137 19.0439C2.39935 19.0946 2.48564 19.1796 2.56597 19.1157C2.57279 19.3454 2.62977 19.1197 2.76275 19.1766C2.77307 19.1807 2.78556 19.2861 2.7334 19.2971C2.68061 19.3078 2.61165 19.2636 2.53832 19.266C2.52239 19.2682 2.394 19.3241 2.37695 19.3218C2.25196 19.3147 2.31798 19.1677 2.3183 19.1589C2.31617 19.0522 2.17172 19.0697 2.14252 19.051C2.0171 18.978 1.96563 18.8632 1.89558 18.7674C1.85083 18.7038 1.75259 18.7287 1.73578 18.6621C1.69075 18.432 1.83408 18.3736 1.74582 18.1589C1.7304 18.1126 1.60648 18.1221 1.74056 17.9921C1.74875 17.9829 1.86582 17.9044 1.85498 17.8224C1.85356 17.8118 1.8255 17.7956 1.82887 17.7842C1.85225 17.7081 1.90338 17.6805 1.93244 17.6206C1.96167 17.5601 1.99421 17.4854 2.04821 17.4315C2.08071 17.399 2.16407 17.3885 2.18896 17.3801C2.25985 17.3567 2.24403 17.2624 2.30829 17.2631C2.37286 17.2638 2.39009 17.3706 2.47767 17.3112C2.41296 17.2575 2.34945 17.1985 2.2858 17.1426C2.42296 16.9689 2.57934 16.8139 2.71542 16.6387C2.73223 16.6169 2.67936 16.6106 2.69651 16.5865C2.769 16.4851 2.86291 16.4208 2.93499 16.3132C2.99068 16.2299 3.02407 16.115 3.08237 16.0271C3.1971 16.0401 3.27217 15.9011 3.35232 15.8216C3.38037 15.7936 3.39811 15.8124 3.42277 15.7967C3.51535 15.737 3.41873 15.7188 3.42764 15.6881C3.46639 15.5566 3.61822 15.6752 3.71117 15.5626C3.71611 15.5567 3.70234 15.4177 3.70634 15.4036C3.73059 15.3138 3.74214 15.4171 3.7824 15.3834C3.85599 15.3219 3.91813 15.2894 3.9706 15.187C3.9858 15.157 3.99117 15.0562 4.07028 15.0432C4.08066 15.0415 4.10252 15.0678 4.10849 15.0642C4.2145 14.9978 4.13847 14.9234 4.15908 14.8481C4.17972 14.7729 4.30658 14.745 4.33686 14.7438C4.41568 14.74 4.32414 14.7916 4.32598 14.7975C4.34802 14.8676 4.39306 14.8034 4.43768 14.764C4.51955 14.8294 4.57177 14.765 4.48365 14.7229C4.47392 14.7184 4.44931 14.7586 4.43768 14.764C4.3988 14.6558 4.45239 14.5801 4.59116 14.5735C4.65617 14.5706 4.66303 14.6388 4.74831 14.5226C4.78711 14.47 4.71798 14.438 4.74381 14.3832C4.80295 14.2578 4.97018 14.1831 5.05778 14.08C5.0896 14.0425 5.02801 14.0486 5.04883 14.0221C5.10405 13.9514 5.18041 13.9169 5.23318 13.8432C5.23793 13.8365 5.19486 13.8212 5.21425 13.8013C5.36076 13.6494 5.51056 13.5401 5.66964 13.3883C5.74644 13.3148 5.86848 13.1674 5.95185 13.0953C6.09607 12.9699 6.30869 12.8545 6.41885 12.7339C6.49087 12.6553 6.44593 12.6406 6.46067 12.5892C6.48898 12.4897 6.66993 12.4576 6.69555 12.4549C6.69634 12.4548 6.63504 12.5232 6.68539 12.5063C6.73594 12.52 6.6949 12.4557 6.69555 12.4549C6.71223 12.4529 6.85437 12.3379 6.87615 12.3081C6.88797 12.2918 6.85377 12.2699 6.86043 12.262C7.01939 12.0735 7.19694 11.9044 7.39615 11.7561C7.39997 11.7539 7.42359 11.7912 7.43219 11.7855C7.55332 11.7064 7.58782 11.6064 7.65717 11.5054C7.72648 11.4045 7.80509 11.3518 7.9068 11.364C7.96868 11.2993 8.08787 11.2424 8.15717 11.2106C8.22646 11.1788 8.17984 11.107 8.18373 11.1016C8.30411 10.9311 8.42552 10.8938 8.59183 10.7669C8.67097 10.7067 8.81627 10.5722 8.89404 10.4972C8.95538 10.4378 9.00777 10.4211 9.06082 10.3619C9.06801 10.3539 9.0359 10.3312 9.0375 10.328C9.0773 10.2377 9.10258 10.3362 9.12703 10.3378C9.21577 10.3435 9.2674 10.343 9.33696 10.2511C9.35302 10.2299 9.32858 10.0788 9.36062 10.0433C9.40239 9.99737 9.41406 10.0491 9.45708 10.0001C9.46079 9.99595 9.44154 9.9736 9.47339 9.94994C9.62096 9.83984 9.78866 9.72927 9.93715 9.60903C9.95746 9.59272 9.90233 9.57656 9.93122 9.55239C10.0668 9.43904 10.2212 9.32088 10.3704 9.23281C10.4073 9.21121 10.4063 9.25335 10.4195 9.25539C10.5001 9.26727 10.5112 9.15072 10.5207 9.14134C10.7451 8.9159 10.9834 8.83047 11.216 8.60654C11.2286 8.59426 11.2803 8.43963 11.3755 8.46586C11.382 8.46753 11.4778 8.4956 11.4863 8.42013C11.4868 8.41542 11.4323 8.40486 11.4862 8.36917C11.5401 8.33348 11.6063 8.2486 11.7045 8.23116C11.7357 8.22552 11.8367 8.24952 11.8649 8.14806C11.8666 8.14123 11.8826 7.94796 11.9795 7.99969C11.9954 8.00828 12.0526 8.09721 12.0999 7.99376C12.1089 7.97387 12.067 7.97599 12.0984 7.93392C12.1461 7.8695 12.2445 7.83073 12.2919 7.73622C12.3001 7.71964 12.3132 7.62014 12.391 7.62962C12.4031 7.6311 12.4109 7.66935 12.4371 7.65457C12.5507 7.57578 12.8462 7.41404 13.0524 7.42911C13.1284 7.43172 13.0939 7.4905 13.1668 7.50425C13.2413 7.51772 13.3733 7.54687 13.4464 7.5363C13.5208 7.52574 13.4651 7.41905 13.5733 7.43854C14.0488 7.538 14.3709 7.8336 14.6651 8.12066C14.7086 8.16424 14.6949 8.10482 14.76 8.16918C15.0034 8.39736 15.3705 8.88967 15.3924 9.2375C15.4088 9.50318 15.2845 9.20041 15.3104 9.39352C15.3206 9.48244 15.4359 9.57703 15.4405 9.6032C15.4884 9.85036 15.4046 10.0471 15.297 10.2666C15.2735 10.3125 15.3365 10.2906 15.3144 10.3304C15.2389 10.457 15.1823 10.4992 15.1264 10.5829C15.1029 10.6179 15.1338 10.631 15.1088 10.6608C15.0488 10.7327 14.9892 10.7892 14.9102 10.8422C14.9031 10.847 14.9043 10.7785 14.8617 10.8316C14.7928 10.9178 14.6848 11.0067 14.6301 11.1242C14.6138 11.1593 14.6709 11.2076 14.5798 11.2377C14.5607 11.244 14.5053 11.1704 14.5052 11.2923C14.5051 11.3129 14.4841 11.5012 14.3822 11.5167C14.3554 11.5208 14.2659 11.5127 14.2452 11.5543C14.2426 11.5601 14.289 11.5678 14.2675 11.5987C14.1907 11.7075 14.097 11.8069 14.0154 11.916C13.9937 11.9451 14.0606 11.933 14.0272 11.9756C13.9351 12.0929 13.8018 12.2207 13.6923 12.3169C13.6519 12.3523 13.6525 12.3018 13.6471 12.302C13.5603 12.305 13.5941 12.3882 13.5832 12.4064C13.5146 12.5189 13.4182 12.5622 13.342 12.6533C13.3209 12.6784 13.365 12.6896 13.3629 12.6967C13.3394 12.7686 13.3251 12.6833 13.2895 12.7081C13.1894 12.777 13.0965 12.8728 13.0133 12.9604C12.9827 12.9926 13.0501 12.9905 13.0223 13.0191C12.8579 13.1887 12.6756 13.3536 12.489 13.4901C12.4538 13.5158 12.4503 13.4716 12.4383 13.4718C12.3549 13.4722 12.3386 13.5896 12.3278 13.6091C12.2791 13.6974 12.2308 13.699 12.1718 13.7591C11.8834 14.0536 11.4822 14.3655 11.174 14.5989C10.7715 14.904 10.4425 15.117 10.0643 15.4109C10.04 15.4296 10.0926 15.4484 10.072 15.4651C9.80637 15.6772 9.52464 15.8589 9.25448 16.0655C9.23238 16.0823 9.29046 16.0953 9.25582 16.1235C9.18542 16.1812 9.0862 16.2474 9.00227 16.2883C8.96125 16.3083 8.98958 16.2428 8.94878 16.2636C8.85457 16.3114 8.75688 16.3743 8.67099 16.4409C8.63443 16.4694 8.71748 16.4677 8.66797 16.5018C8.32915 16.7359 7.99356 16.964 7.61097 17.135C7.58443 17.1469 7.51445 17.0826 7.47259 17.1294C7.48217 17.1534 7.49818 17.1786 7.51085 17.2028C7.01223 17.5301 6.47247 17.8102 5.94971 18.0838C5.92807 18.0955 5.98849 18.1175 5.94679 18.1405C5.70694 18.2726 5.47167 18.4183 5.1983 18.5146C5.17114 18.5243 5.14251 18.4425 5.07547 18.4944C5.06368 18.5037 4.9588 18.5748 4.93924 18.6068C4.93672 18.6114 4.97618 18.6351 4.94117 18.6559C4.73737 18.7757 4.51631 18.8878 4.29812 18.9809C4.26287 18.9958 4.27777 18.9391 4.25248 18.9494C4.07327 19.0229 3.90587 19.1526 3.72639 19.208C3.60617 19.2449 3.61045 19.1587 3.51824 19.1272C3.50521 19.1227 3.43778 19.1583 3.41396 19.1234C3.35389 19.0359 3.33009 18.9168 3.26224 18.8256C3.24768 18.8059 3.17108 18.8782 3.19552 18.7977C3.19731 18.7922 3.25259 18.7393 3.25889 18.7131C3.26332 18.6949 3.22261 18.6686 3.23672 18.6406C3.25083 18.6127 3.29308 18.6303 3.32059 18.5914C3.34796 18.5523 3.3079 18.5189 3.38004 18.4723ZM8.46868 11.0682C8.54703 11.0563 8.45949 10.9347 8.42561 11.0091C8.42408 11.0129 8.4647 11.0689 8.46868 11.0682ZM2.66764 16.8854C2.77474 16.8565 2.73691 16.7486 2.65772 16.7661C2.57847 16.7839 2.63503 16.8944 2.66764 16.8854ZM2.14472 17.6465C2.24842 17.5942 2.08795 17.4547 2.05584 17.5697C2.05391 17.5763 2.13868 17.6496 2.14472 17.6465ZM3.77352 18.9622C3.77174 18.9609 3.72289 18.9858 3.7227 18.9881C3.72021 19.0438 3.81787 18.9941 3.77352 18.9622ZM1.92046 18.5473C1.94048 18.5097 1.89814 18.4189 1.86687 18.4642C1.84074 18.5032 1.89463 18.5974 1.92046 18.5473ZM11.3413 8.99749C11.3435 8.99861 11.3759 8.97636 11.3676 8.96683C11.3409 8.93622 11.3044 8.9785 11.3413 8.99749ZM3.23087 19.1743C2.99162 19.2578 2.84357 19.0872 3.06639 19.0597C3.10814 19.0518 2.99189 19.137 3.0489 19.1387C3.15954 19.1392 3.17794 19.013 3.29332 19.0175C3.31691 19.0179 3.24751 19.17 3.23057 19.1747C3.23067 19.1746 3.23077 19.1744 3.23087 19.1743ZM8.61332 11.1816C8.61562 11.1823 8.65874 11.1491 8.6585 11.1467C8.65099 11.0914 8.56405 11.1583 8.61332 11.1816ZM13.2594 7.90909C13.2621 7.91224 13.3773 7.9342 13.382 7.93252C13.4628 7.86759 13.2121 7.8193 13.2594 7.90909ZM5.95032 13.6889C5.94074 13.7643 5.89392 13.8173 5.81831 13.8071C5.86275 13.7685 5.90566 13.7277 5.95032 13.6889Z" fill="#DDDDDD"/>
</svg>
