<svg width="20" height="20" viewBox="0 0 20 20" fill="none" xmlns="http://www.w3.org/2000/svg">
<path d="M19 18.9902L13 12.9902M1 7.99023C1 8.90949 1.18106 9.81974 1.53284 10.669C1.88463 11.5183 2.40024 12.29 3.05025 12.94C3.70026 13.59 4.47194 14.1056 5.32122 14.4574C6.1705 14.8092 7.08075 14.9902 8 14.9902C8.91925 14.9902 9.82951 14.8092 10.6788 14.4574C11.5281 14.1056 12.2997 13.59 12.9497 12.94C13.5998 12.29 14.1154 11.5183 14.4672 10.669C14.8189 9.81974 15 8.90949 15 7.99023C15 7.07098 14.8189 6.16073 14.4672 5.31145C14.1154 4.46217 13.5998 3.6905 12.9497 3.04049C12.2997 2.39048 11.5281 1.87486 10.6788 1.52308C9.82951 1.17129 8.91925 0.990234 8 0.990234C7.08075 0.990234 6.1705 1.17129 5.32122 1.52308C4.47194 1.87486 3.70026 2.39048 3.05025 3.04049C2.40024 3.6905 1.88463 4.46217 1.53284 5.31145C1.18106 6.16073 1 7.07098 1 7.99023Z" stroke="#171717" stroke-linecap="round" stroke-linejoin="round"/>
</svg>
