<svg width="21" height="22" viewBox="0 0 21 22" fill="none" xmlns="http://www.w3.org/2000/svg">
<path d="M20.1753 13.4691L18.6401 12.1566C18.7128 11.7113 18.7503 11.2566 18.7503 10.802C18.7503 10.3473 18.7128 9.89258 18.6401 9.44727L20.1753 8.13477C20.2911 8.03564 20.374 7.90362 20.4129 7.75625C20.4518 7.60888 20.445 7.45315 20.3933 7.30977L20.3722 7.24883C19.9496 6.06763 19.3167 4.97265 18.5042 4.0168L18.462 3.96758C18.3635 3.85168 18.2321 3.76837 18.0852 3.72863C17.9384 3.68888 17.7829 3.69456 17.6394 3.74492L15.7339 4.42227C15.0308 3.8457 14.2456 3.39102 13.3972 3.07227L13.0292 1.08008C13.0014 0.930177 12.9287 0.792271 12.8207 0.684682C12.7127 0.577093 12.5745 0.504914 12.4245 0.477734L12.3612 0.466016C11.1401 0.245703 9.85577 0.245703 8.63467 0.466016L8.57139 0.477734C8.42138 0.504914 8.2832 0.577093 8.17519 0.684682C8.06718 0.792271 7.99447 0.930177 7.9667 1.08008L7.59639 3.08164C6.75473 3.40047 5.97093 3.85492 5.27608 4.42695L3.35655 3.74492C3.21303 3.69416 3.05746 3.68828 2.91052 3.72805C2.76358 3.76782 2.63222 3.85136 2.53389 3.96758L2.4917 4.0168C1.68016 4.97333 1.04742 6.06813 0.623735 7.24883L0.602641 7.30977C0.497173 7.60273 0.583891 7.93086 0.82061 8.13477L2.37452 9.46133C2.30186 9.90195 2.2667 10.352 2.2667 10.7996C2.2667 11.2496 2.30186 11.6996 2.37452 12.1379L0.82061 13.4645C0.704819 13.5636 0.621946 13.6956 0.58301 13.843C0.544075 13.9903 0.550922 14.1461 0.602641 14.2895L0.623735 14.3504C1.04795 15.5316 1.67608 16.6215 2.4917 17.5824L2.53389 17.6316C2.63246 17.7475 2.76382 17.8308 2.91068 17.8706C3.05753 17.9103 3.21299 17.9047 3.35655 17.8543L5.27608 17.1723C5.97452 17.7465 6.75499 18.2012 7.59639 18.5176L7.9667 20.5191C7.99447 20.669 8.06718 20.8069 8.17519 20.9145C8.2832 21.0221 8.42138 21.0943 8.57139 21.1215L8.63467 21.1332C9.86699 21.3547 11.1289 21.3547 12.3612 21.1332L12.4245 21.1215C12.5745 21.0943 12.7127 21.0221 12.8207 20.9145C12.9287 20.8069 13.0014 20.669 13.0292 20.5191L13.3972 18.527C14.2453 18.209 15.0349 17.7529 15.7339 17.177L17.6394 17.8543C17.7829 17.9051 17.9384 17.9109 18.0854 17.8712C18.2323 17.8314 18.3637 17.7479 18.462 17.6316L18.5042 17.5824C19.3198 16.6191 19.948 15.5316 20.3722 14.3504L20.3933 14.2895C20.4987 14.0012 20.412 13.673 20.1753 13.4691ZM16.9761 9.72383C17.0347 10.0777 17.0651 10.441 17.0651 10.8043C17.0651 11.1676 17.0347 11.5309 16.9761 11.8848L16.8214 12.8246L18.5722 14.3223C18.3068 14.9337 17.9717 15.5126 17.5737 16.0473L15.3987 15.2762L14.6628 15.8809C14.1026 16.3402 13.4792 16.7012 12.8042 16.9543L11.9112 17.2895L11.4917 19.5629C10.8298 19.6379 10.1615 19.6379 9.49952 19.5629L9.07998 17.2848L8.19405 16.9449C7.52608 16.6918 6.90499 16.3309 6.34952 15.8738L5.61358 15.2668L3.42452 16.0449C3.02608 15.5082 2.69327 14.9293 2.42608 14.3199L4.19561 12.8082L4.04327 11.8707C3.98702 11.5215 3.95655 11.1605 3.95655 10.8043C3.95655 10.4457 3.98467 10.0871 4.04327 9.73789L4.19561 8.80039L2.42608 7.28867C2.69092 6.67695 3.02608 6.10039 3.42452 5.56367L5.61358 6.3418L6.34952 5.73477C6.90499 5.27773 7.52608 4.9168 8.19405 4.66367L9.08233 4.32852L9.50186 2.05039C10.1605 1.97539 10.8331 1.97539 11.494 2.05039L11.9136 4.32383L12.8065 4.65898C13.4792 4.91211 14.105 5.27305 14.6651 5.73242L15.4011 6.33711L17.5761 5.56602C17.9745 6.10273 18.3073 6.68164 18.5745 7.29102L16.8237 8.78867L16.9761 9.72383ZM10.5003 6.44492C8.22217 6.44492 6.3753 8.2918 6.3753 10.5699C6.3753 12.848 8.22217 14.6949 10.5003 14.6949C12.7784 14.6949 14.6253 12.848 14.6253 10.5699C14.6253 8.2918 12.7784 6.44492 10.5003 6.44492ZM12.3565 12.4262C12.1131 12.6703 11.8237 12.864 11.5052 12.9959C11.1866 13.1278 10.8451 13.1955 10.5003 13.1949C9.79952 13.1949 9.14092 12.9207 8.64405 12.4262C8.39988 12.1827 8.20627 11.8934 8.07434 11.5748C7.9424 11.2562 7.87476 10.9147 7.8753 10.5699C7.8753 9.86914 8.14952 9.21055 8.64405 8.71367C9.14092 8.2168 9.79952 7.94492 10.5003 7.94492C11.2011 7.94492 11.8597 8.2168 12.3565 8.71367C12.6007 8.95714 12.7943 9.24647 12.9263 9.56504C13.0582 9.88361 13.1258 10.2251 13.1253 10.5699C13.1253 11.2707 12.8511 11.9293 12.3565 12.4262Z" fill="#777777"/>
</svg>
