<svg width="21" height="22" viewBox="0 0 21 22" fill="none" xmlns="http://www.w3.org/2000/svg">
<path d="M10.5116 8.15449C9.81083 8.15449 9.15458 8.42637 8.6577 8.92324C8.16317 9.42012 7.88895 10.0764 7.88895 10.7771C7.88895 11.4779 8.16317 12.1342 8.6577 12.6311C9.15458 13.1256 9.81083 13.3998 10.5116 13.3998C11.2124 13.3998 11.8686 13.1256 12.3655 12.6311C12.86 12.1342 13.1343 11.4779 13.1343 10.7771C13.1343 10.0764 12.86 9.42012 12.3655 8.92324C12.1228 8.67869 11.834 8.4848 11.5157 8.35283C11.1974 8.22085 10.8561 8.15344 10.5116 8.15449ZM20.1749 13.674L18.6421 12.3639C18.7147 11.9186 18.7522 11.4639 18.7522 11.0115C18.7522 10.5592 18.7147 10.1021 18.6421 9.65918L20.1749 8.34902C20.2907 8.2499 20.3736 8.11787 20.4125 7.97051C20.4514 7.82314 20.4446 7.66741 20.3929 7.52402L20.3718 7.46309C19.9499 6.28345 19.3178 5.19001 18.5061 4.23574L18.464 4.18652C18.3654 4.07063 18.234 3.98732 18.0872 3.94757C17.9403 3.90783 17.7849 3.91351 17.6413 3.96387L15.7382 4.64121C15.035 4.06465 14.2522 3.60996 13.4038 3.29356L13.0358 1.30371C13.0081 1.15381 12.9353 1.0159 12.8273 0.908315C12.7193 0.800726 12.5811 0.728547 12.4311 0.701367L12.3679 0.689648C11.1491 0.469336 9.86473 0.469336 8.64598 0.689648L8.5827 0.701367C8.43269 0.728547 8.29451 0.800726 8.1865 0.908315C8.07849 1.0159 8.00578 1.15381 7.97801 1.30371L7.6077 3.30293C6.76729 3.62184 5.9844 4.07543 5.28973 4.6459L3.37255 3.96387C3.22903 3.91311 3.07346 3.90722 2.92652 3.94699C2.77958 3.98676 2.64821 4.07031 2.54989 4.18652L2.5077 4.23574C1.69744 5.19102 1.06551 6.28419 0.642077 7.46309L0.620983 7.52402C0.515514 7.81699 0.602233 8.14512 0.838952 8.34902L2.39051 9.67324C2.31786 10.1139 2.2827 10.5639 2.2827 11.0092C2.2827 11.4592 2.31786 11.9092 2.39051 12.3451L0.843639 13.6693C0.727848 13.7685 0.644975 13.9005 0.606039 14.0479C0.567104 14.1952 0.573951 14.351 0.62567 14.4943L0.646764 14.5553C1.07098 15.7342 1.69676 16.824 2.51239 17.7826L2.55458 17.8318C2.65314 17.9477 2.78451 18.031 2.93136 18.0708C3.07822 18.1105 3.23367 18.1049 3.37723 18.0545L5.29442 17.3725C5.99286 17.9467 6.77098 18.4014 7.61239 18.7154L7.9827 20.7147C8.01046 20.8646 8.08318 21.0025 8.19119 21.11C8.29919 21.2176 8.43738 21.2898 8.58739 21.317L8.65067 21.3287C9.88141 21.5502 11.1418 21.5502 12.3725 21.3287L12.4358 21.317C12.5858 21.2898 12.724 21.2176 12.832 21.11C12.94 21.0025 13.0128 20.8646 13.0405 20.7147L13.4085 18.7248C14.2569 18.4061 15.0397 17.9537 15.7429 17.3771L17.646 18.0545C17.7895 18.1053 17.9451 18.1111 18.092 18.0714C18.239 18.0316 18.3703 17.9481 18.4686 17.8318L18.5108 17.7826C19.3265 16.8193 19.9522 15.7342 20.3765 14.5553L20.3975 14.4943C20.4983 14.2037 20.4116 13.8779 20.1749 13.674ZM10.5116 14.8975C8.23583 14.8975 6.3913 13.0529 6.3913 10.7771C6.3913 8.50137 8.23583 6.65684 10.5116 6.65684C12.7874 6.65684 14.6319 8.50137 14.6319 10.7771C14.6319 13.0529 12.7874 14.8975 10.5116 14.8975Z" fill="#008080"/>
</svg>
