<svg width="25" height="21" viewBox="0 0 25 21" fill="none" xmlns="http://www.w3.org/2000/svg">
<path d="M0.125 2.05371C0.125 1.63102 0.287974 1.22565 0.578069 0.926759C0.868164 0.627873 1.26162 0.459961 1.67188 0.459961H23.3281C23.7384 0.459961 24.1318 0.627873 24.4219 0.926759C24.712 1.22565 24.875 1.63102 24.875 2.05371C24.875 2.4764 24.712 2.88178 24.4219 3.18066C24.1318 3.47955 23.7384 3.64746 23.3281 3.64746H1.67188C1.26162 3.64746 0.868164 3.47955 0.578069 3.18066C0.287974 2.88178 0.125 2.4764 0.125 2.05371ZM0.125 10.5537C0.125 10.131 0.287974 9.72565 0.578069 9.42676C0.868164 9.12787 1.26162 8.95996 1.67188 8.95996H23.3281C23.7384 8.95996 24.1318 9.12787 24.4219 9.42676C24.712 9.72565 24.875 10.131 24.875 10.5537C24.875 10.9764 24.712 11.3818 24.4219 11.6807C24.1318 11.9795 23.7384 12.1475 23.3281 12.1475H1.67188C1.26162 12.1475 0.868164 11.9795 0.578069 11.6807C0.287974 11.3818 0.125 10.9764 0.125 10.5537ZM0.125 19.0537C0.125 18.631 0.287974 18.2256 0.578069 17.9268C0.868164 17.6279 1.26162 17.46 1.67188 17.46H23.3281C23.7384 17.46 24.1318 17.6279 24.4219 17.9268C24.712 18.2256 24.875 18.631 24.875 19.0537C24.875 19.4764 24.712 19.8818 24.4219 20.1807C24.1318 20.4795 23.7384 20.6475 23.3281 20.6475H1.67188C1.26162 20.6475 0.868164 20.4795 0.578069 20.1807C0.287974 19.8818 0.125 19.4764 0.125 19.0537Z" fill="#008080"/>
</svg>
