<svg width="165" height="135" viewBox="0 0 165 135" fill="none" xmlns="http://www.w3.org/2000/svg">
<circle cx="69.0127" cy="28.7526" r="27.9814" fill="#4B4B4B"/>
<rect x="86.6912" y="58.1537" width="16.1292" height="33.4742" rx="3.14121" transform="rotate(-44.819 86.6912 58.1537)" fill="#4B4B4B"/>
<rect x="85.5864" y="50.4205" width="6.61332" height="6.76842" transform="rotate(-45.8249 85.5864 50.4205)" fill="#4B4B4B"/>
<circle cx="69.0127" cy="28.7526" r="22.8503" fill="white"/>
<path d="M48.3589 29.0063C48.7357 -2.03259 95.7417 2.8187 89.0063 34.2344L82.7983 30.7296V21.991H76.1919V26.7125L64.2738 19.7825L48.3589 29.0063Z" fill="#008080" stroke="black" stroke-width="0.0923885"/>
<path d="M64.3259 22.0828L48.6887 31.597C49.9133 51.2849 80.2458 57.3137 88.1586 36.2128L64.3259 22.0828Z" fill="#24A59E" stroke="#24A59E" stroke-width="0.0923885"/>
<rect x="59.9792" y="33.3497" width="3.65566" height="3.65562" fill="white"/>
<rect x="59.9795" y="38.6223" width="3.65566" height="3.65562" fill="white"/>
<rect x="65.3574" y="33.3497" width="3.65566" height="3.65562" fill="white"/>
<rect x="65.3574" y="38.6223" width="3.65566" height="3.65562" fill="white"/>
<path d="M10.3761 110.344V89.9526H14.7377V110.344H10.3761ZM18.4169 110.344V95.9002H22.5802V99.2989H22.6652V110.344H18.4169ZM28.4712 110.344V101.395C28.4712 100.602 28.2635 100.007 27.8481 99.6104C27.4516 99.2139 26.8663 99.0156 26.0922 99.0156C25.4313 99.0156 24.8366 99.1667 24.3079 99.4688C23.7981 99.7709 23.3921 100.186 23.09 100.715C22.8068 101.244 22.6652 101.867 22.6652 102.584L22.297 99.1006C22.7691 98.0432 23.4582 97.203 24.3645 96.5799C25.2897 95.938 26.4226 95.617 27.7632 95.617C29.3681 95.617 30.5954 96.0701 31.4451 96.9764C32.2947 97.8639 32.7196 99.0628 32.7196 100.573V110.344H28.4712ZM42.2977 110.628C40.183 110.628 38.5026 110.203 37.2564 109.353C36.0102 108.504 35.3305 107.333 35.2172 105.841H39.0124C39.1068 106.483 39.4278 106.974 39.9753 107.314C40.5418 107.635 41.3159 107.795 42.2977 107.795C43.1852 107.795 43.8271 107.673 44.2236 107.427C44.639 107.163 44.8467 106.795 44.8467 106.323C44.8467 105.964 44.724 105.69 44.4785 105.501C44.252 105.294 43.8271 105.124 43.204 104.992L40.8816 104.51C39.1634 104.151 37.8984 103.613 37.0865 102.896C36.2746 102.159 35.8686 101.215 35.8686 100.064C35.8686 98.6663 36.4067 97.5807 37.483 96.8065C38.5592 96.0135 40.0603 95.617 41.9862 95.617C43.8932 95.617 45.4132 96.0041 46.546 96.7782C47.6789 97.5335 48.302 98.5908 48.4153 99.9503H44.6201C44.5446 99.4594 44.2803 99.0912 43.8271 98.8457C43.374 98.5814 42.732 98.4492 41.9012 98.4492C41.146 98.4492 40.5795 98.5625 40.2019 98.7891C39.8432 98.9968 39.6638 99.2989 39.6638 99.6954C39.6638 100.035 39.8148 100.309 40.1169 100.517C40.419 100.706 40.9194 100.875 41.618 101.027L44.2236 101.565C45.6775 101.867 46.7726 102.433 47.509 103.264C48.2643 104.076 48.6419 105.039 48.6419 106.153C48.6419 107.569 48.0849 108.673 46.9709 109.466C45.8758 110.241 44.318 110.628 42.2977 110.628ZM60.1097 110.628C58.7313 110.628 57.6268 110.307 56.796 109.665C55.9652 109.023 55.4743 108.145 55.3232 107.031L55.5498 107.002V116.151H51.3015V95.9002H55.4649V99.1006L55.21 99.044C55.4177 97.9866 55.9841 97.1558 56.9093 96.5516C57.8345 95.9285 58.9768 95.617 60.3363 95.617C61.6391 95.617 62.7625 95.9285 63.7066 96.5516C64.6695 97.1558 65.4059 98.0149 65.9157 99.1289C66.4444 100.243 66.7087 101.555 66.7087 103.066C66.7087 104.595 66.435 105.926 65.8874 107.059C65.3398 108.192 64.5751 109.07 63.5933 109.693C62.6115 110.316 61.4503 110.628 60.1097 110.628ZM58.9202 107.229C59.9209 107.229 60.7328 106.87 61.3559 106.153C61.9789 105.435 62.2905 104.416 62.2905 103.094C62.2905 101.772 61.9695 100.762 61.3275 100.064C60.7044 99.3649 59.8831 99.0156 58.8635 99.0156C57.8817 99.0156 57.0698 99.3744 56.4278 100.092C55.8047 100.79 55.4932 101.801 55.4932 103.122C55.4932 104.444 55.8047 105.464 56.4278 106.181C57.0698 106.88 57.9006 107.229 58.9202 107.229ZM76.7261 110.628C75.1212 110.628 73.724 110.316 72.5345 109.693C71.3449 109.051 70.4197 108.164 69.7589 107.031C69.1169 105.898 68.7959 104.595 68.7959 103.122C68.7959 101.631 69.1169 100.328 69.7589 99.2139C70.4197 98.081 71.3355 97.203 72.5061 96.5799C73.6768 95.938 75.0362 95.617 76.5845 95.617C78.0761 95.617 79.3695 95.9191 80.4646 96.5233C81.5598 97.1275 82.4094 97.9677 83.0136 99.044C83.6178 100.12 83.9199 101.385 83.9199 102.839C83.9199 103.141 83.9105 103.424 83.8916 103.689C83.8727 103.934 83.8444 104.17 83.8067 104.397H71.2883V101.593H80.3797L79.6433 102.103C79.6433 100.932 79.3601 100.073 78.7936 99.5254C78.2461 98.959 77.4908 98.6758 76.5279 98.6758C75.4139 98.6758 74.5453 99.0534 73.9222 99.8087C73.318 100.564 73.0159 101.697 73.0159 103.207C73.0159 104.68 73.318 105.775 73.9222 106.493C74.5453 107.21 75.4705 107.569 76.6978 107.569C77.3775 107.569 77.9629 107.456 78.4538 107.229C78.9447 107.002 79.3129 106.634 79.5583 106.124H83.5518C83.0797 107.522 82.2678 108.626 81.1161 109.438C79.9832 110.231 78.5199 110.628 76.7261 110.628ZM96.0776 110.628C94.6049 110.628 93.2454 110.373 91.9993 109.863C90.7531 109.334 89.6674 108.598 88.7422 107.654C87.8359 106.71 87.1279 105.596 86.6181 104.312C86.1083 103.009 85.8534 101.593 85.8534 100.064C85.8534 98.5342 86.0988 97.1369 86.5897 95.8719C87.0995 94.6068 87.8076 93.5117 88.7139 92.5865C89.6391 91.6425 90.7248 90.925 91.9709 90.434C93.2171 89.9242 94.586 89.6693 96.0776 89.6693C97.7581 89.6693 99.2686 89.9998 100.609 90.6606C101.969 91.3026 103.073 92.2183 103.923 93.4079C104.791 94.5785 105.32 95.9569 105.509 97.5429H101.261C101.015 96.089 100.42 94.9939 99.4763 94.2575C98.5322 93.5023 97.4088 93.1246 96.106 93.1246C94.9542 93.1246 93.9346 93.3984 93.0472 93.946C92.1786 94.4935 91.4989 95.2866 91.008 96.325C90.5171 97.3446 90.2716 98.5814 90.2716 100.035C90.2716 101.508 90.5171 102.782 91.008 103.859C91.5178 104.916 92.2164 105.737 93.1038 106.323C93.9912 106.889 95.0108 107.172 96.1626 107.172C97.3899 107.172 98.4756 106.804 99.4197 106.068C100.364 105.331 100.977 104.236 101.261 102.782H105.566C105.32 104.369 104.763 105.756 103.895 106.946C103.026 108.116 101.921 109.023 100.581 109.665C99.2403 110.307 97.7392 110.628 96.0776 110.628ZM117.022 110.344C116.908 109.929 116.823 109.485 116.767 109.013C116.729 108.541 116.71 107.994 116.71 107.371H116.597V100.545C116.597 99.9597 116.399 99.5066 116.002 99.1856C115.624 98.8457 115.058 98.6758 114.303 98.6758C113.585 98.6758 113.009 98.7985 112.575 99.044C112.16 99.2894 111.886 99.6482 111.754 100.12H107.704C107.892 98.8174 108.563 97.7411 109.715 96.8915C110.866 96.0418 112.443 95.617 114.444 95.617C116.521 95.617 118.107 96.0796 119.202 97.0048C120.298 97.93 120.845 99.2611 120.845 100.998V107.371C120.845 107.843 120.873 108.324 120.93 108.815C121.006 109.287 121.119 109.797 121.27 110.344H117.022ZM111.98 110.628C110.545 110.628 109.403 110.269 108.553 109.551C107.704 108.815 107.279 107.843 107.279 106.634C107.279 105.294 107.779 104.217 108.78 103.406C109.799 102.575 111.216 102.037 113.028 101.791L117.248 101.196V103.66L113.736 104.199C112.981 104.312 112.424 104.52 112.065 104.822C111.707 105.124 111.527 105.539 111.527 106.068C111.527 106.54 111.697 106.899 112.037 107.144C112.377 107.39 112.83 107.512 113.396 107.512C114.284 107.512 115.039 107.276 115.662 106.804C116.285 106.313 116.597 105.747 116.597 105.105L116.993 107.371C116.578 108.447 115.945 109.259 115.096 109.806C114.246 110.354 113.208 110.628 111.98 110.628ZM130.124 110.628C128.009 110.628 126.329 110.203 125.083 109.353C123.836 108.504 123.157 107.333 123.043 105.841H126.839C126.933 106.483 127.254 106.974 127.802 107.314C128.368 107.635 129.142 107.795 130.124 107.795C131.011 107.795 131.653 107.673 132.05 107.427C132.465 107.163 132.673 106.795 132.673 106.323C132.673 105.964 132.55 105.69 132.305 105.501C132.078 105.294 131.653 105.124 131.03 104.992L128.708 104.51C126.99 104.151 125.725 103.613 124.913 102.896C124.101 102.159 123.695 101.215 123.695 100.064C123.695 98.6663 124.233 97.5807 125.309 96.8065C126.385 96.0135 127.886 95.617 129.812 95.617C131.719 95.617 133.239 96.0041 134.372 96.7782C135.505 97.5335 136.128 98.5908 136.241 99.9503H132.446C132.371 99.4594 132.106 99.0912 131.653 98.8457C131.2 98.5814 130.558 98.4492 129.727 98.4492C128.972 98.4492 128.406 98.5625 128.028 98.7891C127.669 98.9968 127.49 99.2989 127.49 99.6954C127.49 100.035 127.641 100.309 127.943 100.517C128.245 100.706 128.746 100.875 129.444 101.027L132.05 101.565C133.504 101.867 134.599 102.433 135.335 103.264C136.09 104.076 136.468 105.039 136.468 106.153C136.468 107.569 135.911 108.673 134.797 109.466C133.702 110.241 132.144 110.628 130.124 110.628ZM148.357 110.344C148.244 109.929 148.159 109.485 148.102 109.013C148.065 108.541 148.046 107.994 148.046 107.371H147.933V100.545C147.933 99.9597 147.734 99.5066 147.338 99.1856C146.96 98.8457 146.394 98.6758 145.638 98.6758C144.921 98.6758 144.345 98.7985 143.911 99.044C143.495 99.2894 143.222 99.6482 143.089 100.12H139.039C139.228 98.8174 139.899 97.7411 141.05 96.8915C142.202 96.0418 143.779 95.617 145.78 95.617C147.857 95.617 149.443 96.0796 150.538 97.0048C151.633 97.93 152.181 99.2611 152.181 100.998V107.371C152.181 107.843 152.209 108.324 152.266 108.815C152.341 109.287 152.455 109.797 152.606 110.344H148.357ZM143.316 110.628C141.881 110.628 140.739 110.269 139.889 109.551C139.039 108.815 138.615 107.843 138.615 106.634C138.615 105.294 139.115 104.217 140.116 103.406C141.135 102.575 142.551 102.037 144.364 101.791L148.584 101.196V103.66L145.072 104.199C144.317 104.312 143.76 104.52 143.401 104.822C143.042 105.124 142.863 105.539 142.863 106.068C142.863 106.54 143.033 106.899 143.373 107.144C143.713 107.39 144.166 107.512 144.732 107.512C145.62 107.512 146.375 107.276 146.998 106.804C147.621 106.313 147.933 105.747 147.933 105.105L148.329 107.371C147.914 108.447 147.281 109.259 146.431 109.806C145.582 110.354 144.543 110.628 143.316 110.628Z" fill="white"/>
<path d="M1.20805 131.157V120.961H6.05113C6.80639 120.961 7.45308 121.093 7.9912 121.358C8.53876 121.622 8.95887 121.99 9.25153 122.462C9.55363 122.934 9.70468 123.487 9.70468 124.119C9.70468 124.752 9.55363 125.309 9.25153 125.79C8.94943 126.272 8.5246 126.649 7.97704 126.923C7.43892 127.187 6.79695 127.319 6.05113 127.319H2.9357V125.648H5.93784C6.4382 125.648 6.82527 125.512 7.09905 125.238C7.38227 124.955 7.52388 124.586 7.52388 124.133C7.52388 123.68 7.38227 123.317 7.09905 123.043C6.82527 122.769 6.4382 122.632 5.93784 122.632H3.38885V131.157H1.20805ZM15.7638 131.157V120.961H20.3237C21.0601 120.961 21.702 121.089 22.2496 121.343C22.7972 121.589 23.222 121.938 23.5241 122.391C23.8262 122.845 23.9773 123.373 23.9773 123.977C23.9773 124.572 23.8262 125.096 23.5241 125.549C23.222 125.993 22.7972 126.342 22.2496 126.597C21.702 126.843 21.0601 126.965 20.3237 126.965H17.4915V125.365H20.2671C20.7863 125.365 21.1828 125.247 21.4566 125.011C21.7398 124.766 21.8814 124.426 21.8814 123.992C21.8814 123.548 21.7445 123.213 21.4707 122.986C21.197 122.75 20.7957 122.632 20.2671 122.632H17.9446V131.157H15.7638ZM21.5132 131.157L17.4207 125.861H19.7289L24.4587 131.157H21.5132ZM35.1539 131.299C34.3986 131.299 33.7 131.171 33.058 130.916C32.4255 130.661 31.8732 130.303 31.4012 129.84C30.9386 129.368 30.5751 128.811 30.3108 128.169C30.0559 127.518 29.9284 126.8 29.9284 126.017C29.9284 124.978 30.1503 124.072 30.594 123.298C31.0377 122.514 31.6514 121.905 32.4349 121.471C33.228 121.037 34.1295 120.82 35.1397 120.82C36.1687 120.82 37.075 121.037 37.8586 121.471C38.6422 121.905 39.2558 122.514 39.6996 123.298C40.1527 124.081 40.3793 124.992 40.3793 126.031C40.3793 126.805 40.2471 127.518 39.9828 128.169C39.7279 128.811 39.3644 129.368 38.8924 129.84C38.4298 130.303 37.8775 130.661 37.2355 130.916C36.603 131.171 35.9091 131.299 35.1539 131.299ZM35.1397 129.571C35.7345 129.571 36.2584 129.42 36.7116 129.118C37.1647 128.816 37.5188 128.4 37.7737 127.872C38.038 127.334 38.1702 126.711 38.1702 126.002C38.1702 125.304 38.0427 124.695 37.7878 124.176C37.5329 123.656 37.1789 123.255 36.7257 122.972C36.2726 122.689 35.7439 122.547 35.1397 122.547C34.5449 122.547 34.021 122.689 33.5678 122.972C33.1147 123.255 32.7606 123.656 32.5057 124.176C32.2603 124.686 32.1376 125.294 32.1376 126.002C32.1376 126.72 32.265 127.348 32.5199 127.886C32.7748 128.415 33.1288 128.83 33.582 129.132C34.0351 129.425 34.5544 129.571 35.1397 129.571ZM46.6081 131.157V120.961H51.4511C52.2064 120.961 52.8531 121.093 53.3912 121.358C53.9388 121.622 54.3589 121.99 54.6515 122.462C54.9536 122.934 55.1047 123.487 55.1047 124.119C55.1047 124.752 54.9536 125.309 54.6515 125.79C54.3494 126.272 53.9246 126.649 53.377 126.923C52.8389 127.187 52.1969 127.319 51.4511 127.319H48.3357V125.648H51.3378C51.8382 125.648 52.2253 125.512 52.4991 125.238C52.7823 124.955 52.9239 124.586 52.9239 124.133C52.9239 123.68 52.7823 123.317 52.4991 123.043C52.2253 122.769 51.8382 122.632 51.3378 122.632H48.7889V131.157H46.6081ZM61.2205 131.157V120.961H63.4013V131.157H61.2205ZM62.2401 131.157V129.486H68.8108V131.157H62.2401ZM62.2401 126.767V125.124H68.3152V126.767H62.2401ZM62.2401 122.632V120.961H68.6409V122.632H62.2401ZM75.0295 131.157V120.961H79.5894C80.3257 120.961 80.9677 121.089 81.5153 121.343C82.0628 121.589 82.4877 121.938 82.7898 122.391C83.0919 122.845 83.2429 123.373 83.2429 123.977C83.2429 124.572 83.0919 125.096 82.7898 125.549C82.4877 125.993 82.0628 126.342 81.5153 126.597C80.9677 126.843 80.3257 126.965 79.5894 126.965H76.7572V125.365H79.5327C80.052 125.365 80.4485 125.247 80.7222 125.011C81.0055 124.766 81.1471 124.426 81.1471 123.992C81.1471 123.548 81.0102 123.213 80.7364 122.986C80.4626 122.75 80.0614 122.632 79.5327 122.632H77.2103V131.157H75.0295ZM80.7789 131.157L76.6863 125.861H78.9946L83.7244 131.157H80.7789ZM92.2572 131.157V122.632H88.9294V120.961H97.7658V122.632H94.438V131.157H92.2572ZM107.153 131.157V127.036L103.358 120.961H105.977L108.98 126.357H107.748L110.736 120.961H113.129L109.334 127.036V131.157H107.153ZM126.884 131.157V120.961H129.065V131.157H126.884ZM127.904 131.157V129.486H134.474V131.157H127.904ZM127.904 126.767V125.124H133.979V126.767H127.904ZM127.904 122.632V120.961H134.304V122.632H127.904ZM144.02 131.157V127.036L140.225 120.961H142.845L145.847 126.357H144.615L147.603 120.961H149.996L146.201 127.036V131.157H144.02ZM155.957 131.157V120.961H158.138V131.157H155.957ZM156.976 131.157V129.486H163.547V131.157H156.976ZM156.976 126.767V125.124H163.052V126.767H156.976ZM156.976 122.632V120.961H163.377V122.632H156.976Z" fill="white"/>
</svg>
