<svg width="18" height="17" viewBox="0 0 18 17" fill="none" xmlns="http://www.w3.org/2000/svg">
<path d="M9.25008 13.775L5.10008 16.275C4.91675 16.3916 4.72508 16.4416 4.52508 16.4249C4.32508 16.4083 4.15008 16.3416 4.00008 16.225C3.85008 16.1083 3.73342 15.9626 3.65008 15.788C3.56675 15.6133 3.55008 15.4173 3.60008 15.2L4.70008 10.475L1.02508 7.29995C0.858418 7.14995 0.754418 6.97895 0.713085 6.78695C0.671751 6.59495 0.684085 6.40762 0.750085 6.22495C0.816085 6.04228 0.916085 5.89228 1.05008 5.77495C1.18408 5.65762 1.36742 5.58262 1.60008 5.54995L6.45008 5.12495L8.32508 0.674951C8.40842 0.474951 8.53775 0.324951 8.71309 0.224951C8.88842 0.124951 9.06742 0.0749512 9.25008 0.0749512C9.43275 0.0749512 9.61175 0.124951 9.78708 0.224951C9.96242 0.324951 10.0918 0.474951 10.1751 0.674951L12.0501 5.12495L16.9001 5.54995C17.1334 5.58328 17.3168 5.65828 17.4501 5.77495C17.5834 5.89162 17.6834 6.04162 17.7501 6.22495C17.8168 6.40829 17.8294 6.59595 17.7881 6.78795C17.7467 6.97995 17.6424 7.15062 17.4751 7.29995L13.8001 10.475L14.9001 15.2C14.9501 15.4166 14.9334 15.6126 14.8501 15.788C14.7668 15.9633 14.6501 16.109 14.5001 16.225C14.3501 16.341 14.1751 16.4076 13.9751 16.4249C13.7751 16.4423 13.5834 16.3923 13.4001 16.275L9.25008 13.775Z" fill="#DDDDDD"/>
</svg>
