<svg width="25" height="25" viewBox="0 0 25 25" fill="none" xmlns="http://www.w3.org/2000/svg">
<path d="M2.5 12.2318C2.5005 10.0394 3.22148 7.90796 4.55199 6.16544C5.88249 4.42292 7.74877 3.16593 9.8636 2.58792C11.9784 2.00992 14.2246 2.14293 16.2565 2.9665C18.2883 3.79007 19.9932 5.25854 21.1087 7.14591C22.2243 9.03329 22.6886 11.235 22.4304 13.4121C22.1721 15.5892 21.2055 17.6212 19.6794 19.1952C18.1533 20.7692 16.1521 21.7981 13.984 22.1234C11.8159 22.4488 9.60092 22.0526 7.68 20.9958L3.792 22.1798C3.61858 22.2327 3.43407 22.2374 3.25819 22.1934C3.08231 22.1495 2.92168 22.0585 2.7935 21.9304C2.66531 21.8022 2.57438 21.6415 2.53043 21.4657C2.48648 21.2898 2.49117 21.1053 2.544 20.9318L3.728 17.0378C2.92153 15.5644 2.4992 13.9116 2.5 12.2318ZM8.5 11.2318C8.5 11.4971 8.60536 11.7514 8.79289 11.939C8.98043 12.1265 9.23478 12.2318 9.5 12.2318H15.5C15.7652 12.2318 16.0196 12.1265 16.2071 11.939C16.3946 11.7514 16.5 11.4971 16.5 11.2318C16.5 10.9666 16.3946 10.7123 16.2071 10.5247C16.0196 10.3372 15.7652 10.2318 15.5 10.2318H9.5C9.23478 10.2318 8.98043 10.3372 8.79289 10.5247C8.60536 10.7123 8.5 10.9666 8.5 11.2318ZM9.5 14.2318C9.23478 14.2318 8.98043 14.3372 8.79289 14.5247C8.60536 14.7123 8.5 14.9666 8.5 15.2318C8.5 15.4971 8.60536 15.7514 8.79289 15.939C8.98043 16.1265 9.23478 16.2318 9.5 16.2318H13.5C13.7652 16.2318 14.0196 16.1265 14.2071 15.939C14.3946 15.7514 14.5 15.4971 14.5 15.2318C14.5 14.9666 14.3946 14.7123 14.2071 14.5247C14.0196 14.3372 13.7652 14.2318 13.5 14.2318H9.5Z" fill="#008080"/>
</svg>
