<svg width="21" height="21" viewBox="0 0 21 21" fill="none" xmlns="http://www.w3.org/2000/svg">
<path d="M6.50025 9.80411C6.50025 9.53889 6.6056 9.28454 6.79314 9.097C6.98067 8.90947 7.23503 8.80411 7.50025 8.80411H13.5002C13.7655 8.80411 14.0198 8.90947 14.2074 9.097C14.3949 9.28454 14.5002 9.53889 14.5002 9.80411C14.5002 10.0693 14.3949 10.3237 14.2074 10.5112C14.0198 10.6988 13.7655 10.8041 13.5002 10.8041H7.50025C7.23503 10.8041 6.98067 10.6988 6.79314 10.5112C6.6056 10.3237 6.50025 10.0693 6.50025 9.80411ZM7.50025 12.8041C7.23503 12.8041 6.98067 12.9095 6.79314 13.097C6.6056 13.2845 6.50025 13.5389 6.50025 13.8041C6.50025 14.0693 6.6056 14.3237 6.79314 14.5112C6.98067 14.6988 7.23503 14.8041 7.50025 14.8041H11.5002C11.7655 14.8041 12.0198 14.6988 12.2074 14.5112C12.3949 14.3237 12.5002 14.0693 12.5002 13.8041C12.5002 13.5389 12.3949 13.2845 12.2074 13.097C12.0198 12.9095 11.7655 12.8041 11.5002 12.8041H7.50025ZM0.500245 10.8041C0.500747 8.61171 1.22173 6.48023 2.55223 4.73771C3.88273 2.99518 5.74901 1.73819 7.86385 1.16019C9.97868 0.582183 12.2249 0.7152 14.2567 1.53877C16.2885 2.36233 17.9934 3.8308 19.109 5.71818C20.2245 7.60556 20.6889 9.80723 20.4306 11.9844C20.1724 14.1615 19.2058 16.1934 17.6796 17.7675C16.1535 19.3415 14.1524 20.3703 11.9843 20.6957C9.81613 21.021 7.60116 20.6248 5.68024 19.5681L1.79225 20.7521C1.61883 20.8049 1.43431 20.8096 1.25843 20.7657C1.08255 20.7217 0.921929 20.6308 0.79374 20.5026C0.665552 20.3744 0.574621 20.2138 0.530675 20.0379C0.486728 19.862 0.491419 19.6775 0.544245 19.5041L1.72825 15.6101C0.921774 14.1367 0.499448 12.4838 0.500245 10.8041ZM10.5002 2.80411C9.08012 2.80399 7.68556 3.1819 6.4598 3.89902C5.23404 4.61615 4.22127 5.64663 3.5255 6.88464C2.82973 8.12264 2.47605 9.52354 2.50079 10.9434C2.52552 12.3634 2.92778 13.7511 3.66625 14.9641C3.73955 15.0846 3.78653 15.2193 3.80411 15.3592C3.82169 15.4991 3.80947 15.6412 3.76825 15.7761L3.00225 18.2941L5.51624 17.5281C5.65156 17.4869 5.79409 17.4748 5.9344 17.4928C6.07472 17.5107 6.20964 17.5582 6.33025 17.6321C7.3846 18.2758 8.57371 18.6666 9.80438 18.7739C11.0351 18.8812 12.2738 18.702 13.4237 18.2503C14.5735 17.7987 15.6031 17.087 16.4318 16.1708C17.2605 15.2547 17.8658 14.1591 18.2002 12.9699C18.5347 11.7807 18.5892 10.5302 18.3594 9.31641C18.1297 8.10262 17.622 6.95853 16.8761 5.97379C16.1302 4.98905 15.1664 4.19042 14.0603 3.6405C12.9541 3.09058 11.7356 2.80431 10.5002 2.80411Z" fill="#777777"/>
</svg>
